<svg xmlns="http://www.w3.org/2000/svg" aria-label="Pacioli, Asesores de Negocios" viewBox="0 0 3196 1256"><path fill="#bcc6cf" fill-rule="evenodd" d="M1068.42 6.86c.63 1.02 3.04 21.2 5.2 43.64 2.14 22 2.69 102.5.9 130.5-5.54 86.56-21.05 165.47-47.07 239.5-6.07 17.27-14.9 40.06-19.16 49.5a1376 1376 0 0 0-6.36 14.47c-6.56 15.23-25.89 52.96-32.04 62.53-.89 1.38-4.4 7.23-7.8 13-15.29 25.98-45.28 68.13-61.27 86.1-1.28 1.44-4.8 5.5-7.82 9-8.6 10-29.62 31.66-44.12 45.47-5.37 5.11-28.14 24.85-31.39 27.2-.55.4-4.15 3.25-8 6.34-21.81 17.48-57.8 40.53-85.74 54.89-6.96 3.58-12.33 6.77-11.95 7.1s4.75 2.28 9.7 4.33a745 745 0 0 1 15.54 6.62c7.17 3.2 12.62 5.16 29.96 10.83 17.29 5.64 22.05 6.83 51 12.67 41.43 8.36 81.62 9.57 127.44 3.83 6.56-.82 12.24-1.68 12.6-1.9.37-.23 4-.92 8.06-1.53 19.51-2.95 52.84-12.6 79.05-22.9l10.66-4.18 7.25-19.19c13.22-34.97 17.1-46 23.56-66.68l8.32-26.65c3.24-10.28 17.74-69 20.45-82.85 5.84-29.74 9.66-53.7 13.55-85 1.8-14.42 2.76-24.27 6.01-61.25.54-6.18 1.54-26.25 2.2-44.6 3.16-86.4-6.82-189.79-26.62-275.65l-5.19-22.5C1097.37 85 1071.94 6 1068.8 6c-.5 0-.68.39-.38.86M1306 387.5c0 13.12.17 14.5 1.75 14.55 8.36.24 25.05 3.53 32.92 6.49 7.87 2.95 10.93 4.87 15.58 9.76l3.75 3.95V373h-54zm15.6 177.09c-.8 2.1-.76 2.41.3 2.41 1.24 0 2.2-2.82 1.16-3.46-.47-.3-1.12.18-1.45 1.05M133.14 715.1a717 717 0 0 1-4.41 9.89 756 756 0 0 0-5.72 13c-1.76 4.13-4.92 11.33-7 16-2.1 4.67-5.38 12.1-7.3 16.5A3352 3352 0 0 1 88.99 815C69.5 858.28 67 863.9 67 864.41c0 .3-3.76 8.98-8.35 19.3-4.6 10.34-11.4 25.76-15.13 34.29-6.21 14.2-18.33 41.6-27.2 61.5a1454 1454 0 0 1-6.95 15.29c-3.95 8.55-4.02 9.15-1.3 12.3l3.74 4.44c3.3 3.95 19.7 23.03 23.17 26.94 13.67 15.41 42.6 44.65 57.46 58.06a1048 1048 0 0 1 11.56 10.53c.9.86 2.62 2.26 3.83 3.11 1.22.85 3.89 3.08 5.94 4.95s5.76 4.96 8.23 6.87a77 77 0 0 1 5 4.05c.49.59 12.56 9.54 26.5 19.65 9.88 7.17 34.43 23.03 44.5 28.76 4.68 2.65 11.43 6.52 15 8.58 35.54 20.54 92.94 42.57 139 53.34 42.37 9.9 76.67 13.92 119.5 13.96 48.94.05 82.26-4 129.5-15.8 18.18-4.53 54.77-16.22 66.65-21.3l18.35-7.8c30.2-12.83 71.46-36 103.04-57.86 10.99-7.6 34.92-25.27 35.96-26.55.62-.75 17.97-15.26 19.4-16.22 2.96-1.98-1.68-1.4-17.47 2.17-9.59 2.16-20.35 4.64-23.93 5.5s-11.63 2.24-17.9 3.06-14.36 1.92-18 2.44c-27.41 3.94-82.98 4.79-110.1 1.7-25.24-2.88-45.28-5.66-52-7.2-3.58-.82-9.65-2.18-13.5-3.04-15.9-3.53-35.61-8.77-46.5-12.37l-12.5-4.1c-8.43-2.75-36.6-13.43-39.17-14.85-1-.56-7.32-3.54-14.02-6.62-11.13-5.12-32.42-16.15-39.81-20.63-1.65-1-5.93-3.4-9.5-5.33-9.58-5.18-19.34-11.37-20.61-13.05-.61-.82-1.6-1.48-2.22-1.48-.9 0-10.32-5.95-14.67-9.26a333 333 0 0 0-13.48-9.74 224 224 0 0 1-10.82-8.04c-3.13-2.5-8.4-6.6-11.7-9.13s-7.6-6.16-9.54-8.06c-1.95-1.9-4.04-3.65-4.65-3.87-1.12-.4-11.6-9.52-18.28-15.9a379 379 0 0 0-8.6-7.87c-8.84-7.82-23.7-22.56-35.43-35.15l-13-13.95c-.82-.88-3.94-4.5-6.93-8.06a275 275 0 0 0-8-9.18 90 90 0 0 1-4.74-5.5c-1.2-1.53-3.45-4.33-5-6.22-1.56-1.89-8-10.3-14.33-18.7-14.19-18.83-15.13-20.11-17-22.9-.82-1.24-3.3-4.9-5.5-8.13s-4.45-6.6-5-7.48-2.91-4.39-5.25-7.8-4.25-6.35-4.25-6.53c0-.34-6.42-10.28-7.77-12.03-1.72-2.23-19.15-32.21-20.35-35a42 42 0 0 0-2.94-5.5c-1.94-2.93-7.46-13.26-17.06-31.93-3.8-7.39-7.12-13.64-7.37-13.9s-1.32 1.52-2.36 3.94m1223.29 183.98a33 33 0 0 1-7.47 5.41c-5.61 2.86-21.41 6.26-33.76 7.25l-9.3.75-.2 14.25-.21 14.25h54.5v-22.5c0-12.37-.14-22.5-.31-22.5s-1.64 1.4-3.25 3.1"/><path fill="#f79412" fill-rule="evenodd" d="M346 141.97c-.82.47-30.52 10.39-66 22.03a9594 9594 0 0 0-72.5 24c-4.4 1.56-9.12 3.13-10.5 3.5a326 326 0 0 0-12 4c-5.22 1.81-14 4.7-19.5 6.41-5.5 1.72-10.9 3.5-12 3.95s-26.97 9.06-57.5 19.12-55.71 18.48-55.97 18.71c-1.26 1.12.17 53.07 2.57 93.81 1.25 21.23 7.56 74.67 11.5 97.38L58 457.5c3.1 18.11 4.74 26.71 6.31 33.02a160 160 0 0 1 2.15 9.98c.85 5.1 11.18 47.29 12.94 52.82.73 2.3 2.34 7.78 3.57 12.18 5.3 18.94 20.23 62.88 27.52 81a2137 2137 0 0 0 16.41 39.74c7.28 16.14 9.2 21.05 8.72 22.3-.58 1.51 18.8 40.13 24.32 48.46a42 42 0 0 1 2.94 5.5c1.2 2.79 18.63 32.77 20.35 35 1.35 1.75 7.77 11.69 7.77 12.03 0 .18 1.91 3.12 4.25 6.53s4.7 6.92 5.25 7.8 2.8 4.24 5 7.48 4.68 6.9 5.5 8.13c1.87 2.79 2.81 4.07 17 22.9a982 982 0 0 0 14.33 18.7c1.55 1.89 3.8 4.68 5 6.22 1.2 1.53 3.33 4 4.74 5.5 1.42 1.49 5.02 5.62 8 9.18s6.1 7.18 6.93 8.06l13 13.95c11.74 12.59 26.59 27.33 35.43 35.15 2.71 2.4 6.58 5.95 8.6 7.87 6.68 6.38 17.16 15.5 18.28 15.9.6.22 2.7 1.96 4.65 3.87 1.94 1.9 6.24 5.53 9.54 8.06s8.56 6.64 11.7 9.13 8 6.12 10.82 8.04a333 333 0 0 1 13.48 9.74c4.35 3.3 13.77 9.26 14.67 9.26.61 0 1.6.66 2.22 1.48 1.27 1.68 11.03 7.87 20.61 13.05 3.57 1.93 7.85 4.33 9.5 5.33 7.4 4.48 28.68 15.5 39.8 20.63a476 476 0 0 1 14.03 6.62c2.58 1.42 30.74 12.1 39.17 14.85l12.5 4.1c10.89 3.6 30.6 8.85 46.5 12.37 3.85.86 9.92 2.22 13.5 3.04 6.7 1.54 26.6 4.3 52 7.2 20.65 2.36 72.37 2.37 95.5.01 9.35-.95 17.67-1.92 18.5-2.15.83-.24 7.06-1.14 13.85-2s14.89-2.22 18-3.02 13.93-3.3 24.05-5.56c10.13-2.27 20.48-5.2 23-6.5 2.53-1.32 9.33-3.8 15.1-5.53 16.1-4.8 38.58-13.35 56.9-21.64 15.59-7.06 20.33-9.43 39.1-19.55 12.62-6.8 46.13-27.51 48-29.65.27-.32 3.88-2.81 8-5.54 13.22-8.74 43.99-32.46 50-38.55.28-.27 3.42-2.98 6.99-6s7.43-6.39 8.59-7.49c1.15-1.1 6.96-6.5 12.92-12 15.85-14.64 45.37-46.2 57.5-61.45 1.92-2.42 5.1-6.23 7.07-8.48 3.83-4.37 11.17-13.74 17.1-21.82 2.02-2.75 4.94-6.6 6.5-8.53 7.7-9.62 41.33-59.93 41.33-61.84 0-.67.38-1.36.83-1.55.46-.18 2.78-3.7 5.15-7.83s6.28-10.75 8.67-14.73c2.4-3.98 4.35-7.5 4.35-7.83 0-.32 1.8-3.66 3.98-7.41 3.92-6.7 21.02-40.44 21.02-41.46 0-.45 4.79-11.08 14.57-32.35 1.34-2.9 2.43-5.54 2.43-5.87s1.1-3.13 2.44-6.23c5.85-13.5 23.55-63.13 23.57-66.04 0-.87.63-2.79 1.4-4.26.77-1.48 1.7-4 2.05-5.63s1.97-7.1 3.6-12.19c3.35-10.54 3.53-12 1.44-12-.83 0-1.5.4-1.5.9 0 2.27-41.81 62.55-48 69.18a387 387 0 0 0-8 9.52c-12.26 14.91-22.71 26.26-40.46 43.9-26.87 26.7-49.95 46.33-73.54 62.54a117 117 0 0 0-7.79 5.68c-1.35 1.27-24.5 16.19-30.97 19.95a52 52 0 0 0-4.74 3.03c-1.85 1.56-28.9 15.1-38.37 19.2-5.16 2.23-10.33 4-11.5 3.92-1.17-.07-6.4 1.57-11.63 3.64-24.51 9.73-58.63 19.58-77.9 22.49-4.07.61-7.7 1.3-8.06 1.52-.36.23-6.03 1.09-12.6 1.91-45.82 5.74-86.01 4.53-127.44-3.83-28.95-5.84-33.71-7.03-51-12.67-17.36-5.67-22.8-7.64-29.96-10.83C722.52 800.57 710.91 796 709 796c-2.85 0-17.56-7.26-29.99-14.81a902 902 0 0 0-13.41-8.03c-4.49-2.55-38.79-25.46-41.45-27.69a100 100 0 0 1-3.68-3.22c-.73-.69-1.76-1.25-2.3-1.25-.55 0-1.14-.34-1.33-.76-.18-.42-3.93-3.69-8.33-7.25a407 407 0 0 1-8.5-7c-.27-.29-3.62-3.21-7.43-6.5-19.01-16.42-44.29-41.6-64.08-63.86-12.5-14.05-34.04-42.45-47.41-62.5-7.7-11.55-24.08-38.12-24.08-39.08 0-.5-.58-1.5-1.28-2.23s-3.22-5.07-5.6-9.65c-6.9-13.36-7.6-14.64-8.12-15.17-.68-.68-8.43-16.44-10.82-22a594 594 0 0 0-4.45-10c-16.23-35.54-31.48-76.77-40.76-110.24a399 399 0 0 0-4-13.76c-1.13-3.23-10.13-40.53-12.9-53.5-9.16-42.87-16.83-103.58-18.51-146.5-.76-19.51-1.61-30.02-2.43-29.94-.34.03-1.3.44-2.13.91"/><path fill="#030303" fill-rule="evenodd" d="M1360 397.33c0 23.45.1 24.58 2.53 31.57a90 90 0 0 1 3.54 14.92c.66 5.02.9 81.85.7 221.68-.32 231.74.07 214.43-5.18 226.72-1.3 3.03-1.59 7.88-1.59 26.25V941l66.5.15c36.58.08 67.06.2 67.75.25 1.83.15 2.35-28.29.53-28.8-.7-.2-6.23-.87-12.28-1.48-24.94-2.53-38.6-8.79-43.56-19.97-5.45-12.27-5.3-9.49-5.68-107.81l-.35-91.17 36.8-.42c35.02-.4 37.35-.55 48.46-3a324 324 0 0 0 20-5.12c8.79-2.69 29.91-13.02 35.83-17.54a142 142 0 0 1 7.5-5.25c7.8-5.03 34.5-33.98 34.5-37.4 0-.43.63-1.5 1.4-2.36 2.87-3.24 11.67-20.98 15.42-31.1 12.9-34.8 15.58-74.25 7.68-113.52-4.75-23.63-16.13-46.06-31.39-61.83-16-16.54-31.84-26.86-50.61-32.94-25.88-8.4-30.03-8.69-121.05-8.69H1360zm93.5 9.25c-2.2.22-7.71.67-12.25 1l-8.25.6V657h20.25c35.9-.02 51.54-3.27 68.75-14.28 27.23-17.41 43.83-54.95 45.64-103.22 1.24-33.13-3.84-63.45-14.25-85-6.3-13.04-7.7-15.23-14.85-23.13-10.65-11.77-22.34-18.95-37.29-22.92-5.64-1.5-38.5-2.78-47.75-1.87m657.98 98.4c-19.86 2.93-47.72 15.97-63.98 29.94-7.2 6.2-20.45 20.1-24.84 26.08a389 389 0 0 1-5.99 8c-4.34 5.37-14.45 24.23-21.44 40-4.41 9.96-12.85 38.89-15.6 53.5-7.58 40.18-7.37 102.3.47 139.5 6.82 32.35 14.94 53.57 29.68 77.5 17.65 28.67 38.56 48.33 65.05 61.15 11.97 5.79 25.2 9.1 42.27 10.56 11.9 1.02 15.22.94 26.5-.62 22.24-3.1 39.01-10 54.4-22.42 19.23-15.5 34.72-37.14 47-65.67 3.12-7.25 10-27.53 10-29.48 0-1.02-2.87-3.3-7.44-5.92-11.15-6.38-10.6-6.5-13.94 3.1-6.85 19.75-21.93 47.32-31.35 57.3-17.7 18.8-37.15 27.5-61.38 27.5-28.26 0-49.97-11.42-69.35-36.5-19.78-25.58-34.14-66.62-39.22-112-2.1-18.73-2.39-65.4-.53-83.5 3.81-37.15 11.93-69.85 23.13-93.2 7.39-15.42 21.2-34.23 30.36-41.36 2.07-1.62 4.37-3.47 5.1-4.12s4.6-2.84 8.6-4.88c20.83-10.61 47.07-10.04 65.52 1.44 6.19 3.85 18.6 16.82 23.95 25.02 12.25 18.81 24.12 52.14 31.55 88.6 1.12 5.5 2.25 10.67 2.5 11.5.39 1.22 2.31 1.46 10.24 1.3l9.76-.2-.37-21.3c-.21-11.72-.89-46.05-1.5-76.3l-1.13-55-9.75-.29c-6.62-.2-9.75.07-9.75.82 0 .6-2.1 5.3-4.66 10.43l-4.66 9.32-2.09-1.98c-3.76-3.54-17.16-12.66-23.7-16.11-8.78-4.64-22.63-9.25-33.39-11.12-9.35-1.62-30.8-1.94-40.02-.58m463.79.07c-14.11 1.84-31.23 7.65-44.65 15.15-4.89 2.72-9.39 5.37-10 5.87l-9.12 7.29c-18.1 14.43-34.46 35.2-46.93 59.59-13.77 26.92-22.93 59.77-27.06 97.04-3.08 27.84-1.8 69.1 3.07 99.5 2.76 17.23 10.22 44.42 15.36 56 13.19 29.7 23.9 46.22 41.56 64.06 13.8 13.95 24.61 21.9 39.96 29.43 20.54 10.06 38.28 13.74 61.04 12.67 16.88-.8 23.72-1.98 36.5-6.3 37.52-12.67 69.27-43.63 90.9-88.63 11.61-24.18 18-46.37 23.68-82.23 2.53-15.98 3.09-62.16 1-81.5-6.18-56.99-24.7-104.85-54.12-139.91-18.67-22.26-44.63-38.88-70.96-45.45-13.47-3.36-35.53-4.49-50.23-2.58M1798 509.22c0 .71-1.37 5.56-3.04 10.78-1.67 5.23-5.03 16.25-7.48 24.5a8326 8326 0 0 1-18 60c-3.67 12.1-7.49 24.92-8.48 28.5s-4.12 14.15-6.95 23.5-7.2 23.75-9.68 32l-8.9 29.5c-2.4 7.98-8.45 28.23-13.45 45s-10.39 34.55-11.97 39.5a918 918 0 0 0-6.06 20c-7.32 25.26-17.45 56.48-20.51 63.17-8.93 19.53-18.97 27.97-38.98 32.78l-5 1.2V941l58.5.04c32.17.01 58.95.02 59.5 0 .62-.02.88-4.13.69-10.92l-.31-10.9-5.69-.69c-14.76-1.79-29.56-7.46-33.56-12.85-5.34-7.2-5.66-11.76-2.04-28.91 2.32-11 4.97-20.96 14.43-54.26 1.57-5.5 3.89-13.83 5.16-18.5l2.32-8.5h112.87l4.83 17c6.14 21.6 11.07 38.18 15.3 51.5a518 518 0 0 1 6.39 22.22c2.85 11 2.95 12 1.64 16.34-1.7 5.66-3.76 8.04-9 10.42-4.58 2.07-21.97 6.02-26.51 6.02H1841v22l64.25.08c35.34.05 65.38.21 66.75.37 1.38.15 2.95.1 3.5-.1.6-.22.93-4.7.83-11.11l-.17-10.74-2.83-.3c-4.2-.44-15.32-4.22-19.43-6.61-10.15-5.89-14.87-12.43-23.89-33.09-1.1-2.54-9.47-29.6-15-48.5a2140 2140 0 0 0-8.55-28.5c-2.37-7.7-5.96-19.62-7.97-26.5l-6.48-22c-1.56-5.23-6.74-22.77-11.52-39-7.86-26.7-12.78-43.28-20.15-68-1.4-4.67-3.42-11.65-4.5-15.5a816 816 0 0 0-4.86-16.5 7867 7867 0 0 1-18.98-64c-2.18-7.42-5.9-20.02-8.28-28l-4.32-14.5-10.7-.28c-8.21-.22-10.7.01-10.7 1m470.65 5.47c-.36.35-.65 5.46-.65 11.35v10.7l6.1.7c7.71.86 22.18 5.03 27.1 7.8 4.59 2.57 8.06 7.63 10.78 15.69 2.03 6.04 2.04 7.08 1.78 171.32l-.26 165.25-2.33 4.5c-1.29 2.48-3.36 5.47-4.62 6.66-4.6 4.37-18.41 8.75-31.37 9.96l-7.24.67.28 10.87.28 10.86 71.5.02 71.5.01v-21.54l-6-.73c-15.9-1.93-28.4-6.84-33.74-13.24-1.5-1.81-3.5-6.16-4.43-9.66-1.55-5.86-1.69-19.62-1.76-167.88-.07-155.02 0-161.75 1.8-167.71 2.03-6.74 6.95-13.37 11.76-15.86 4.46-2.3 14.5-5.12 22.87-6.42 4.13-.64 8.18-1.34 9-1.57 1.26-.34 1.42-2.17 1-11.18l-.5-10.76-71.1-.23c-39.1-.13-71.4.06-71.75.42m506.78.64c-.28.72-.38 5.76-.22 11.2l.29 9.9 4 .85c11.92 2.55 23.89 5.92 26.28 7.4 7.61 4.73 11.59 11.33 13.23 22 1.67 10.82.82 327.53-.89 332.95-3.46 10.98-14.75 17.2-34.37 18.95l-7.75.7v22.22l127.25-.25 127.84-.25c.32 0 1.13-9.11 1.8-20.25a3973 3973 0 0 1 3.65-52.25c1.35-17.6 2.68-35.15 2.96-39 .29-3.85.76-8.9 1.07-11.22.64-4.93.26-5.12-10.94-5.53l-6.87-.25-4.72 13.5c-8.91 25.52-21.32 52.74-29.41 64.5-13.85 20.13-22.63 23.75-60.63 25-25.1.81-35.91-.24-43.22-4.21-6.28-3.41-11.2-10.2-12.73-17.55-.76-3.68-1-54.17-.82-169.24l.27-164 3.26-6.25c2.3-4.4 4.48-7 7.37-8.83 4.35-2.75 18.5-6.74 28.15-7.94l5.78-.72-.28-11.13-.28-11.13-69.78-.25c-56.96-.2-69.88 0-70.3 1.08m271.58 9.35c0 5.68-.02 10.66-.05 11.07s1.88 1.1 4.25 1.5c10.43 1.84 22.66 5.15 26.8 7.26 7.68 3.9 11.9 10.26 13.96 21.01.84 4.38 1.06 49.09.84 167.48-.34 180.44.22 167.3-7.38 175.08-4.46 4.57-15.07 8.25-29.42 10.22l-9.5 1.3v21.44h144l.28-10.87.28-10.88-7.16-.66c-9.94-.93-15.25-2.33-23.5-6.22-7.85-3.7-10.97-7.02-13.99-14.91-1.85-4.85-1.91-9.94-1.91-170.02V562.46l3.3-6.72c2.4-4.85 4.49-7.53 7.51-9.61 4.62-3.18 16.2-6.76 27.5-8.52l7.3-1.14.08-10.98.08-10.99-71.64-.07-71.63-.06zm-470.15 8.84c-29.85 6.72-53.55 33.43-67.88 76.52-11.27 33.86-16.4 71.04-16.33 118.46.11 96.57 23.98 163.54 66.64 187 9.77 5.36 17.68 7.54 29.77 8.2 19.61 1.05 35.83-4.26 51.55-16.9 23.1-18.59 36.83-46.97 46.83-96.8 14.73-73.42 6.18-173.12-19.17-223.48-9.18-18.22-23.39-35.14-36.76-43.75-11.17-7.2-20.57-9.94-35.5-10.38-8.67-.25-14.54.1-19.15 1.13m-785.17 80.2a1136 1136 0 0 1-7.2 24.78 3217 3217 0 0 0-18.09 61.5c-4.65 16.23-9.55 33.1-10.88 37.5a869 869 0 0 0-5.29 18.5l-2.87 10.5 47.48.26c26.12.14 47.61.13 47.77-.03s-1.68-6.58-4.08-14.26-6.25-20.5-8.54-28.47c-2.3-7.98-5.23-18.1-6.53-22.5s-5.56-19.02-9.48-32.5l-11.66-40c-2.48-8.52-4.98-17.3-5.55-19.5s-1.35-4.35-1.73-4.78-1.9 3.62-3.35 9"/><path fill="#6a6a6a" fill-rule="evenodd" d="M2268.74 1000.2c-11.87 5.77-12.74 6.4-12.74 9.03 0 2.82.03 2.84 4.91 2.19 8.23-1.1 8.5-.37 9.09 24.61.28 11.54.22 20.97-.13 20.97s-1.14-.63-1.78-1.39c-.63-.76-3.48-2.4-6.32-3.62-4.33-1.86-6.5-2.15-13.31-1.8-10.33.55-16.87 3.93-23.57 12.19-9.14 11.26-14.1 24-15.86 40.7-2.33 22.25 3.95 43.28 16.34 54.7 6.3 5.8 10.14 7.48 18.35 8.01 6.3.41 7.9.14 12.5-2.11a40 40 0 0 0 9.28-6.69l4-4.1 1 6.3c.86 5.44 1.31 6.36 3.27 6.63 2.26.32 26.1-11.07 27.37-13.07 1.75-2.77.15-4.25-4.61-4.25-4.09 0-5.1-.41-6.9-2.82-2.12-2.81-2.13-3.19-2.42-77.25l-.28-74.43h-2.73c-1.5 0-8.46 2.79-15.46 6.2m694.66-2.8c-2.99 2.99-3.4 4.03-3.4 8.55q0 9.45 6.13 12.61c8.7 4.5 17.5-6.93 13.34-17.33-3.17-7.93-10.28-9.62-16.07-3.83m-1449.8 5.35c-.8 2.61-5.34 16-10.07 29.75a9030 9030 0 0 0-11.99 35c-13.67 40.5-24.83 72.4-27.03 77.3-2.8 6.23-6.6 10.05-11.74 11.78-2.43.82-3.21 1.67-3.21 3.5v2.42l20.79.27 20.79.27-.32-2.75c-.28-2.4-.88-2.84-4.82-3.5-5.95-.98-9-4.4-9-10.1 0-2.4 2.28-11.07 5.3-20.2l5.3-15.99 25.02-.27 25.01-.26 5.3 16.51c6.3 19.62 6.62 23.74 2.11 27.77-1.9 1.7-4.21 2.75-6.06 2.75-2.64 0-2.98.34-2.98 3v3h51.13l-.31-2.71c-.25-2.12-.99-2.85-3.35-3.33-4.3-.88-5.9-1.94-9.35-6.3-3.68-4.64-4.58-6.96-17.67-45.66-11.89-35.12-33.7-98.96-35.46-103.75-.88-2.41-1.8-3.25-3.55-3.25-1.95 0-2.62.84-3.83 4.75m918.57 1.94c.27 2.28 1.03 2.87 5 3.88 6.27 1.59 10.86 4.56 15.13 9.76l3.52 4.3.72 56.44c.8 63.82.45 69.57-4.52 74.13a15.6 15.6 0 0 1-6.74 3.32c-5.87.98-6.29 1.24-6.29 3.97v2.55l22.75-.27 22.75-.27v-2.5c0-2.26-.48-2.55-5-3.04-6.59-.7-9.32-2.34-11.34-6.79-1.47-3.25-1.7-9.82-1.95-57.67l-.29-54 11.3 17.03c16.96 25.6 52.31 79.63 64.25 98.22 7.02 10.93 8.18 12.25 10.7 12.25h2.83l.08-71.75c.05-52 .4-72.74 1.25-75.33 2.3-7.05 5.46-9.52 13.17-10.32 2.55-.26 3.05-.78 3.32-3.47l.31-3.17-22.82.27-22.81.27-.3 2.6c-.29 2.45.01 2.65 4.87 3.22 6.36.75 9.13 2.48 11.29 7.03 1.49 3.13 1.63 8.66 1.4 53.63l-.26 50.13-9.5-14.56c-5.22-8.01-21.35-32.45-35.83-54.3-14.49-21.87-27.47-41.66-28.85-44l-2.51-4.25h-35.94zm-929.98 62.62c-5.61 16.64-10.2 30.57-10.2 30.97s9.4.72 20.9.72h20.9l-3.35-10.25c-6.07-18.62-17.1-50.73-17.58-51.21-.26-.27-5.07 13.13-10.67 29.77m117.3-17.68c-6.78 1.7-9.54 3.24-14.17 7.9-13.29 13.4-12.08 37.54 2.47 49.17 2.03 1.63 8.17 5.59 13.63 8.8 11.9 6.98 16.76 11.2 19.51 16.88 7.22 14.91-5.28 29.98-19.62 23.64-8.94-3.94-14.66-11.6-18.3-24.52-1.4-4.96-2.08-6-3.86-6-1.19 0-2.16.34-2.16.75V1146c0 15.93.23 19 1.45 19 .8 0 1.86-.73 2.36-1.62 1.04-1.87 5.23-1.56 14.16 1.03 8.35 2.43 19.43 2.09 25.53-.78 5.9-2.78 11.78-8.28 14.37-13.44 4.79-9.52 5.33-24.01 1.22-32.5-3.37-6.96-11.96-14.56-22.4-19.82-8.26-4.16-17.63-11.02-20.63-15.1-8.93-12.14 1.83-28.12 16.05-23.85 7.93 2.37 13.47 9.46 16.88 21.58 1.33 4.73 2.14 6.07 3.85 6.32 2.13.32 2.16.12 2.31-16 .16-17.28.16-19.93-.03-20.98-.2-1.13-4.53.36-6.7 2.3-2.02 1.83-2.2 1.83-7.94-.15-6.15-2.11-14.57-3.22-17.98-2.36m83.5.97c-18.53 4.97-30.3 25.19-31.67 54.4-1.25 26.78 9 50.13 25.59 58.22 6.1 2.98 17.1 3.6 23.89 1.34 10.48-3.48 20.17-16.33 24.2-32.1 2-7.83 2-7.9.06-9.84-1.95-1.95-1.99-1.9-5.45 5.7-4.03 8.84-8.35 13.65-14.39 16-5.42 2.13-8.53 2.12-14.55-.04-13.74-4.92-23.64-23.33-23.67-44.03l-.01-4.25h60.29l-.67-7.13c-2.68-28.9-20.43-44.47-43.62-38.26m79.33-.7c-8.02 2.05-13.66 7-18.38 16.12-2.84 5.5-3.9 19.54-1.92 25.6 2.08 6.4 6.9 12.82 12.34 16.45a75 75 0 0 1 5.63 3.99c.28.3 3.2 2.09 6.5 3.95 6.96 3.94 6.69 3.75 12.32 8.61 6.36 5.5 8.48 10.28 7.99 18.03-.64 9.97-5.66 14.92-14.9 14.67-10.6-.28-19.49-9.63-24.38-25.65-1.72-5.65-2.6-7.18-4.11-7.18-1.82 0-1.93 1.04-2.2 20.25-.21 16.8-.02 20.25 1.14 20.25.77 0 1.96-.67 2.64-1.5 1.69-2.03 5-1.89 13.91.62 14.5 4.06 26.35 1.62 35.23-7.26 5.85-5.85 8.14-11.68 8.66-22 .9-17.73-5.02-26.1-26.95-38.15-8.61-4.74-12.34-7.4-15.98-11.44-8.38-9.27-7.46-20.38 2.1-25.26 8.3-4.23 17.05-1.13 23.05 8.14 2.06 3.2 4.05 7.05 4.42 8.58 2.22 9.17 2.7 10.27 4.45 10.27 1.55 0 1.9-1.19 2.46-8.25.35-4.54.64-12.86.64-18.5l.01-10.25h-2.59c-1.42 0-3.34.92-4.25 2.04l-1.66 2.04-6-2.08c-6.88-2.38-15.56-3.28-20.17-2.1m90.36.3c-12.37 1.59-23.65 10.63-30.17 24.2-4.89 10.16-6.66 17.55-7.25 30.24-1.14 24.74 6.4 43.86 22.03 55.77 5.1 3.89 11.37 5.71 19.7 5.73 10.98.03 17.88-2.83 25.52-10.55 11.6-11.72 16.45-24.92 17.22-46.79.77-21.75-3.12-34.62-14.02-46.38-9.22-9.96-19.9-13.92-33.03-12.23m66.96 5.9c-13.43 6.81-13.82 7.1-13.16 9.71.37 1.48.75 2.78.85 2.87s2.1-.33 4.43-.95c3.89-1.04 4.45-.95 6.5 1.1 2.21 2.22 2.23 2.48 2.54 38.46.16 19.92.03 38.02-.3 40.22-.84 5.55-3.62 8.57-8.5 9.22-3.62.5-4.01.82-4.01 3.41v2.87h45v-3c0-2.55-.38-3-2.55-3-4.19 0-8.49-2.87-10.23-6.82-1.34-3.03-1.7-8.7-2.02-32.28l-.4-28.6 2.58-7.16c3.6-9.97 7.04-15.14 10.1-15.14.6 0 3.1 1.77 5.56 3.94 5.64 4.99 8.51 5.78 11.89 3.28 6.7-4.98 6.92-15.75.43-21.76-2.14-1.98-3.7-2.46-8.05-2.46-5.03 0-5.73.31-10.28 4.57a49 49 0 0 0-8.2 10.99l-3.33 6.42-.5-11.24c-.46-10.31-.66-11.26-2.5-11.46-1.1-.12-8.23 2.94-15.85 6.8m88.97-5.5c-6.47 2.07-11.24 5.19-16.22 10.6-5.85 6.35-8.9 12.04-11.96 22.32-2.36 7.93-2.7 10.78-2.76 24-.06 11.24.35 16.63 1.65 21.5 3.97 14.95 12.55 27.8 22.44 33.61 3.93 2.32 6.18 2.86 13.33 3.2 10.26.5 15.14-1.22 22.4-7.91 5.62-5.18 8.75-10.34 11.9-19.59 3.72-10.97 4.09-14.56 1.62-16.08-1.77-1.1-2.16-1.02-2.7.5-7.41 20.47-19.63 27.9-34.06 20.71-11.95-5.95-19.05-19.47-20.85-39.69l-.69-7.75H2073l-.02-4.75c-.04-11.53-4.72-24.64-11.46-32.1-7.8-8.63-21.54-12.22-32.9-8.58m76.38.38c-11.88 4.09-19.94 18.33-18.7 33.07 1.17 13.94 5.57 19.35 26.3 32.29 9.78 6.1 18.9 14.83 19.97 19.12.37 1.45.48 5.23.25 8.39-.5 6.95-3.76 11.25-9.93 13.1-5.15 1.54-9.24.69-14.89-3.11-7.4-4.97-11.76-12.12-14.98-24.56-.92-3.55-1.5-4.25-3.56-4.25H2087v20c0 18.96.1 20 1.9 20 1.03 0 2.16-.72 2.5-1.6.73-1.91 4.71-1.62 14.57 1.07 7.98 2.17 19.84 1.73 25.03-.93 6.5-3.33 11.53-8.24 14.51-14.18 2.53-5.04 3-7.23 3.31-15.65.34-8.92.14-10.27-2.22-15.09-3.78-7.74-9.17-12.63-22.77-20.68-18.28-10.82-23.83-16.8-23.83-25.7 0-4.87 3.2-9.85 7.98-12.39 11.27-5.98 24.03 3.72 28.14 21.4 1.14 4.92 1.66 5.75 3.6 5.75h2.28v-37h-2.5c-1.37 0-2.5.46-2.5 1.03 0 2.52-4.57 2.66-10.77.33-7.53-2.83-13.82-2.95-21.23-.4m234.44-1.08c-8.01 2.07-16.26 8.32-22.29 16.88-3.28 4.65-7.73 17.47-9.17 26.4-1.66 10.4-.79 30.27 1.74 39.4 5.75 20.78 19.83 33.46 37.12 33.43 12.5-.02 22.64-7.35 29.55-21.35 4.28-8.68 7.03-19.43 5.45-21.34-1.94-2.33-3.34-1.38-5.08 3.45-7.01 19.45-25.5 25.18-39.25 12.17-2.85-2.7-6.35-7.04-7.77-9.66-3.3-6.05-6.43-17.3-7.3-26.26l-.7-6.97 30.38-.26 30.38-.27.32-2.77c.52-4.57-2.64-17.82-5.8-24.29-3.6-7.36-9.39-13.47-15.64-16.5-5.04-2.44-16.37-3.5-21.94-2.06m273.44.44c-10.57 2.99-19.36 11.05-24.8 22.74-5.45 11.66-6.58 17.79-6.57 35.44 0 13.94.3 16.96 2.34 23.5 7.06 22.68 19.08 33.98 36.15 33.98 12.49 0 21.24-5.74 29.33-19.25 3.68-6.13 8.1-20.45 7.1-23.03-1.48-3.87-3.44-2.55-6.8 4.59-3.89 8.24-10.1 15.05-15.33 16.78-4.33 1.43-12.93.69-17.1-1.47-4.65-2.4-11.65-10.13-14.57-16.1-2.98-6.09-5.16-14.85-6.18-24.75l-.68-6.75h25.97c14.3 0 28.07-.29 30.62-.64 4.25-.58 4.64-.86 4.64-3.4 0-5.28-2.95-18.16-5.36-23.42-5.33-11.66-14.85-18.42-26.92-19.12-4.24-.24-9.13.13-11.84.9m87.12.04c-7.38 2.2-9.27 3.22-14.21 7.58-8.63 7.63-13.62 21.8-12.4 35.22.89 9.74 4.07 17.08 10.2 23.57l5.24 5.54-2.5 2.62c-4.91 5.12-10.1 12.67-11.3 16.42-2.14 6.66.11 13.88 5.46 17.55l3.39 2.32-6.4 8.4c-7.28 9.53-8.8 12.18-10.41 18.17-4.8 17.82 23.48 32.66 51.06 26.81 25.25-5.35 41.84-29.48 35.33-51.4-2-6.7-6.14-11.34-12.7-14.19-4.54-1.97-7.79-2.39-23.76-3.07-18.88-.81-23.86-1.61-26.5-4.26-2.1-2.1-1.86-6.54.58-10.54 3.5-5.73 4.12-6.07 9.03-4.94 6.57 1.52 19.57.56 24.89-1.83 6.23-2.8 12.73-9.47 15.63-16.03 4.82-10.89 5.21-26.9.88-35.58a28 28 0 0 1-1.51-3.33c0-.17 3.49-.44 7.75-.6l7.75-.29v-11l-12.39-.28c-10.15-.23-12.86-.62-15-2.14-7.17-5.09-19.8-7.21-28.11-4.72m101.13-.28c-13.47 2.64-25 13.4-30.76 28.66-8.78 23.26-6.49 52.15 5.5 69.58 4.51 6.55 12.82 13.41 19.13 15.8 7.13 2.69 20.17 2.3 27-.8 17.68-8.03 28.68-30.93 28.26-58.82-.44-29.43-14.25-50.49-35.7-54.41-6.64-1.22-7.28-1.22-13.43-.01m95.25-.13c-24.6 5.87-40.08 42.53-32.28 76.43 4.05 17.6 13.15 31.58 24.13 37.05 6.33 3.15 15.74 3.49 23.16.83 10.38-3.72 19.83-15.47 23.55-29.28 3.97-14.68 1.12-19.76-4.08-7.29-5.61 13.44-14.45 20.32-24.36 18.96-11.97-1.63-19.67-10.15-24.22-26.77-2.58-9.42-2.51-35.25.11-42.88 3.9-11.32 11.2-18 19.68-18 8.5 0 12.35 4.9 13.25 16.82.67 8.87 5.47 13.2 13.08 11.77 13.02-2.45 7.68-26.29-7.67-34.23-7.31-3.78-17.06-5.15-24.35-3.41m76.12.36c-1.65.65-7.86 3.66-13.8 6.69-9.73 4.96-10.76 5.74-10.5 8 .27 2.27.73 2.5 5 2.5 8.82 0 9.06 1.38 8.62 48.5-.37 39.35-.3 39.07-8.4 41.23-3.9 1.05-6.22 3.64-4.64 5.21.72.73 42.72.73 43.44 0 1.6-1.59-.74-4.16-4.75-5.24-8.17-2.18-7.93-.47-8.25-57.95-.32-55.73.23-51.7-6.72-48.94m64.5 0c-7.77 2.25-12.32 4.93-18.03 10.65-6.07 6.07-11.73 16.47-14.45 26.54-2.22 8.2-3.05 25.53-1.64 34.07 3.53 21.22 16.5 39.76 30.44 43.52 6.61 1.78 17.73 1.24 24.19-1.18 12.4-4.64 24.3-21.32 27.92-39.12 2.32-11.4 2.1-30.43-.46-39.66-4.4-15.84-12.17-26.06-24.47-32.12-7.2-3.55-16.73-4.64-23.5-2.7m87-.43q-11.74 2.52-18.07 14.4c-2.86 5.35-3.39 7.44-3.75 14.92-.86 17.78 3.66 23.8 29.46 39.15 15.47 9.22 20.52 20.07 14.88 31.96-2.31 4.88-9 8.19-14.68 7.28-10.07-1.61-17.57-9.2-21.83-22.09-3.7-11.23-3.77-11.36-5.7-11.08-1.67.25-1.83 1.86-2.08 20.42-.22 16.73-.03 20.16 1.13 20.16.77 0 1.95-.67 2.64-1.5 1.73-2.08 6.62-1.87 13.6.57 8.69 3.05 22.17 2.43 28.56-1.32 5.87-3.44 10.49-8.74 13.67-15.69 3.53-7.7 3.57-21.13.09-28.56-3.05-6.5-10.32-13.53-18.7-18.1-11.39-6.17-21.7-13.43-24.1-16.94-6.13-8.94-3.96-20.41 4.52-23.95 8.31-3.48 16.79-.17 23.03 8.99 2.13 3.12 6.33 14.4 6.33 17 0 .94.95 1.5 2.52 1.5h2.52l-.27-18.75c-.26-18.12-.34-18.74-2.27-18.41-1.1.18-2.98 1.24-4.17 2.35l-2.17 2.01-5.6-2.1c-6.43-2.4-14.49-3.32-19.56-2.22m-422 8.92c-6.62 3.6-9.59 10.1-10.66 23.38-1.39 17.05 5.2 33.06 15.11 36.81 7.76 2.93 16.04-2.95 18.37-13.04 1.6-6.95 1.47-24.28-.25-30.71-1.74-6.55-5.7-13.44-8.96-15.58-4.09-2.68-9.63-3.03-13.61-.86m-1000.5 2.04a24 24 0 0 0-6.2 4.28c-3.25 3.55-7.12 12.77-7.48 17.88l-.32 4.5 18.77.27c15.72.23 18.87.04 19.34-1.19.74-1.93-1.35-11.82-3.63-17.12-3.65-8.51-12.7-12.32-20.48-8.62m166.2.26c-4.37 2.3-9.02 9.02-11.35 16.4-2.48 7.86-2.97 31.01-.91 43.11 2.47 14.54 8.74 27.53 15.65 32.46 5.56 3.95 14.26 3.39 19.95-1.3 6.02-4.97 9.78-16.71 10.65-33.29.94-17.86-3.18-37.47-10.24-48.74-6.23-9.92-15.17-13.17-23.76-8.64m159.68-.62c-6.74 3.07-13.03 14.12-13.67 24.02l-.2 3 18.77.27c21.67.32 20.84.72 18.82-9.18-3.02-14.85-13.44-22.8-23.72-18.1m215.04.98c-7.67 4.6-12.48 15.12-14.6 31.91-1.43 11.33-.1 25.46 3.33 35.62 7.31 21.57 22.36 28.77 34.6 16.53l4.26-4.27v-30.6c0-28.63-.13-30.94-2.1-36.2-5.04-13.46-15.67-18.88-25.5-12.99m93.98-.61a21 21 0 0 0-6.66 5.28c-3.38 4.45-6.72 13.44-6.72 18.11v3.75h19.03c21.76 0 20.93.38 19.1-8.75-3.26-16.19-13.37-23.7-24.75-18.4m274.12.24c-2.2 1.1-5.46 3.98-7.25 6.41-3.12 4.23-6.25 13.37-6.25 18.21v2.29h39v-3.18c0-4.95-2.86-13.92-5.82-18.21-5-7.28-12.13-9.28-19.68-5.52m186.93.02c-4.6 2.36-8.43 7.97-10.99 16.1-2.55 8.12-3.1 31-1 42.16 5.27 28.02 18.26 41.93 32.41 34.7 7.2-3.67 11.17-11.84 13.16-27.14 3.66-28.03-5.17-59.47-18.52-65.93-5.26-2.55-9.93-2.52-15.05.11m237.09.17c-8.8 4.99-12.53 14.9-13.25 35.22-1.19 33.53 9.87 59.5 25.32 59.5 15.26 0 23.42-16.94 22.1-45.88-1.45-31.93-11.37-51.17-26.35-51.1-2.12 0-5.63 1.02-7.82 2.26m-348.98 109.94c-4.61 9.33-5.22 13.24-2.76 17.78 4.31 7.96 18.23 12.7 34.62 11.78 10.2-.57 17.1-3.45 22.64-9.45 8.87-9.62 9.15-17.6.79-22.3-4.22-2.37-11.86-3.26-38.52-4.49l-13.18-.6z"/></svg>