<svg xmlns="http://www.w3.org/2000/svg" aria-label="Ramírez Medellín, Contadores Públicos y Abogados" viewBox="0 0 3586 1135"><path fill="#9d9c9d" fill-rule="evenodd" d="M1244 11.5c0 11.26.05 11.5 2.25 11.51 1.24.01 3.26.29 4.5.62 2.24.6 2.25.56 2.25-11.51V0h-9zM976.35 45.27c1.24 4.94 3.66 28.13 4.62 44.23 4.05 68.14-4.65 138.08-25.44 204.5-10.33 32.99-26.65 71.22-42.06 98.5-3.73 6.6-7.77 13.8-8.97 16-5.26 9.6-25.41 39.23-34.8 51.2-19.4 24.72-50.4 57.8-69.7 74.42-20.07 17.27-45.49 35.92-66.93 49.12-16.1 9.91-55.84 29.86-72.3 36.29-7 2.73-12.74 5.25-12.75 5.6s1.44 1.18 3.23 1.85l5.25 1.97c1.1.42 6.73 2.22 12.5 4a500 500 0 0 1 15.5 5.03 172 172 0 0 0 25 6.56c4.4.84 8.9 1.93 10 2.42 2.1.93 16.18 3.45 40.5 7.23 13.4 2.09 17.8 2.26 58 2.26 41 0 43.99-.12 52-2.12 4.67-1.17 10.84-2.18 13.7-2.25 2.87-.06 10.52-1.24 17-2.62a1091 1091 0 0 1 17.3-3.55c5.8-1.1 21.43-5.28 26.5-7.1 1.65-.59 5.7-1.84 9-2.78 6.56-1.87 9.32-2.81 11.28-3.85 2.63-1.39 26.13-55.27 34.67-79.48 19.44-55.14 32.27-112.35 37.04-165.2 5.05-55.96 3.72-102.9-4.56-160.92-8.3-58.14-25.1-117.78-46.95-166.58a430 430 0 0 1-6.16-14.25c-1.22-3.3-3.28-3.7-2.47-.48m266.87 374.48.28 12.75 4.75.3 4.75.31V407h-10.06zm-32.26 29.8c-.95 1.15-.99 1.82-.13 2.68 1.33 1.33 1.68 1.06 2.61-1.98.8-2.58-.59-2.98-2.48-.7m15.26 23.7.28 12.25 6.06.75c3.33.4 9.3 1.56 13.25 2.57l7.19 1.83V461h-27.06zm-1113.5 99.04c-4.82 9.32-8.3 15.93-26.43 50.21A5062 5062 0 0 1 58.8 674c-1.94 3.58-5.57 10.33-8.06 15s-10.26 19.08-17.26 32-15.45 28.67-18.77 35a1011 1011 0 0 1-9.68 18c-2 3.58-3.92 7.26-4.28 8.2-1.1 2.89 35.99 38.88 61.75 59.9 24.7 20.18 55.74 41.32 84.63 57.66 62.6 35.41 128.7 58.04 200.87 68.77 43.33 6.45 104.9 7.24 149 1.9a574 574 0 0 0 166-45.74c19.06-8.5 43.33-21.03 58.93-30.42 12.5-7.52 37.11-23.2 38.07-24.25.27-.3 2.86-2.32 5.75-4.49a74 74 0 0 0 5.25-4.14c0-.1-2.1.44-4.66 1.2a37 37 0 0 1-8.94 1.41c-2.36 0-4.52.39-4.81.86s-3.36 1.39-6.81 2.04l-11.28 2.13c-2.75.52-9.5 1.4-15 1.97-5.5.56-13.6 1.46-18 2-10.12 1.22-45.7 3.21-59.5 3.33-12.87.11-55.93-1.93-58-2.75-.83-.33-6.23-1.01-12-1.52-14.35-1.27-23.7-2.71-35.5-5.48-5.5-1.3-14.27-3.1-19.5-4-9.24-1.6-17.19-3.64-29.5-7.54a85 85 0 0 0-10.5-2.58c-2.48-.38-4.95-1-5.5-1.4-1.28-.92-9.16-3.68-12.84-4.5-1.57-.36-5.14-1.75-7.94-3.1s-5.8-2.46-6.67-2.46-3.26-.9-5.31-2-4.5-2-5.42-2c-.93 0-3.52-.84-5.75-1.86-2.24-1.03-8.8-4-14.57-6.62a648 648 0 0 1-12.24-5.64 8 8 0 0 0-3-.89c-.7 0-2.61-.74-4.26-1.65a1505 1505 0 0 0-18-9.33c-21.44-11-34.54-18.66-53.04-31.01a240 240 0 0 0-7.93-4.87c-3.12-1.85-5.91-3.97-6.2-4.7-.28-.75-1.44-1.65-2.56-2-3.15-1-17.77-12.5-17.77-13.97 0-.72-1.29-1.58-2.86-1.93s-4.16-2-5.75-3.67a27 27 0 0 0-5.47-4.39c-2.36-1.23-5.49-3.64-14.66-11.27-1.77-1.49-3.5-3.49-3.81-4.45s-1.21-1.75-1.99-1.75c-.77 0-3.77-2.3-6.68-5.13-2.9-2.82-7.3-6.76-9.75-8.75-6.2-5.02-30.16-29.64-41.03-42.16a119 119 0 0 0-6.84-7.32c-1.28-1.18-5.28-5.85-8.88-10.39s-6.83-8.25-7.18-8.25c-.51 0-8.84-11.77-12.62-17.85-.57-.9-2.14-2.94-3.5-4.5-7.45-8.6-8.77-10.34-9.38-12.3-.37-1.2-1.33-2.42-2.14-2.73-.8-.3-1.46-1.02-1.46-1.58s-1.57-3.09-3.5-5.6c-1.93-2.53-3.5-5-3.5-5.5s-2.03-3.88-4.5-7.5c-2.47-3.6-4.5-7.28-4.5-8.15s-.97-2.53-2.15-3.68-3.55-4.45-5.27-7.32l-3.11-5.21zM1249 864.99c-1.37.45-6.89 1.61-12.25 2.58l-9.75 1.74V894h26v-15c0-8.25-.34-14.96-.75-14.92s-1.87.45-3.25.9m-2.24 105.32c-6.85 6.94-12.48 16.3-16.34 27.2-2.51 7.08-2.88 9.67-3.2 22.5-.45 17.56 1 25.68 6.69 37.42 3.74 7.74 15.73 22.58 18.24 22.58.58 0 .8-5.37.57-13.75-.3-11.01-.84-15.14-2.71-20.75-2.04-6.13-2.34-9-2.38-23-.05-14.44.21-16.98 2.7-26.03 2.36-8.63 2.7-11.58 2.46-21l-.29-10.97z"/><path fill="#07376d" fill-rule="evenodd" d="M296 139.05c-28.06 7.59-37.53 10.16-40.75 11.05-5.37 1.49-9.2 2.53-21.25 5.79-13.93 3.76-25.36 6.87-55.5 15.08-41.14 11.2-53.1 14.47-84.5 23.09-10.17 2.8-24.35 6.64-31.5 8.56-7.15 1.91-13.9 3.84-15 4.28s-5.6 1.68-10 2.75l-8 1.94.14 26.96c.34 66.12 12.57 139.33 33.4 199.95 13.63 39.67 32.1 81.86 48.66 111.15 3.46 6.13 6.3 11.84 6.3 12.68 0 2.16 6.85 13.4 8.57 14.06.79.3 1.43 1.43 1.43 2.51 0 1.09 2.03 4.93 4.5 8.55 2.47 3.61 4.5 6.98 4.5 7.48s1.49 2.86 3.3 5.24 3.6 5.12 3.97 6.08 1.1 1.75 1.63 1.75 1.28 1.01 1.66 2.25c.64 2.05 1.95 3.77 9.42 12.4a48 48 0 0 1 3.5 4.5c3.78 6.08 12.1 17.85 12.63 17.85.34 0 3.57 3.71 7.17 8.25s7.6 9.21 8.88 10.39 4.37 4.47 6.84 7.32c10.87 12.52 34.83 37.14 41.03 42.16 2.46 2 6.85 5.93 9.75 8.75s5.91 5.13 6.68 5.13c.78 0 1.67.79 1.99 1.75s2.04 2.96 3.81 4.45c9.17 7.63 12.3 10.04 14.66 11.27a26 26 0 0 1 5.47 4.4c1.59 1.66 4.18 3.31 5.75 3.66s2.86 1.22 2.86 1.93c0 1.47 14.62 12.97 17.76 13.97 1.13.35 2.29 1.25 2.57 2 .29.73 3.07 2.85 6.2 4.7a240 240 0 0 1 7.93 4.87c18.5 12.35 31.6 20 53.04 31a1505 1505 0 0 1 18 9.34c1.65.9 3.57 1.65 4.26 1.65.7 0 2.05.4 3 .9.96.48 6.47 3.02 12.24 5.63l14.57 6.62c2.23 1.02 4.82 1.86 5.75 1.86s3.37.9 5.42 2 4.44 2 5.3 2c.88 0 3.88 1.1 6.68 2.46s6.37 2.74 7.94 3.1c3.68.82 11.56 3.58 12.84 4.5.55.4 3.02 1.02 5.5 1.4s7.2 1.53 10.5 2.58c12.31 3.9 20.26 5.94 29.5 7.54 5.23.9 14 2.7 19.5 4 11.8 2.77 21.15 4.21 35.5 5.48 5.77.5 11.17 1.2 12 1.52 2.07.82 45.13 2.86 58 2.75 13.8-.12 49.38-2.12 59.5-3.34 4.4-.53 12.5-1.43 18-1.99s12.25-1.45 15-1.97l11.28-2.13c3.45-.65 6.52-1.57 6.8-2.04.3-.47 2.65-.87 5.23-.9 2.58-.01 7.17-.92 10.19-2.01 8.06-2.92 17-5.68 21-6.48 3.72-.75 34.76-10.27 41.5-12.73 16.5-6.02 23.5-8.7 25.12-9.62a161 161 0 0 1 10.44-4.5c18.85-7.6 68.82-33.18 69.77-35.73.19-.49.83-.89 1.43-.89 4.3 0 59.46-38.41 78.09-54.38 2.83-2.43 7.17-6.1 9.65-8.13 21.66-17.88 55.76-52.83 76.09-77.99 4-4.95 7.52-9.23 7.84-9.5 1.03-.9 12.65-16.4 16.1-21.48a129 129 0 0 1 4.64-6.5c3.3-3.97 25.01-36.75 28.5-43.02l10.03-18c7.79-13.98 16.15-30.19 19.62-38l4.67-10.5c3.72-8.34 14.88-36.69 17.44-44.3 2-5.93 2.04-8.2.13-8.2-.45 0-2.78 2.59-5.18 5.75-22.8 30.02-50.92 59.53-80.38 84.37-25.39 21.4-57.68 43.66-84 57.92-28.38 15.36-67.98 32.6-75.24 32.76-1.78.04-3.8.43-4.5.86-.7.44-3.96 1.54-7.26 2.44s-7.35 2.12-9 2.71c-5.07 1.82-20.7 6-26.5 7.1-3.02.58-10.8 2.17-17.3 3.55-6.48 1.38-14.13 2.56-17 2.63s-9.03 1.07-13.7 2.24c-8.01 2-11 2.12-52 2.12-40.2 0-44.6-.17-58-2.26-24.32-3.78-38.4-6.3-40.5-7.23-1.1-.49-5.6-1.58-10-2.42a172 172 0 0 1-25-6.56 500 500 0 0 0-15.5-5.03c-12.18-3.76-13.24-4.13-18.23-6.29-2.05-.88-4.35-1.38-5.1-1.09-1.52.59-18.8-6.29-34.43-13.7-18.74-8.87-51.88-28.18-67.37-39.22-3.2-2.28-8.37-5.95-11.49-8.15s-6.17-4.45-6.78-5c-.6-.55-2.75-2.23-4.76-3.74a79 79 0 0 1-5-4c-.74-.7-3.4-2.84-5.93-4.76-13.16-10.05-39.43-34.94-54.7-51.84a735 735 0 0 1-28.82-34.73c-9.63-12.68-9.66-12.73-17.42-24.43-3.82-5.77-7.4-11.18-7.96-12-4.79-7.1-15.77-25.55-18.77-31.5-2.2-4.38-11.24-21.8-12.96-25-4.25-7.89-17.16-39.4-23.77-58-17.45-49.15-28.79-107.04-31.34-159.99-.54-11.33-.96-14.02-2.17-14.19-.82-.1-8.02 1.57-16 3.73"/><path fill="#5e5e5f" fill-rule="evenodd" d="M1253 11.8v11.87l10.03 2.7c22.3 5.97 29.04 11.4 31.8 25.63.74 3.74 1.16 57.47 1.34 167.5l.25 162-2.26 5c-1.25 2.75-3.48 6.28-4.96 7.84-5.19 5.47-16.36 9.75-29.78 11.43l-5.92.74-.28 13.22-.28 13.23 80.04-.01c44.02-.01 80.71-.28 81.53-.6 1.2-.46 1.49-2.9 1.49-12.96V407h-4.25c-11.76-.02-31.54-4.54-38.75-8.86-4.23-2.54-9.09-7.47-11-11.17-3.69-7.16-4-13.56-4-82.67v-67.34l21.2.27 21.2.27 4.14 5.5c12.23 16.23 66.7 97.25 84.38 125.5 3.44 5.5 10.7 16.98 16.13 25.5s10.94 17.3 12.26 19.5c7.12 11.91 11.1 18.08 12.08 18.72 1.34.87 177.16 1.02 180.36.15 2.12-.57 2.25-1.12 2.25-9.39v-8.78l-6.25-.66c-10.14-1.06-21.98-3.63-25.87-5.6-4.5-2.3-8.5-6.94-9.37-10.89-1.53-6.98 3.07-25.02 14.56-57.05a414 414 0 0 0 5.67-16.76l1.54-5.26 51.08.26 51.08.26 3.24 9c1.78 4.95 5.78 15.98 8.89 24.5 11.08 30.37 16.43 46.15 16.43 48.5 0 1.32-1.01 3.5-2.25 4.85-3.34 3.65-10.3 5.49-31 8.16l-4.75.61v8.83c0 6.9.33 8.96 1.49 9.4 2.02.78 230.88.83 232.9.05 1.32-.5 1.61-2.28 1.61-9.86v-9.25l-6.87-1.13c-9.08-1.5-19.5-5.11-25.41-8.8-8.98-5.62-13.03-12.87-17.81-31.86-.96-3.83-1.33-30.62-1.55-114.5-.3-119.13-.66-112.38 5-96.5 1.38 3.85 5.94 17.13 10.15 29.5a3737 3737 0 0 0 22.03 63.5c2.38 6.6 7.56 21.23 11.5 32.5s9.65 27.48 12.68 36c8.41 23.69 14.96 42.23 19.78 56 2.4 6.88 6.22 17.68 8.49 24a684 684 0 0 1 6.1 17.75l1.99 6.25h15.46l1.64-5.25c1.85-5.93 19.06-53.38 21.3-58.75 1.47-3.5 18.85-49.9 31.1-83 3.56-9.62 6.95-18.62 7.54-20 .6-1.37 6-15.78 12-32s12.68-34.22 14.83-40a300 300 0 0 0 4.6-13c.37-1.37 1.7-4.75 2.92-7.5 1.23-2.75 3.01-7.36 3.96-10.25s1.86-5.25 2.02-5.25c.63 0-.35 241.11-.99 243.23-1.63 5.42-3.86 8.77-7.38 11.1-5.38 3.56-16.07 6.48-27.08 7.39l-9.5.78-.29 9.2-.28 9.2 3.28.58c1.81.33 32.09.46 67.29.3l64-.28v-19l-8-.77c-18.12-1.75-28.53-8.05-32.24-19.5-2.17-6.69-2.5-40.11-1.53-153.23l.8-93.5 2.23-4.2c4.17-7.86 13.35-12.49 28.99-14.62l8.25-1.12v-18.58l-49.72.26-49.73.26-2.64 10c-3.05 11.53-6.11 20.42-22.88 66.5a6507 6507 0 0 0-16.05 44.5c-2.13 6.05-5.2 14.6-6.84 19s-8.93 24.2-16.2 44a4755 4755 0 0 1-18.7 50.46c-.88 2.3-1.06 2.09-2.73-3a3707 3707 0 0 0-15.77-43.96 6017 6017 0 0 1-17.28-48c-1.8-5.22-5.08-14.45-7.27-20.5a7917 7917 0 0 1-16.74-46.5c-4.9-13.82-9.92-27.72-22.78-63l-3.46-9.5h-105.5l-.06 8.43-.06 8.43 7.96 1.73c18.82 4.07 28.77 10.55 33.67 21.9 4.95 11.46 5.02 12.8 5.5 104.83.54 107.4-.35 124.96-7.14 139.78-3.43 7.49-10.36 12.15-24.43 16.42-8.89 2.7-13.66 2.27-22.29-2-12.07-6-16.9-11.59-23.51-27.22-5.03-11.88-14.46-36.71-25.75-67.8-3.1-8.52-6.5-17.75-7.56-20.5a3058 3058 0 0 1-11.1-30 9903 9903 0 0 0-11.6-31.5c-1.33-3.57-4.46-12.12-6.94-19a7191 7191 0 0 0-18.89-51.5c-1.84-4.95-6.78-18.45-10.97-30s-8.17-22.06-8.84-23.36c-1.13-2.22-1.71-2.35-10.45-2.29-5.09.04-9.7.08-10.25.1s-1 .61-1 1.3c0 1.19-2.45 8.13-24.02 67.75a8117 8117 0 0 0-13.48 37.5c-2.33 6.6-10.32 28.65-17.75 49a4139 4139 0 0 0-15.69 43.5c-1.2 3.57-2.6 7.4-3.1 8.5s-3.16 8.19-5.93 15.75c-11.85 32.4-15.36 41.6-18.11 47.57a89 89 0 0 0-2.92 6.71c0 .22-2.08 3.82-4.62 8-5.1 8.4-12.91 15.47-17.1 15.47-4.78 0-20.7-6.23-27.7-10.84-10-6.6-18.4-14.83-29.74-29.14a1288 1288 0 0 1-10.63-13.53c-1.5-2.13-9.24-13.44-16.06-23.49l-8.16-12a2015 2015 0 0 0-27.47-40.5c-2.66-3.85-8.22-11.95-12.36-18a1610 1610 0 0 0-16.46-23.5c-4.92-6.87-9.12-12.95-9.33-13.5-.2-.55 4.6-2.74 10.7-4.87 34.55-12.05 57.95-30.63 71.42-56.72 8.74-16.93 11.92-31.03 11.9-52.91-.02-31.1-8.54-54.1-26.87-72.59-15.87-16-33.75-25.04-62.72-31.68C1458.69.64 1456.42.6 1355.75.26L1253-.08zm105 105.1V208h20.75c22.81 0 33.7-1.3 47.42-5.6 31.4-9.83 51.93-33.28 59.05-67.4 2.8-13.41 2.08-36.1-1.6-50.5-7.37-28.78-24.25-46.63-52.12-55.1-8.85-2.7-9.55-2.75-41.25-3.16L1358 25.8zm938 .46v9.37l5.15.69c8.96 1.18 22.08 4.65 26.95 7.12 5.6 2.84 8.49 6.24 10.03 11.83.82 2.97 1.17 37.85 1.26 124.62.1 114.13.01 120.78-1.71 125.72-2.14 6.13-5.59 9.35-12.99 12.12-5.11 1.92-16.16 3.82-25.69 4.43l-4.5.29-.3 8.88c-.2 6.38.08 9.11.99 9.68 1.45.9 118.53 1.1 129.49.23l7.17-.57.36-7.64c.45-9.57-.23-11.14-4.8-11.14-5.67 0-17.2-2.04-23.19-4.1-7.46-2.56-12.03-6.26-14.59-11.8l-2.13-4.6-.31-119c-.33-125.65-.3-126.46 4.25-133.5 3.69-5.7 13.74-9.65 31.45-12.34l7.61-1.16.5-8.84c.28-4.86.31-9.02.08-9.25-.23-.22-30.71-.41-67.75-.41H2296zm160-.1v9.46l4.74.65c7.68 1.05 17.36 3.65 23.26 6.25 6.68 2.94 9.46 6.7 10.93 14.8.72 4.02 1.07 44.52 1.07 125.14 0 132.49.3 126.32-6.53 132.33-3.82 3.35-15.33 6.62-26.76 7.6l-7.78.68.28 9.16.29 9.16h130l.29-9.75.28-9.75-5.28-.01c-6.46-.02-22.38-3.2-26.37-5.28-3.95-2.05-6.96-5.44-9.12-10.22-1.65-3.65-1.83-8.55-2.1-57.74l-.31-53.75h30.88l5.46 6.75c8.88 10.97 29.28 41.03 49.71 73.25l9.56 15c6.81 10.56 25.55 41.17 27.34 44.69 1.15 2.25 2.82 4.82 3.7 5.71 1.47 1.47 16.1 1.6 164.29 1.58 89.47-.01 163.18-.35 163.8-.75.64-.42 1.43-5.26 1.82-11.23 1.08-16.4 3.35-45.7 5.13-66.25.9-10.32 1.42-19.32 1.16-20-.35-.9-2.85-1.16-8.87-.93l-8.4.31-3.42 8.69c-4.4 11.2-15.75 34.14-21.18 42.87-9.27 14.88-13.49 18.21-27.58 21.8-12.25 3.13-56.14 4.61-71.97 2.43-13.14-1.8-21.64-7.06-25.74-15.92-2.02-4.37-2.09-6.16-2.37-62.25l-.29-57.75h19.3c10.6.01 22.2.49 25.78 1.06 11.73 1.88 20.98 7.75 26.78 16.97 3.98 6.34 5.13 9.5 8.63 23.8l3.1 12.67h16.85l.07-63.78.07-63.79-9 .29-9 .28-1.6 7.5c-5.14 24.23-12.85 35.88-27.2 41.11-5.63 2.04-8.4 2.29-29.95 2.65l-23.75.4V130h37.86c21.58 0 40.18.44 43.25 1.02 7.75 1.47 16.77 6 22.04 11.08 7.55 7.28 17.72 24.11 23.36 38.65l2.8 7.25h16.71l-.26-39.75-.26-39.75h-234v17.86l11 2.23c17.86 3.62 24.88 7.65 28.18 16.19 1.73 4.47 1.82 11.1 1.82 126.72v122l-2.13 4.6c-3.94 8.52-10.52 11.7-29.7 14.4-10.43 1.46-10.61 1.45-19.23-1.05a84 84 0 0 1-15.82-6.67c-12.35-7.21-16.11-11.46-39.28-44.28-11-15.58-17.21-24.6-38.54-56a4669 4669 0 0 0-14.24-20.81c-3.72-5.4-6.6-9.94-6.41-10.09.2-.15 4.5-1.74 9.57-3.55 28.62-10.17 49.1-30.52 57.44-57.09 2.07-6.6 2.34-9.4 2.33-24.46-.01-14.72-.32-18.06-2.3-24.96-3.67-12.73-8.5-20.97-17.67-30.12-12.31-12.3-24.76-18.42-46.02-22.66-9.35-1.86-15.25-2.02-90.25-2.46l-80.25-.48zm577.79-8.47c-7.8.34-6.91-1.49-8.79 18.2-.6 6.32-2.2 21.63-3.56 34-3.22 29.42-4.15 39.96-3.58 40.53.26.26 4.4.47 9.22.47h8.74l2.74-7.25c5.61-14.85 15.16-31.8 23.63-41.96 5.01-6.01 14.63-13.29 22.31-16.9 12.78-6 13.82-6.1 63.75-6.25 25.16-.08 45.75-.05 45.75.06 0 1.09-2.51 5.3-3.16 5.3-.46 0-.84.44-.84.97 0 .97-9.32 15.67-19.02 30.03-2.8 4.13-8.14 12.22-11.9 18-9.7 14.95-34.85 53.47-50.9 78-5.22 7.98-12.41 19-15.98 24.5-14.24 21.92-19.4 29.84-32.59 50-7.55 11.55-19.6 30-26.77 41s-16.03 24.55-19.69 30.12l-6.65 10.12.33 7.03c.33 7.03.33 7.04 3.5 7.6 5.7 1 237.59.57 238.22-.45.32-.52 1.21-6.46 1.97-13.19 3.3-29.17 6.63-57.34 8.49-71.83 2.83-22.18 3.64-19.9-7.1-19.9h-9.08l-1.14 3.25c-1.27 3.6-12.7 26.4-17.18 34.25-10.44 18.32-21.47 32.28-28.85 36.54-14.99 8.65-28.77 10.21-86.39 9.78l-43.22-.32 7.15-11c3.94-6.05 12.84-19.77 19.79-30.5 18.15-28.03 29.25-45.13 39.51-60.86 4.95-7.59 11.93-18.39 15.5-24s13.7-21.2 22.5-34.64 18.23-27.94 20.96-32.22a6608 6608 0 0 1 28.03-43.28c2.34-3.57 7.3-11.22 11.05-17 3.74-5.78 10.55-16.2 15.13-23.19 8.32-12.67 8.33-12.7 8.33-19.28v-6.6l-106.75.28c-58.71.16-109.77.42-113.46.59m-490.04 20.74c-.41.44-.75 30.92-.75 67.73v66.93l20.25-.46c17.76-.4 21.3-.77 28.77-2.94 4.69-1.37 9.64-3.07 11-3.78 16.66-8.72 29.15-23.9 34.16-41.47 3.05-10.69 3.3-34.38.47-44.55-4.29-15.4-12.8-27.02-24.8-33.82-10.19-5.79-18.45-7.24-44.85-7.87-12.93-.3-23.84-.2-24.25.23m-805.71 60.2c-2.36 7.02-8.99 25.81-14.74 41.76-14.62 40.54-22.3 62.64-22.3 64.18 0 1.07 8 1.32 42.5 1.32 23.38 0 42.5-.11 42.49-.25-.06-1.43-3.3-10.52-14-39.29a5925 5925 0 0 1-14.52-39.46c-10.59-29.25-14.7-40.49-14.93-40.76-.12-.14-2.15 5.48-4.5 12.5M1253 476c0 9.95.36 15 1.07 15 .58 0 4.48 1.58 8.65 3.5 13 6.01 19.07 14.18 23.4 31.5l2.38 9.5v134c0 140.85-.23 149.3-4.5 166.03-4.11 16.04-9.02 21.2-25.75 27.03l-5.25 1.84V894l68.25-.25 68.25-.26.28-11.1c.2-8.1-.06-11.39-1-12.15-.7-.58-5.23-1.79-10.05-2.69-19.65-3.66-34.53-10.2-41.73-18.33-7.64-8.62-10.79-18.4-13.66-42.44-1.52-12.68-1.75-29.8-2.06-151.96-.21-83.06.01-137.9.57-138.24.5-.3 1.39.67 1.97 2.17l4.49 11.74c1.9 4.95 5.04 13.74 6.99 19.54s6.24 17.95 9.55 27c3.3 9.05 9.67 26.81 14.14 39.46l14.52 41a35703 35703 0 0 1 40.53 115c6.17 17.6 12.56 35.6 14.21 40s5.63 15.65 8.83 25 8.26 23.98 11.26 32.5l5.44 15.5h18.4l7.46-21c4.1-11.55 8.99-25.05 10.85-30 6.3-16.76 28.63-76.93 32.66-88 2.2-6.05 4.46-12.12 5.03-13.5.56-1.37 4.53-12.17 8.82-24a30500 30500 0 0 1 40.01-110 3332 3332 0 0 0 23.15-64c3.33-9.62 6.47-17.94 6.98-18.48.55-.59.8 63.13.63 161.5-.27 152.9-.39 162.79-2.07 167.74-4.48 13.22-15.62 18.73-46.48 23.03-6.75.94-12.26 2.05-12.25 2.46.02.41.03 5.7.03 11.75v11h179v-11c0-6.05-.06-11.34-.13-11.75s-5.8-1.95-12.75-3.41c-30.71-6.48-39.38-12.56-42.17-29.6-1.39-8.49-1.25-312.4.14-321.4 1.83-11.76 5.34-17.67 13.27-22.3 4.33-2.53 19.73-6.92 27.89-7.94l9.02-1.13 4.27-.52.01-11.98.01-11.97h-132.4l-.66 3.25c-1.31 6.45-7.79 27.62-13.98 45.75A8142 8142 0 0 1 1537 627.5c-3.42 9.35-9.05 25.1-12.53 35s-9.66 27.23-13.75 38.5-12.32 34.09-18.3 50.7c-5.97 16.61-11.07 30-11.33 29.74s-1.91-4.62-3.7-9.7a6628 6628 0 0 0-22.56-62.74c-3.32-9.08-9.35-25.95-13.4-37.5a7273 7273 0 0 0-13.47-38c-3.36-9.35-7.81-21.95-9.9-28s-7.26-20.67-11.5-32.5a28758 28758 0 0 1-29.43-82.5 2570 2570 0 0 0-7.79-21.75l-2.84-7.75H1253zm499 103.96v8.95l3.75.63c2.06.36 7.48 1.5 12.05 2.54 16.37 3.76 22.58 8.06 25.87 17.92 1.73 5.2 1.83 11.79 1.81 124.5 0 92.84-.29 119.92-1.27 123.2-3.2 10.68-11.95 15.1-33.76 17.08l-7.95.72-.29 9.25-.29 9.25h252.7l1.78-26.25c.98-14.44 2.56-36.15 3.51-48.25s1.47-22.3 1.16-22.67-4.13-.8-8.48-.98c-7.12-.28-7.98-.12-8.66 1.67-7.87 20.53-14.4 34.83-22.2 48.62-9.54 16.88-13.3 20.01-28.23 23.5-7 1.63-12.35 1.86-42.5 1.86-30.9 0-35.09-.2-40.15-1.86-10.67-3.5-16.2-10.71-17.95-23.42-.5-3.7-.8-30.07-.66-58.6l.26-51.88 23 .04c25.53.05 29.7.82 38.95 7.19 9.9 6.81 13.76 15.19 20.49 44.53l.69 3h16.87l.26-64.25.26-64.25h-17.84l-.69 4.25c-2.4 14.92-8.8 30.73-14.92 36.85a37 37 0 0 1-19 9.81c-3.27.6-15.53 1.09-27.25 1.09H1842V593l40.25.01c30.38.01 41.48.34 45.25 1.35 17.03 4.55 28.08 17.82 42.34 50.89l2.05 4.75h6.97c3.84 0 7.58-.23 8.3-.51 1.1-.42 1.29-7.76 1.07-39.5l-.28-38.99H1752zm275-.03v8.93l5.75 1.12c11.55 2.25 23.78 6.18 27.08 8.7 7.12 5.44 6.64-3.84 6.96 133.32.21 92.15-.01 124.58-.88 127.76q-3.6 13.01-29.1 14.96l-10.31.78v9l.02 9 73.99-.01c66.41-.01 75-.2 83.95-1.79 45.26-8.06 76.56-25.48 101.88-56.7 15.8-19.5 26.87-46.4 30.84-75 1.9-13.7 1.56-47.82-.6-60.5-2.3-13.48-8.64-34.48-13.48-44.67-21.53-45.26-63.5-74.31-118.78-82.23-9.44-1.35-22.58-1.6-84.25-1.6H2027zm310.21.25.29 9.2 7.26 1.21c9.12 1.53 20.32 4.9 26.22 7.9 4.93 2.5 8.36 7.47 9.34 13.51.32 1.92.7 57.73.86 124l.29 120.5-2.33 4.76c-3.88 7.94-12.73 11.58-32.39 13.33l-7.75.69V894h252.71l.64-7.75c.35-4.26 1.1-14.73 1.67-23.25s1.94-26.92 3.04-40.88 1.78-25.62 1.5-25.9-4.21-.5-8.73-.5h-8.22l-5.18 12.55c-10.51 25.44-22.11 47.23-28.23 53-7.18 6.78-16.85 9.43-38.7 10.59-18.04.95-55.44-.06-60-1.63-7.28-2.5-10.52-4.43-13.72-8.18-6.3-7.36-6.17-5.97-6.53-68.8l-.33-57.25H2452c20.73 0 23.7.21 29.25 2.08 13.8 4.65 20.96 13.17 26.13 31.11 1.32 4.57 2.7 10.58 3.08 13.36s1 5.56 1.38 6.18c.41.67 4.18 1.22 9.19 1.36l8.48.22V662.5l-8.59-.29-8.58-.28-1.7 8.67c-3.48 17.69-10.02 30.13-19.14 36.4-8.64 5.95-10.73 6.32-37.74 6.77l-24.75.4V654.6c0-32.77-.11-59.93-.25-60.34s17.07-.88 38.25-1.05c39.78-.3 46.36.15 54.68 3.8 11.03 4.83 24.54 22.48 33.24 43.44 3.43 8.25 4 9.05 6.42 9l8.66-.25 6-.19v-78h-239.07zm275.79-.32v8.88l6.25 1.18c16.02 3.03 27.18 7.56 30.45 12.36a27 27 0 0 1 3.22 7.72c1.52 6.64 1.46 245.56-.06 250.1-2.99 8.93-11.79 13.12-30.9 14.7l-8.46.7-.29 9.25-.28 9.25h238.6l2.3-30.25c1.26-16.64 3.14-38.55 4.18-48.68s1.65-18.8 1.38-19.25c-.28-.45-4.31-.82-8.96-.82h-8.46l-2.14 4.75c-20.9 46.17-32.86 63.75-47 69.04-8.6 3.22-23.49 4.48-47.13 4-18.53-.39-21.94-.71-27.12-2.6-9.88-3.6-14.76-10-16.57-21.7-.73-4.78-.98-43.7-.8-122.99.27-109.15.4-116.24 2.09-119.99 2.55-5.65 5.29-8.21 11.11-10.39 4.74-1.77 15.34-4.13 25.38-5.66l4.28-.65-.28-8.65-.29-8.66-65.25-.26L2613 571zm248.42-7.52c-.28.74-.38 4.64-.22 8.67.35 8.5-1.05 7.55 16.17 11.08 14 2.86 18.88 5.9 23.13 14.41l3 6 .27 119c.19 82.2-.06 120.6-.8 124.18-2.6 12.5-10.74 17.36-32 19.12l-8.47.7v18l118.68.25 118.68.26.57-5.26c.3-2.89 1.26-14.92 2.1-26.75a2810 2810 0 0 1 3.53-43.32c1.08-12 1.71-22.24 1.4-22.75-.68-1.1-15.45-1.24-17.07-.16-.62.4-1.47 1.85-1.9 3.21-1.56 5-11.5 26.33-16.18 34.73-20.48 36.75-23.9 38.59-71.81 38.72-22.7.06-26.7-.16-31.5-1.77-10.63-3.56-16.07-10.13-17.93-21.66-1.47-9.06-1.47-228.07 0-236.47 2.4-13.83 7.7-17.86 28.45-21.65l12.48-2.28V571h-65.03c-53.52 0-65.12.24-65.55 1.34m247.52-.6c-.24 3.19 0 16.53.3 16.83.21.21 5.93 1.5 12.71 2.84 20.14 4 27.51 8.83 29.97 19.59.68 2.95 1.02 45.76 1.01 124.5-.02 127.27.08 124.52-4.59 129.67-4.24 4.7-15.91 8.47-29.36 9.51-4.39.34-8 .89-8.02 1.22s-.1 4.43-.16 9.1l-.12 8.5 66.4.26c36.53.14 66.87.09 67.42-.12.62-.24.8-3.8.5-9.26l-.5-8.88-4-.26c-7.64-.5-22.03-3.43-26.76-5.46a21.8 21.8 0 0 1-11.88-12.44c-1.12-3.15-1.36-25.55-1.36-124.84v-121l2.68-5.72c1.76-3.74 3.82-6.42 5.96-7.72 5.43-3.3 16.86-6.25 32.36-8.35 3.82-.51 4.17-1.4 3.86-9.91l-.3-8.3-68.03-.26c-37.42-.14-68.06.09-68.09.5M3256 580.5c0 5.23.14 9.5.32 9.5 5.14 0 22.7 5.04 29.18 8.37 5.8 2.98 13.7 11.28 16.81 17.65 6.18 12.65 6.19 12.8 6.19 108.48 0 64.76-.34 90.83-1.34 102-2.45 27.24-5.14 34.45-14.66 39.22-4.6 2.3-17.57 6.57-25.25 8.3l-5.25 1.18V894h124.07l-.28-9.25-.29-9.25-4-.87c-20.1-4.4-31.76-8.88-37-14.24-10.63-10.9-12.16-29.3-12.33-148.14-.06-40.84.07-74.25.27-74.25.52 0 5 6.32 34 48.01l18.56 26.65 10.5 14.94a4090 4090 0 0 1 20.5 29.56c6.32 9.22 19.15 27.8 28.5 41.3l24.78 35.79a594 594 0 0 0 9 12.79 968 968 0 0 1 12.67 18.5c6.3 9.33 13.53 19.88 16.07 23.46l4.61 6.5 10.63.28 10.64.29.4-130.79c.4-133.83.63-142.16 4.35-152.28 4.59-12.5 14.69-18.85 35.51-22.33l7.34-1.23.29-9.22.28-9.22h-126.14l.28 9.24.29 9.23 8.5 1.75c18.19 3.75 28.17 7.7 33.21 13.12 10.74 11.56 12.05 26.52 11.6 131.84l-.31 73.67-11.5-16.56c-6.32-9.1-16-23.17-21.5-31.24-5.5-8.08-13.37-19.5-17.5-25.4l-12.55-17.94c-2.77-3.97-8.88-12.84-13.57-19.71-13.79-20.2-57.98-84.2-60.7-87.88-1.36-1.86-5.9-8.4-10.08-14.54s-9.85-14.38-12.6-18.33l-5-7.19-43.75-.03L3256 571zM2114.22 719.66l.28 126.84 2.43 5.85c6.33 15.26 21.6 21.65 48.57 20.31 15.39-.76 29.02-4.17 41.04-10.26 11.02-5.58 13.68-7.56 24.06-17.97 16.56-16.58 27.17-40.23 31.96-71.21 2.18-14.07 2.94-43.29 1.52-58.22-5.19-54.34-27.3-92.98-63.58-111.06-5.5-2.74-14.5-6.18-20-7.63-9.43-2.5-11.62-2.67-38.28-3.07l-28.28-.42zM1702 955.04l-12.73 5.62c-.88.38-.95 1.07-.23 2.42.83 1.55 1.75 1.77 5.35 1.28 7.03-.96 7.61.63 7.61 20.88v16.79l-4.18-2.77c-3.47-2.3-5.48-2.82-11.97-3.12-7.05-.31-8.41-.05-14.08 2.7-7.53 3.64-10.47 6.22-15.8 13.83-4.55 6.49-7.55 15.32-8.9 26.15-2.45 19.85 6.04 40.2 19.8 47.38 10.06 5.25 23.82 3.33 31.88-4.45l3.25-3.14v5.13c0 2.83.46 5.43 1.02 5.77 1.47.91 7.1-1.03 18.23-6.27 8.42-3.96 9.75-4.92 9.75-7.03 0-2.3-.23-2.4-4.27-1.8-3 .45-4.86.21-6.25-.8-1.92-1.4-2-3.13-2.48-62.28-.5-59.89-.53-60.83-2.5-61.1-1.1-.13-7.17 2.03-13.5 4.81m565.5.4c-9.19 4.06-12 5.75-12 7.18 0 1.58.7 1.85 4.27 1.69 8-.36 7.7-2.7 7.96 59.55.13 29.94.36 54.52.5 54.61 12.55 8.21 20.7 10.86 31.85 10.33 10.53-.5 17.65-3.61 24.77-10.84 14.27-14.5 18.36-42.94 9.06-62.96-3.57-7.67-7.53-12.05-14.53-16.06-4.18-2.4-6.28-2.94-11.44-2.94-7.74 0-13.05 2.36-19.4 8.62l-4.54 4.47v-28.94c0-25.46-.19-29-1.58-29.54-2.22-.85-1.66-1.03-14.92 4.83m91.43.39c-9.19 4.5-11.48 6.04-11.16 7.47.33 1.52 1.06 1.7 4.72 1.15 3.98-.6 4.49-.42 6.17 2.16 1.73 2.63 1.84 6.02 1.84 55.44 0 42.48-.26 53.14-1.36 55.19-1.43 2.67-4.97 4.76-8.08 4.76-1.93 0-3.47 2.52-2.5 4.09.3.5 9.53.91 20.5.91H2389v-2.5c0-2.15-.46-2.5-3.25-2.53-3.71-.04-5.86-1.4-7.74-4.93-1.5-2.81-1.6-7.28-1.84-78.29L2376 950l-2.75.08c-1.51.04-7.95 2.63-14.32 5.75m628.07-.52c-9.05 4.1-11.5 5.64-11.5 7.2 0 1.7.6 1.95 4.1 1.74 3.1-.2 4.55.26 6 1.85 1.8 2 1.93 4.8 2.4 57.12l.5 55 6.46 3.91c8.75 5.29 12.9 6.38 24.04 6.32 8.63-.04 10.05-.33 15.59-3.18 22.35-11.5 30.97-44.21 18.8-71.33-3.1-6.92-11.27-15.09-16.97-16.97-1.99-.65-6.59-1-10.26-.77-5.45.34-7.5 1-11.3 3.61a50 50 0 0 0-7.74 6.71l-3.09 3.52-.27-29.77-.26-29.77-2.5-.2c-1.37-.12-7.68 2.14-14 5.01m391.5.14c-6.6 2.96-11.95 5.87-11.9 6.47.06.6.17 1.56.25 2.14.1.68 1.73.83 4.56.4 4.07-.6 4.56-.44 6.25 2.14 1.55 2.37 1.9 5.34 2.18 19.1.23 11.27 0 16.3-.75 16.3-.6 0-1.09-.37-1.09-.83s-2.2-1.86-4.88-3.11c-6.46-3.03-17.18-2.61-24.62.97-13.92 6.68-24.43 26.25-24.48 45.58-.05 17.56 7.45 33.46 19.23 40.74 8.9 5.5 23.06 4.67 30.09-1.76 6.46-5.93 6.14-5.9 6.32-.4.08 2.76.53 5.38 1 5.83 1.1 1.06 7.73-1.17 18.59-6.25 7.3-3.42 8.75-4.48 8.75-6.42 0-2.14-.3-2.27-4.25-1.73-3.56.49-4.58.22-6.25-1.62-1.94-2.14-2.01-4-2.5-62.35-.5-59.22-.53-60.15-2.5-60.37-1.1-.12-7.4 2.2-14 5.17m-968.04-2c-1.97 1.97-2.46 3.48-2.46 7.58 0 4.33.45 5.58 2.92 8.05 5.32 5.31 12.84 2.8 15.2-5.08 2.14-7.16-2.08-13-9.39-13-2.72 0-4.53.7-6.28 2.46m-205.79 15.52c-2.64 8.8-4.52 16.44-4.17 17 1.35 2.2 4.21.81 7.74-3.73 7.12-9.16 20-26.76 20.5-28 .37-.95-1.9-1.25-9.4-1.25h-9.87zm-934.26-13.1a64 64 0 0 0-11.5 4.8l-5.4 3.06-.22 11.38-.23 11.38 2.4-4.56c3.2-6.08 10.06-12.87 16.12-15.94 4.28-2.17 6.25-2.5 14.93-2.5 8.65 0 10.65.33 14.82 2.46 10.13 5.18 16.3 12.65 20.72 25.11 2.76 7.78 3.15 8.28 5.1 6.68 1.3-1.08 1.4-3.4.7-16.75-1.2-22.86-1.64-26-3.73-26-1 0-2.36 1.37-3.18 3.17-2.45 5.45-3.88 5.63-12.6 1.63-4.3-1.97-9.94-4.08-12.52-4.7-6.76-1.59-18.35-1.23-25.4.79m1639.15-1c-.3.5-3.67 9.16-7.5 19.26-3.81 10.1-8.11 21.27-9.56 24.85-1.44 3.58-3.3 8.52-4.13 11a98 98 0 0 1-2.94 7.65 22 22 0 0 0-1.43 3.72c0 .31-2.5 7-5.57 14.85-16.82 43.1-16.82 43.09-24.04 45.02-3.62.97-4.42 1.58-4.18 3.23.28 1.95 1.06 2.04 19.04 2.3l18.75.27v-2.52c0-2.04-.49-2.52-2.57-2.52-2.98 0-6.4-1.65-8.15-3.91-2.18-2.84-1.36-7.8 3.47-21.05l4.75-13.01 22.14-.02c20.16 0 22.2.15 22.85 1.74 5.5 13.78 9.51 25.87 9.51 28.67 0 4.47-3.16 7.58-7.69 7.58-2.86 0-3.31.34-3.31 2.5v2.5h46v-2.45c0-1.98-.72-2.65-3.66-3.47-4.8-1.32-10.7-7.74-13.17-14.34-1.07-2.88-3.62-9.52-5.65-14.74l-6.2-16c-1.38-3.58-4.7-12.12-7.4-19a5542 5542 0 0 1-21.44-55.5c-1-2.75-2.25-5.56-2.78-6.25-1.1-1.45-4.32-1.67-5.14-.35M2071 959.5c0 2.27.38 2.5 4.25 2.5 5.88 0 10.36 2.94 11.75 7.7.78 2.63 1.02 19.16.8 53.8-.33 54.35-.3 54.16-5.95 57.08a16 16 0 0 1-6.24 1.42c-3.82 0-4.95.96-4 3.43.55 1.42 3.43 1.57 25.75 1.34 24.28-.26 25.14-.34 25.14-2.25 0-1.6-.96-2.13-5-2.77-5.76-.93-8.84-3.73-10.45-9.5-.57-2.06-1.04-12.9-1.04-24.08l-.01-20.33 6.75.83c8.92 1.1 19.68.83 25.25-.63 10.26-2.7 18.9-11.21 22.57-22.24 2.36-7.12 1.6-21.57-1.46-27.95-3-6.24-10.5-13.67-16.61-16.46-7.82-3.57-16-4.37-44.75-4.38L2071 957zm43 7.18c-1.93.2-4.51.58-5.75.86l-2.25.5v50.88l5.18 1.54c8.86 2.63 15.53 1.49 21.4-3.67 4.59-4.02 7.1-9.07 8.33-16.73 1.8-11.13-1.44-21.8-8.46-27.97-5.23-4.6-10.7-6.2-18.45-5.4m-579.87 11.57c-3.63 7.68-5.7 10.55-12.25 17.02-4.33 4.28-7.88 8.44-7.88 9.25 0 1.13 1.38 1.47 5.94 1.47h5.94l.31 34.75c.29 32.42.44 35.01 2.31 38.68 1.1 2.17 3.2 4.82 4.68 5.9 2.86 2.09 11.1 3.32 15.25 2.28 7.25-1.82 18.6-18.61 12.57-18.61-.59 0-2.64 1.58-4.57 3.5-4.3 4.3-8.04 4.6-11.5.92l-2.43-2.58-.31-32.42-.32-32.42H1561v-7.92l-9.25-.3-9.25-.28-.28-14.25c-.25-12.72-.46-14.25-2-14.24-1.18 0-3.08 2.88-6.09 9.25m1371.69 13c-5.7 14.34-16.82 43.5-16.82 44.07 0 .37 8.32.67 18.5.67 13.8 0 18.5-.3 18.5-1.2 0-1.66-17.37-47.77-18-47.78-.28 0-1.26 1.9-2.18 4.23m-1466.82 8.9c-13.44 5.93-13.96 6.28-13.26 8.95.44 1.72 1.09 1.94 4.14 1.45 7.78-1.23 8.12.21 8.12 34.24 0 17.87-.4 30.08-1.07 31.97-1.02 2.93-3.76 4.7-8.43 5.45-1.22.2-2 1.1-2 2.3 0 1.92.71 1.99 20 1.99 19.2 0 20-.08 20-1.96 0-1.41-.92-2.15-3.3-2.63-4.33-.89-6.96-3.4-8.19-7.81-.55-1.98-1-14.72-1-28.31l-.01-24.72 3.14-3.57c7.05-8.04 16.94-11.06 22.56-6.89 5.16 3.83 5.72 7.34 5.76 35.89.02 14.3-.3 27.22-.72 28.72-1.13 4.02-4.59 6.78-8.5 6.78-2.93 0-3.34.3-3.06 2.25.32 2.25.34 2.25 20.32 2.25 18.96 0 20-.1 20-1.9 0-1.39-1.23-2.25-4.65-3.25-3.79-1.1-4.89-1.96-5.89-4.6-.82-2.16-1.44-13.44-1.86-33.75l-.62-30.5-2.98-5.4c-3.89-7.04-8.86-10.35-16.38-10.9-7.33-.53-13.13 2.1-20.9 9.43a104 104 0 0 1-5.9 5.37c-.13 0-.37-3.48-.53-7.74-.22-5.96-.63-7.79-1.79-7.95-.83-.12-6.67 2.06-13 4.85m327.97-3.8c-22.03 4.75-35.15 30.66-29.9 59.06 2.4 12.98 11.65 26.27 21.43 30.78 4.17 1.92 6.67 2.3 15.02 2.3 9.34 0 10.49-.23 16.8-3.33 13.97-6.88 22.7-23.75 22.67-43.81-.03-23.32-11.55-40.7-29.84-45-6.7-1.58-8.86-1.58-16.18 0m64.28 4.66c-10.1 4.84-12.25 6.25-12.25 8.04 0 1.99.36 2.11 4.32 1.52 3.62-.54 4.62-.3 6.25 1.5 1.82 2.01 1.93 3.88 1.93 33.61v31.48l-2.8 2.42c-1.6 1.37-4.09 2.41-5.76 2.41-2.48 0-2.94.4-2.94 2.52v2.52l20.75-.27c19.94-.26 20.75-.35 20.75-2.26 0-1.2-.78-2.1-2-2.3-3.95-.63-7.03-2.35-9-5-1.88-2.55-2-4.28-2-28.73v-26.03l3.37-5.25c4.72-7.35 5.98-7.82 11.12-4.1 5.99 4.35 10.17 4.83 13.44 1.56 2.02-2.02 2.57-3.56 2.57-7.21 0-3.95-.5-5.16-3.4-8.05-2.77-2.77-4.16-3.4-7.55-3.4-7.01 0-11.8 3.6-17.92 13.5l-3.1 5-.01-9.75c-.02-8.64-.22-9.74-1.77-9.67-.96.04-7.26 2.72-14 5.94m153.86-4.95c-10.31 1.42-18.38 9.69-20.14 20.64-1.2 7.42-.2 12.85 3.37 18.23 2.6 3.92 7.44 7.38 23.16 16.53 10.63 6.18 14.77 11.08 14.77 17.44 0 7.14-5.77 13.1-12.67 13.08-10.03-.02-20.92-10.5-23.12-22.26-.65-3.47-2.7-5.34-4.57-4.17-.5.3-.91 7.73-.91 16.5V1088h2.42c1.33 0 2.6-.54 2.81-1.2.3-.9 2.87-.75 10.48.65 16.55 3.03 26.15 1.03 33.12-6.9 4.67-5.32 6.38-9.29 6.91-16 1.07-13.4-4.3-20.88-21.24-29.57-18.37-9.42-22.5-13.27-22.5-21 0-2.4.98-4.2 3.88-7.1 3.36-3.36 4.5-3.88 8.38-3.88 5.78 0 10.84 2.14 14.04 5.95 2.5 2.97 6.7 12.73 6.7 15.59 0 .9.98 1.46 2.53 1.46h2.52l-.27-15.17c-.18-9.65-.67-15.3-1.35-15.52-.59-.2-2.13.56-3.42 1.68-1.3 1.12-3.06 1.83-3.93 1.58-9.59-2.75-14.7-3.36-20.97-2.5m425.89 3.75c-14.6 6.61-14.9 6.81-14.3 9.16.45 1.7 1.1 1.92 4.18 1.42 2.94-.47 4.03-.15 5.63 1.62 1.9 2.09 1.99 3.67 1.99 33.67v31.48l-2.8 2.42c-1.6 1.37-4.09 2.41-5.76 2.41-2.47 0-2.94.4-2.94 2.5v2.5h40v-2.5c0-1.81-.54-2.5-1.95-2.5a9.6 9.6 0 0 1-8.5-5.54c-1.32-2.77-1.55-9.14-1.55-42.36 0-36.58-.11-39.1-1.75-39.07-.96.02-6.47 2.18-12.25 4.8m144-3.45c-7.8 1.79-13.23 5-18.84 11.13-10.5 11.49-15.04 29.1-11.73 45.44 3.65 18.03 14.32 31.94 26.93 35.12 7.81 1.97 20.4.8 26.92-2.5 13.79-6.98 22.65-24.21 22.7-44.14.05-20.19-7.76-34.85-22.28-41.83-8.4-4.05-15.73-5.04-23.7-3.22m548.44-.33c-19.6 2.55-33.44 21.9-33.44 46.78 0 8.75 2.37 19.03 6.07 26.29 2.68 5.27 11.6 14.65 16.33 17.19 3.5 1.87 5.7 2.19 15.1 2.19 10.03 0 11.5-.25 16.73-2.81 20.08-9.86 29.4-43.93 18.4-67.19-4.09-8.64-7.59-12.86-14.1-17-8.23-5.24-15.16-6.75-25.1-5.45m-1734.67 1.33c-20.37 7.52-31.68 35.26-24.7 60.64 3.9 14.2 13.92 26.41 24.18 29.46 10.33 3.07 23.65 1.45 31.52-3.82 12.1-8.1 19.42-24.3 19.43-43 0-8.94-.38-11.21-3.2-18.95-3.9-10.7-10.02-18-18.73-22.33-4.94-2.47-7.1-2.91-15.26-3.13-6.2-.16-10.8.23-13.24 1.13m221.24-.49c-12.47 4.02-20.37 14-18.6 23.47 1.23 6.53 8.45 9.79 12.57 5.67 2.2-2.2 2.73-4.07 3.34-11.87.55-7.08 3.56-10.25 10.35-10.89 9.37-.87 14.04 5.07 14.58 18.57l.26 6.62-10.42 4.12c-20.2 8-30.22 15.88-32.97 25.92-5.1 18.56 8.25 34.03 25.13 29.12 4.93-1.43 14.4-7.6 16.23-10.57 1.04-1.68 2.53-1.21 2.53.8 0 9.71 9.2 13.66 18.64 8 4.91-2.94 10.36-10.18 10.36-13.77 0-3.76-.91-3.87-4.08-.49-3.96 4.24-5.6 4.73-7.94 2.39-2-2-2.06-2.99-1.91-30.77.17-31.46-.28-35-5.07-39.9-5.22-5.34-9.38-6.76-20.5-7-5.5-.13-11.12.14-12.5.58m317.01 1.26c-8.21 3.24-15.71 11.28-19.92 21.35-2.86 6.86-3.41 9.52-3.85 18.7-.64 13.17.74 20.92 5.41 30.47 4.06 8.29 9.28 14.19 15.48 17.5 3.74 2 5.81 2.33 14.37 2.33 11.63 0 14.06-.96 21.71-8.62 9.1-9.1 14.62-26.9 8.34-26.88-.58 0-1.86 1.97-2.85 4.38-2.17 5.29-7.86 12.13-11.75 14.15-4.08 2.1-12.52 1.86-17.38-.5-5.39-2.62-11.59-8.78-14.29-14.18-2.75-5.5-5.28-15.12-5.28-20.06V1033h54v-5.88c0-8.38-2.5-15.15-7.8-21.13-6.54-7.4-10.8-9.3-21.7-9.68-7.39-.26-9.98.07-14.49 1.84m566.06-1.04c-10.13 3.07-20.57 14.15-24.42 25.89-6.92 21.17-2.73 44.47 10.37 57.67 6.4 6.45 10 7.83 20.48 7.83 7.48 0 9.76-.4 13.5-2.34 9.38-4.87 15.25-12.58 19.03-25.02 1.86-6.13 2-7.5.85-8.24-2.24-1.41-2.52-1.17-5.4 4.85-11.86 24.72-38.36 19.07-44.87-9.57-2-8.82-2.03-16.8-.06-25.13 2.92-12.4 9.53-19.05 18.91-19.05 6.53 0 9.76 3.32 11.4 11.71.91 4.61 1.9 6.74 3.82 8.25 3.48 2.74 9.24 2.7 12.24-.1 2.03-1.9 2.25-2.87 1.89-8.5-.37-5.8-.75-6.72-4.36-10.45-6.3-6.5-10.54-8.24-20.95-8.56-4.95-.15-10.54.19-12.43.76m154.46 1.42q-12.12 6.44-13.29 21.05c-1.09 13.6 3.74 19.6 24.46 30.41 15.52 8.1 21.06 17.9 15.07 26.64-5.3 7.74-15.37 7.24-24.75-1.23-4.17-3.77-6.78-8.27-9.24-15.9-.75-2.31-1.92-4-2.78-4-1.26 0-1.54 2.62-1.78 16.25-.26 15.74-.2 16.25 1.76 16.25 1.1 0 2.02-.45 2.02-1 0-1.39 4.41-1.2 11.5.52 17 4.1 30.14-.25 37.25-12.34 2.38-4.05 2.75-5.75 2.75-12.68 0-6.97-.36-8.62-2.82-12.8-3.4-5.8-7.78-9.07-21.93-16.42-5.94-3.08-12.43-7.02-14.43-8.74-3.18-2.76-3.68-3.82-4.08-8.7-.43-5.1-.21-5.84 2.57-8.95 2.88-3.23 3.35-3.39 9.88-3.39 5.65 0 7.38.4 9.8 2.31a25.2 25.2 0 0 1 8.97 14.4c.91 4.09 1.65 5.36 3.23 5.6 3.07.45 3.42-1.7 2.68-16.44-.71-14.18-1.34-15.52-5.47-11.78-1.6 1.46-2.23 1.46-7.23 0-8.6-2.5-18.39-2.11-24.14.94m554.77-.5c-7.1 2.83-14.48 9.7-17.39 16.2-1.84 4.1-2.36 7.04-2.37 13.27-.01 9.78 2.27 15.45 8.78 21.78l4.47 4.34-4.46 5.37c-5.88 7.07-7.33 10.06-7.33 15.06 0 3.4.63 4.78 3.5 7.65 1.93 1.92 3.5 3.69 3.5 3.91s-2.03 2.9-4.5 5.95c-5.38 6.6-9.5 14.39-9.5 17.96 0 6.2 6.43 13 15.5 16.4 23.86 8.92 50.22 1.08 60.25-17.92 3.22-6.1 3.41-6.99 3.09-14.58-.3-7.03-.7-8.56-3.15-11.76-5.22-6.85-8.72-7.86-30.55-8.82-17.13-.75-19.68-1.09-22.24-2.91-3.99-2.84-3.6-6.18 1.31-11.59 1.64-1.8 2.47-2 5.12-1.25 4.86 1.4 14.73 1.08 20.58-.66 16.02-4.75 24.6-25.54 17.61-42.63-.61-1.5.16-1.74 6.14-2l6.84-.3.3-4.75.31-4.75h-11.13c-10.24 0-11.49-.21-15.66-2.66-3.88-2.27-5.92-2.7-14.18-3.01-7.96-.3-10.55 0-14.84 1.7m84.06-1c-5.3 1.63-12.7 7.26-15.07 11.47-2.53 4.49-3 11.55-1.03 15.42 2.29 4.47 10.5 5.27 12.66 1.22.54-1 1.2-4.8 1.47-8.43.26-3.62.97-7.52 1.57-8.64 1.5-2.81 6.21-5.07 10.56-5.07 9.2 0 13.97 6.98 13.3 19.42l-.32 5.93-13 5.6c-18.77 8.07-25.03 12.9-28.97 22.32-2.35 5.63-1.96 15.26.85 21.3 2.76 5.92 6.25 8.98 11.99 10.53 8.06 2.17 16.24-.46 24.75-7.96 4.93-4.35 5.88-4.37 5.88-.1 0 3.61 3.35 7.66 7 8.46 4.58 1 9.9-1.3 15.72-6.8 4.33-4.1 5.28-5.6 5.28-8.35 0-4.14-1.37-4.25-4.65-.35-3.01 3.58-4.7 3.77-6.8.78-1.31-1.89-1.55-6.51-1.55-30.32 0-31-.7-35.93-5.73-40.64-5.4-5.05-9.02-6.2-20.27-6.49-5.78-.14-11.91.18-13.64.7m174.14.25c-13.86 5.7-21.99 15.25-25.93 30.44-2.3 8.91-2.07 23.46.53 31.92 2.48 8.07 9.4 18.98 14.51 22.88 8.26 6.3 21.81 8.33 33.14 4.96 23.39-6.94 34.74-44.26 21.67-71.2-3.28-6.75-9.82-13.43-16.56-16.9-4.55-2.34-6.8-2.8-14.86-3.05-5.91-.18-10.63.18-12.5.95m76.7 1.31c-9.29 4.63-13.58 12.39-13.47 24.35.1 10.93 4.74 16.25 22.28 25.57 15.94 8.46 21.28 15.22 18.89 23.9-3.33 12.06-18.56 12.7-28.54 1.22-4-4.62-7.36-11.55-7.36-15.21 0-1.33-.41-2.42-.92-2.42-.5 0-1.63-.27-2.5-.6-1.4-.55-1.58 1.26-1.58 16v16.6h2.42c1.33 0 2.6-.55 2.82-1.23.32-.94 2.47-.83 9.42.5 16.66 3.2 24.62 1.99 32.3-4.92 6.7-6.03 9.05-11.2 9.02-19.92-.05-13.8-4.58-18.98-26.48-30.3-11.94-6.17-12.64-6.68-15.37-11.15-2.66-4.37-2.7-8.32-.12-12.5s6.72-5.86 12.96-5.26c8.55.82 13.87 6.47 17 18.03 1.08 3.97 1.68 4.75 3.66 4.75h2.37v-15c0-13.35-.18-15-1.67-15-.92 0-2.48.73-3.47 1.63-1.66 1.5-2.3 1.5-8.29 0-9.74-2.45-17.15-2.14-23.37.96M2167 1000.5c0 1.96.51 2.5 2.35 2.5 4.15 0 8.34 2.03 9.51 4.6.76 1.66 1.15 11.28 1.16 28.7.02 28.28.96 36.28 5.2 44.02 4.34 7.94 16.79 11.16 26.28 6.8 3.73-1.72 14.5-11.63 14.5-13.35 0-.42.35-.77.77-.77s.6 3.28.4 7.3c-.49 9.65.27 10.27 8.84 7.24 3.57-1.27 9.53-3.73 13.24-5.46 5.76-2.7 6.75-3.54 6.75-5.73 0-2.61-1.16-2.76-6.24-.81-.79.3-2.52-.33-3.85-1.4l-2.41-1.96-.28-37.12-.3-37.11-14.2.27c-13.4.26-14.22.4-14.22 2.25 0 1.56.94 2.13 4.5 2.73 8.09 1.36 8 1 8 33.8v28.77l-3.94 3.56c-5.34 4.83-9.2 6.67-13.96 6.67-5.8 0-8.8-1.75-11.09-6.47-1.9-3.92-2.01-6.12-2.01-37.85V998h-29zm552-.09c0 1.68.71 2.67 2.25 3.14 5.13 1.55 8.63 6.7 14.21 20.95a887 887 0 0 0 10.5 24.5 2408 2408 0 0 1 11.42 26.08l3.65 8.57-3.9 10.4c-2.23 5.91-5.32 12.09-7.16 14.28-3.56 4.24-4.53 4.33-12.84 1.23-5.93-2.22-10.3-.82-12.6 4.03-3.05 6.42.62 13.3 8.16 15.33 9.84 2.65 20.05-4.95 27.46-20.42 3.76-7.84 21.13-54.09 30.88-82.24 5.7-16.44 8.17-20.8 12.76-22.48 2.45-.9 3.22-1.74 3-3.25-.28-1.93-.98-2.03-13.79-2.03-12.52 0-13.5.14-13.5 1.87q0 1.87 3.5 3.01c3.33 1.1 3.5 1.37 3.42 5.63-.07 4.16-1.61 8.8-14.63 43.79l-3.1 8.3-5.37-12.3a894 894 0 0 0-7.27-16.3c-9.73-20.5-10.37-27.32-2.78-29.3 2.24-.57 3.23-1.42 3.23-2.76 0-1.84-.97-1.95-18.75-2.21l-18.75-.27zm470.02 2.66c-6.13 2.57-8.9 7.83-9.73 18.54-1.3 16.67 6.2 30.36 16.65 30.38 7.57.02 13.32-7.33 14.6-18.65 1.21-10.7-3.12-24.25-9.17-28.7-3.05-2.24-8.96-3-12.35-1.57m-1814.87.95c-7.73 3.25-12.24 10.06-14.23 21.53-2.16 12.41.71 30.88 6.61 42.45 9 17.67 26.1 17.12 33.15-1.07 1.36-3.5 1.72-7.66 1.72-19.93 0-14.32-.2-16.1-2.74-23.4-3.06-8.8-7.3-15.36-11.53-17.86-3.62-2.14-9.97-2.98-12.99-1.72m306.6.43c-6.76 2.37-9.66 5.54-13.29 14.55-3.57 8.86-4.54 25.73-2 34.5 4.42 15.2 12.44 23.5 22.68 23.5 3.94 0 11-4 12.72-7.22 1.96-3.66 1.22-52.33-.85-55.78-5.18-8.63-12.1-12.06-19.26-9.55m88.76-.44c-9.83 2.1-15.12 11.25-16.21 28.05-1.26 19.33 5.8 39.66 16.1 46.34 9.75 6.32 20.04.82 24.27-12.98 2.53-8.23 2.54-28.2.02-38-4.17-16.29-13.82-25.62-24.18-23.4m786.5.15c-9.6 2.71-15 14.15-15 31.77 0 16.37 6.16 34.75 13.73 40.99 6.89 5.68 14.75 5.36 20.97-.86 5-5 7.45-12.64 8.06-25.07 1.15-23.2-7.34-43.9-19.23-46.89a40 40 0 0 0-4.72-1.02zm544.38.7c-8.92 4.15-12.88 13.73-12.88 31.13 0 13.26 1.66 20.68 7.06 31.73 4.72 9.65 8.73 12.77 16.44 12.77 4.6 0 6.31-.5 9.2-2.7 7.13-5.44 10.47-17.87 9.5-35.3-1.54-27.42-14.77-44.4-29.32-37.63m258.9-.8c-4.6.95-7.73 3.26-11.05 8.16-3.51 5.18-3.85 6.07-5.74 15.12-1.9 9.16-1.88 15.82.09 24.34 2.72 11.74 8.29 19.98 15.82 23.4 5.3 2.41 8 2.38 13.28-.18 8.28-4 8.22-3.77 7.99-31.21-.23-27.5-.8-30.08-7.85-36.12-4.24-3.63-7.48-4.54-12.55-3.5m84.19.76c-9.44 4.38-12.97 12.88-12.94 31.16.03 14.19 1.61 21.68 6.76 31.9 4.13 8.21 8.97 12.23 15.51 12.85 8.3.8 13.69-3.52 17.8-14.25 1.56-4.09 1.9-7.56 1.87-19-.03-14.96-1.45-22.3-6.08-31.64-2.27-4.57-9.6-11.86-11.93-11.86-.66 0-2.5-.23-4.07-.52-1.72-.3-4.51.24-6.92 1.36m-1535.94 1.45c-4.18 2.36-8.74 9.85-10.05 16.48l-.64 3.28 17.82-.28 17.81-.27-.31-4.5c-.94-13.54-13.47-21.03-24.63-14.71m1109.84 4.64c-4.9 1.2-9.85 4.7-11.74 8.3-1.52 2.89-1.69 6.18-1.42 28.22l.3 24.95 4.3 3.27c8.54 6.52 16.78 6.55 23.18.07 8.59-8.7 13.1-27.56 9.98-41.74-3.53-16.06-13.82-25.7-24.6-23.07m-725.75 2a28 28 0 0 0-5.22 4.74c-2.29 2.8-2.32 3.16-2.35 28.4l-.04 25.56 2.75 2.5c5.34 4.86 8.54 6.28 14.29 6.33 4.75.03 6.1-.41 9.55-3.14 11.93-9.44 15.8-35.76 7.84-53.23-2.66-5.84-6.98-10.59-11.02-12.12-4.34-1.65-12.61-1.15-15.8.95m-688.75 27.33c-9.9 5.07-16.24 10.96-17.96 16.7-1.05 3.5-.98 4.95.47 9.55 3.61 11.47 13.66 12.62 24.66 2.82l2.97-2.65v-15.34c0-8.65-.4-15.33-.92-15.33-.5 0-4.65 1.91-9.22 4.25m1677.42.05c-12.93 6.6-18.28 12.81-18.28 21.2 0 7.84 5.64 14.49 12.29 14.5 3.19 0 10.14-3.24 13.46-6.29 2.15-1.97 2.25-2.75 2.25-17.88 0-8.7-.34-15.8-.75-15.78s-4.45 1.94-8.97 4.25m-1957.12 19.45c-10.6 15.57-24.52 22.08-40.2 18.81-12.8-2.67-21.6-8.5-27-17.93l-2.94-5.13-.01 12.74-.01 12.73 5.75 2.88c8.13 4.06 15.35 5.6 25.91 5.54 18.54-.12 31.4-7.78 43.07-25.7 4.52-6.93 4.9-9.69 1.34-9.69-1.3 0-3.35 1.98-5.91 5.75m1852.3 31.3c-6.98 11.07-5.86 17.25 4.05 22.24 8.8 4.43 25.66 4.69 36.04.55 13.34-5.32 16.9-19.28 5.95-23.27-1.64-.6-35.75-3.5-41.74-3.55-.95-.01-2.89 1.8-4.3 4.03"/></svg>