<?xml version="1.0" encoding="utf-8"?>
<svg xmlns="http://www.w3.org/2000/svg" aria-label="Ramírez Medellín, Contadores Públicos y Abogados" viewBox="0 0 3586 1135">
  <path fill="#9d9c9d" fill-rule="evenodd" d="M 976.35 45.27 C 977.59 50.21 980.01 73.4 980.97 89.5 C 985.02 157.64 976.32 227.58 955.53 294 C 945.2 326.99 928.88 365.22 913.47 392.5 C 909.74 399.1 905.7 406.3 904.5 408.5 C 899.24 418.1 879.09 447.73 869.7 459.7 C 850.3 484.42 819.3 517.5 800 534.12 C 779.93 551.39 754.51 570.04 733.07 583.24 C 716.97 593.15 677.23 613.1 660.77 619.53 C 653.77 622.26 648.03 624.78 648.02 625.13 C 648.01 625.48 649.46 626.31 651.25 626.98 L 656.5 628.95 C 657.6 629.37 663.23 631.17 669 632.95 C 674.194 634.542 679.361 636.219 684.5 637.98 C 692.657 640.791 701.014 642.983 709.5 644.54 C 713.9 645.38 718.4 646.47 719.5 646.96 C 721.6 647.89 735.68 650.41 760 654.19 C 773.4 656.28 777.8 656.45 818 656.45 C 859 656.45 861.99 656.33 870 654.33 C 874.67 653.16 880.84 652.15 883.7 652.08 C 886.57 652.02 894.22 650.84 900.7 649.46 C 906.457 648.23 912.224 647.047 918 645.91 C 923.8 644.81 939.43 640.63 944.5 638.81 C 946.15 638.22 950.2 636.97 953.5 636.03 C 960.06 634.16 962.82 633.22 964.78 632.18 C 967.41 630.79 990.91 576.91 999.45 552.7 C 1018.89 497.56 1031.72 440.35 1036.49 387.5 C 1041.54 331.54 1040.21 284.6 1031.93 226.58 C 1023.63 168.44 1006.83 108.8 984.98 60 C 982.841 55.287 980.787 50.537 978.82 45.75 C 977.6 42.45 975.54 42.05 976.35 45.27 M 112.72 572.29 C 107.9 581.61 104.42 588.22 86.29 622.5 C 77.226 639.719 68.062 656.886 58.8 674 C 56.86 677.58 53.23 684.33 50.74 689 C 48.25 693.67 40.48 708.08 33.48 721 C 26.48 733.92 18.03 749.67 14.71 756 C 11.544 762.032 8.317 768.033 5.03 774 C 3.03 777.58 1.11 781.26 0.75 782.2 C -0.35 785.09 36.74 821.08 62.5 842.1 C 87.2 862.28 118.24 883.42 147.13 899.76 C 209.73 935.17 275.83 957.8 348 968.53 C 391.33 974.98 452.9 975.77 497 970.43 C 554.318 963.617 610.281 948.196 663 924.69 C 682.06 916.19 706.33 903.66 721.93 894.27 C 734.43 886.75 759.04 871.07 760 870.02 C 760.27 869.72 762.86 867.7 765.75 865.53 C 767.561 864.23 769.313 862.848 771 861.39 C 771 861.29 768.9 861.83 766.34 862.59 C 763.429 863.424 760.426 863.898 757.4 864 C 755.04 864 752.88 864.39 752.59 864.86 C 752.3 865.33 749.23 866.25 745.78 866.9 L 734.5 869.03 C 731.75 869.55 725 870.43 719.5 871 C 714 871.56 705.9 872.46 701.5 873 C 691.38 874.22 655.8 876.21 642 876.33 C 629.13 876.44 586.07 874.4 584 873.58 C 583.17 873.25 577.77 872.57 572 872.06 C 557.65 870.79 548.3 869.35 536.5 866.58 C 531 865.28 522.23 863.48 517 862.58 C 507.76 860.98 499.81 858.94 487.5 855.04 C 484.058 853.958 480.551 853.096 477 852.46 C 474.52 852.08 472.05 851.46 471.5 851.06 C 470.22 850.14 462.34 847.38 458.66 846.56 C 457.09 846.2 453.52 844.81 450.72 843.46 C 447.92 842.11 444.92 841 444.05 841 C 443.18 841 440.79 840.1 438.74 839 C 436.69 837.9 434.24 837 433.32 837 C 432.39 837 429.8 836.16 427.57 835.14 C 425.33 834.11 418.77 831.14 413 828.52 C 408.901 826.682 404.82 824.802 400.76 822.88 C 399.828 822.389 398.809 822.086 397.76 821.99 C 397.06 821.99 395.15 821.25 393.5 820.34 C 387.521 817.19 381.521 814.08 375.5 811.01 C 354.06 800.01 340.96 792.35 322.46 780 C 319.848 778.326 317.205 776.702 314.53 775.13 C 311.41 773.28 308.62 771.16 308.33 770.43 C 308.05 769.68 306.89 768.78 305.77 768.43 C 302.62 767.43 288 755.93 288 754.46 C 288 753.74 286.71 752.88 285.14 752.53 C 283.57 752.18 280.98 750.53 279.39 748.86 C 277.765 747.165 275.926 745.689 273.92 744.47 C 271.56 743.24 268.43 740.83 259.26 733.2 C 257.49 731.71 255.76 729.71 255.45 728.75 C 255.14 727.79 254.24 727 253.46 727 C 252.69 727 249.69 724.7 246.78 721.87 C 243.88 719.05 239.48 715.11 237.03 713.12 C 230.83 708.1 206.87 683.48 196 670.96 C 193.824 668.425 191.542 665.983 189.16 663.64 C 187.88 662.46 183.88 657.79 180.28 653.25 C 176.68 648.71 173.45 645 173.1 645 C 172.59 645 164.26 633.23 160.48 627.15 C 159.91 626.25 158.34 624.21 156.98 622.65 C 149.53 614.05 148.21 612.31 147.6 610.35 C 147.23 609.15 146.27 607.93 145.46 607.62 C 144.66 607.32 144 606.6 144 606.04 C 144 605.48 142.43 602.95 140.5 600.44 C 138.57 597.91 137 595.44 137 594.94 C 137 594.44 134.97 591.06 132.5 587.44 C 130.03 583.84 128 580.16 128 579.29 C 128 578.42 127.03 576.76 125.85 575.61 C 124.67 574.46 122.3 571.16 120.58 568.29 L 117.47 563.08 L 112.72 572.29 Z"/>
  <path fill="#07376d" fill-rule="evenodd" d="M296 139.05c-28.06 7.59-37.53 10.16-40.75 11.05-5.37 1.49-9.2 2.53-21.25 5.79-13.93 3.76-25.36 6.87-55.5 15.08-41.14 11.2-53.1 14.47-84.5 23.09-10.17 2.8-24.35 6.64-31.5 8.56-7.15 1.91-13.9 3.84-15 4.28s-5.6 1.68-10 2.75l-8 1.94.14 26.96c.34 66.12 12.57 139.33 33.4 199.95 13.63 39.67 32.1 81.86 48.66 111.15 3.46 6.13 6.3 11.84 6.3 12.68 0 2.16 6.85 13.4 8.57 14.06.79.3 1.43 1.43 1.43 2.51 0 1.09 2.03 4.93 4.5 8.55 2.47 3.61 4.5 6.98 4.5 7.48s1.49 2.86 3.3 5.24 3.6 5.12 3.97 6.08 1.1 1.75 1.63 1.75 1.28 1.01 1.66 2.25c.64 2.05 1.95 3.77 9.42 12.4a48 48 0 0 1 3.5 4.5c3.78 6.08 12.1 17.85 12.63 17.85.34 0 3.57 3.71 7.17 8.25s7.6 9.21 8.88 10.39 4.37 4.47 6.84 7.32c10.87 12.52 34.83 37.14 41.03 42.16 2.46 2 6.85 5.93 9.75 8.75s5.91 5.13 6.68 5.13c.78 0 1.67.79 1.99 1.75s2.04 2.96 3.81 4.45c9.17 7.63 12.3 10.04 14.66 11.27a26 26 0 0 1 5.47 4.4c1.59 1.66 4.18 3.31 5.75 3.66s2.86 1.22 2.86 1.93c0 1.47 14.62 12.97 17.76 13.97 1.13.35 2.29 1.25 2.57 2 .29.73 3.07 2.85 6.2 4.7a240 240 0 0 1 7.93 4.87c18.5 12.35 31.6 20 53.04 31a1505 1505 0 0 1 18 9.34c1.65.9 3.57 1.65 4.26 1.65.7 0 2.05.4 3 .9.96.48 6.47 3.02 12.24 5.63l14.57 6.62c2.23 1.02 4.82 1.86 5.75 1.86s3.37.9 5.42 2 4.44 2 5.3 2c.88 0 3.88 1.1 6.68 2.46s6.37 2.74 7.94 3.1c3.68.82 11.56 3.58 12.84 4.5.55.4 3.02 1.02 5.5 1.4s7.2 1.53 10.5 2.58c12.31 3.9 20.26 5.94 29.5 7.54 5.23.9 14 2.7 19.5 4 11.8 2.77 21.15 4.21 35.5 5.48 5.77.5 11.17 1.2 12 1.52 2.07.82 45.13 2.86 58 2.75 13.8-.12 49.38-2.12 59.5-3.34 4.4-.53 12.5-1.43 18-1.99s12.25-1.45 15-1.97l11.28-2.13c3.45-.65 6.52-1.57 6.8-2.04.3-.47 2.65-.87 5.23-.9 2.58-.01 7.17-.92 10.19-2.01 8.06-2.92 17-5.68 21-6.48 3.72-.75 34.76-10.27 41.5-12.73 16.5-6.02 23.5-8.7 25.12-9.62a161 161 0 0 1 10.44-4.5c18.85-7.6 68.82-33.18 69.77-35.73.19-.49.83-.89 1.43-.89 4.3 0 59.46-38.41 78.09-54.38 2.83-2.43 7.17-6.1 9.65-8.13 21.66-17.88 55.76-52.83 76.09-77.99 4-4.95 7.52-9.23 7.84-9.5 1.03-.9 12.65-16.4 16.1-21.48a129 129 0 0 1 4.64-6.5c3.3-3.97 25.01-36.75 28.5-43.02l10.03-18c7.79-13.98 16.15-30.19 19.62-38l4.67-10.5c3.72-8.34 14.88-36.69 17.44-44.3 2-5.93 2.04-8.2.13-8.2-.45 0-2.78 2.59-5.18 5.75-22.8 30.02-50.92 59.53-80.38 84.37-25.39 21.4-57.68 43.66-84 57.92-28.38 15.36-67.98 32.6-75.24 32.76-1.78.04-3.8.43-4.5.86-.7.44-3.96 1.54-7.26 2.44s-7.35 2.12-9 2.71c-5.07 1.82-20.7 6-26.5 7.1-3.02.58-10.8 2.17-17.3 3.55-6.48 1.38-14.13 2.56-17 2.63s-9.03 1.07-13.7 2.24c-8.01 2-11 2.12-52 2.12-40.2 0-44.6-.17-58-2.26-24.32-3.78-38.4-6.3-40.5-7.23-1.1-.49-5.6-1.58-10-2.42a172 172 0 0 1-25-6.56 500 500 0 0 0-15.5-5.03c-12.18-3.76-13.24-4.13-18.23-6.29-2.05-.88-4.35-1.38-5.1-1.09-1.52.59-18.8-6.29-34.43-13.7-18.74-8.87-51.88-28.18-67.37-39.22-3.2-2.28-8.37-5.95-11.49-8.15s-6.17-4.45-6.78-5c-.6-.55-2.75-2.23-4.76-3.74a79 79 0 0 1-5-4c-.74-.7-3.4-2.84-5.93-4.76-13.16-10.05-39.43-34.94-54.7-51.84a735 735 0 0 1-28.82-34.73c-9.63-12.68-9.66-12.73-17.42-24.43-3.82-5.77-7.4-11.18-7.96-12-4.79-7.1-15.77-25.55-18.77-31.5-2.2-4.38-11.24-21.8-12.96-25-4.25-7.89-17.16-39.4-23.77-58-17.45-49.15-28.79-107.04-31.34-159.99-.54-11.33-.96-14.02-2.17-14.19-.82-.1-8.02 1.57-16 3.73"/>
  <path fill="#5e5e5f" fill-rule="evenodd" d="M 1253 11.8 L 1251.572 23.887 L 1263.03 26.37 C 1285.33 32.34 1292.07 37.77 1294.83 52 C 1295.57 55.74 1295.99 109.47 1296.17 219.5 L 1296.42 381.5 L 1294.16 386.5 C 1292.91 389.25 1290.68 392.78 1289.2 394.34 C 1284.01 399.81 1272.84 404.09 1259.42 405.77 L 1253.5 406.51 L 1253.22 419.73 L 1252.734 433.088 L 1332.98 432.95 C 1377 432.94 1413.69 432.67 1414.51 432.35 C 1415.71 431.89 1416 429.45 1416 419.39 L 1416 407 L 1411.75 407 C 1399.99 406.98 1380.21 402.46 1373 398.14 C 1368.77 395.6 1363.91 390.67 1362 386.97 C 1358.31 379.81 1358 373.41 1358 304.3 L 1358 236.96 L 1379.2 237.23 L 1400.4 237.5 L 1404.54 243 C 1416.77 259.23 1471.24 340.25 1488.92 368.5 C 1492.36 374 1499.62 385.48 1505.05 394 C 1510.48 402.52 1515.99 411.3 1517.31 413.5 C 1524.43 425.41 1528.41 431.58 1529.39 432.22 C 1530.73 433.09 1706.55 433.24 1709.75 432.37 C 1711.87 431.8 1712 431.25 1712 422.98 L 1712 414.2 L 1705.75 413.54 C 1695.61 412.48 1683.77 409.91 1679.88 407.94 C 1675.38 405.64 1671.38 401 1670.51 397.05 C 1668.98 390.07 1673.58 372.03 1685.07 340 C 1687.079 334.454 1688.97 328.866 1690.74 323.24 L 1692.28 317.98 L 1743.36 318.24 L 1794.44 318.5 L 1797.68 327.5 C 1799.46 332.45 1803.46 343.48 1806.57 352 C 1817.65 382.37 1823 398.15 1823 400.5 C 1823 401.82 1821.99 404 1820.75 405.35 C 1817.41 409 1810.45 410.84 1789.75 413.51 L 1785 414.12 L 1785 422.95 C 1785 429.85 1785.33 431.91 1786.49 432.35 C 1788.51 433.13 2017.37 433.18 2019.39 432.4 C 2020.71 431.9 2021 430.12 2021 422.54 L 2021 413.29 L 2014.13 412.16 C 2005.05 410.66 1994.63 407.05 1988.72 403.36 C 1979.74 397.74 1975.69 390.49 1970.91 371.5 C 1969.95 367.67 1969.58 340.88 1969.36 257 C 1969.06 137.87 1968.7 144.62 1974.36 160.5 C 1975.74 164.35 1980.3 177.63 1984.51 190 C 1991.663 211.232 1999.006 232.4 2006.54 253.5 C 2008.92 260.1 2014.1 274.73 2018.04 286 C 2021.98 297.27 2027.69 313.48 2030.72 322 C 2039.13 345.69 2045.68 364.23 2050.5 378 C 2052.9 384.88 2056.72 395.68 2058.99 402 C 2061.104 407.888 2063.138 413.806 2065.09 419.75 L 2067.08 426 L 2082.54 426 L 2084.18 420.75 C 2086.03 414.82 2103.24 367.37 2105.48 362 C 2106.95 358.5 2124.33 312.1 2136.58 279 C 2140.14 269.38 2143.53 260.38 2144.12 259 C 2144.72 257.63 2150.12 243.22 2156.12 227 C 2162.12 210.78 2168.8 192.78 2170.95 187 C 2172.583 182.702 2174.116 178.368 2175.55 174 C 2175.92 172.63 2177.25 169.25 2178.47 166.5 C 2179.7 163.75 2181.48 159.14 2182.43 156.25 C 2183.38 153.36 2184.29 151 2184.45 151 C 2185.08 151 2184.1 392.11 2183.46 394.23 C 2181.83 399.65 2179.6 403 2176.08 405.33 C 2170.7 408.89 2160.01 411.81 2149 412.72 L 2139.5 413.5 L 2139.21 422.7 L 2138.93 431.9 L 2142.21 432.48 C 2144.02 432.81 2174.3 432.94 2209.5 432.78 L 2273.5 432.5 L 2273.5 413.5 L 2265.5 412.73 C 2247.38 410.98 2236.97 404.68 2233.26 393.23 C 2231.09 386.54 2230.76 353.12 2231.73 240 L 2232.53 146.5 L 2234.76 142.3 C 2238.93 134.44 2248.11 129.81 2263.75 127.68 L 2272 126.56 L 2272 107.98 L 2222.28 108.24 L 2172.55 108.5 L 2169.91 118.5 C 2166.86 130.03 2163.8 138.92 2147.03 185 C 2141.626 199.814 2136.276 214.647 2130.98 229.5 C 2128.85 235.55 2125.78 244.1 2124.14 248.5 C 2122.5 252.9 2115.21 272.7 2107.94 292.5 C 2101.802 309.355 2095.568 326.175 2089.24 342.96 C 2088.36 345.26 2088.18 345.05 2086.51 339.96 C 2081.346 325.274 2076.089 310.62 2070.74 296 C 2064.912 280.024 2059.152 264.024 2053.46 248 C 2051.66 242.78 2048.38 233.55 2046.19 227.5 C 2040.562 212.017 2034.982 196.517 2029.45 181 C 2024.55 167.18 2019.53 153.28 2006.67 118 L 2003.21 108.5 L 1897.71 108.5 L 1897.65 116.93 L 1897.59 125.36 L 1905.55 127.09 C 1924.37 131.16 1934.32 137.64 1939.22 148.99 C 1944.17 160.45 1944.24 161.79 1944.72 253.82 C 1945.26 361.22 1944.37 378.78 1937.58 393.6 C 1934.15 401.09 1927.22 405.75 1913.15 410.02 C 1904.26 412.72 1899.49 412.29 1890.86 408.02 C 1878.79 402.02 1873.96 396.43 1867.35 380.8 C 1862.32 368.92 1852.89 344.09 1841.6 313 C 1838.5 304.48 1835.1 295.25 1834.04 292.5 C 1830.288 282.519 1826.588 272.519 1822.94 262.5 C 1819.091 251.993 1815.224 241.493 1811.34 231 C 1810.01 227.43 1806.88 218.88 1804.4 212 C 1798.169 194.809 1791.872 177.643 1785.51 160.5 C 1783.67 155.55 1778.73 142.05 1774.54 130.5 C 1770.35 118.95 1766.37 108.44 1765.7 107.14 C 1764.57 104.92 1763.99 104.79 1755.25 104.85 C 1750.16 104.89 1745.55 104.93 1745 104.95 C 1744.45 104.97 1744 105.56 1744 106.25 C 1744 107.44 1741.55 114.38 1719.98 174 C 1715.456 186.489 1710.963 198.989 1706.5 211.5 C 1704.17 218.1 1696.18 240.15 1688.75 260.5 C 1683.439 274.971 1678.209 289.471 1673.06 304 C 1671.86 307.57 1670.46 311.4 1669.96 312.5 C 1669.46 313.6 1666.8 320.69 1664.03 328.25 C 1652.18 360.65 1648.67 369.85 1645.92 375.82 C 1644.855 378.016 1643.881 380.254 1643 382.53 C 1643 382.75 1640.92 386.35 1638.38 390.53 C 1633.28 398.93 1625.47 406 1621.28 406 C 1616.5 406 1600.58 399.77 1593.58 395.16 C 1583.58 388.56 1575.18 380.33 1563.84 366.02 C 1560.267 361.534 1556.723 357.024 1553.21 352.49 C 1551.71 350.36 1543.97 339.05 1537.15 329 L 1528.99 317 C 1519.998 303.389 1510.84 289.888 1501.52 276.5 C 1498.86 272.65 1493.3 264.55 1489.16 258.5 C 1483.743 250.618 1478.256 242.784 1472.7 235 C 1467.78 228.13 1463.58 222.05 1463.37 221.5 C 1463.17 220.95 1467.97 218.76 1474.07 216.63 C 1508.62 204.58 1532.02 186 1545.49 159.91 C 1554.23 142.98 1557.41 128.88 1557.39 107 C 1557.37 75.9 1548.85 52.9 1530.52 34.41 C 1514.65 18.41 1496.77 9.37 1467.8 2.73 C 1458.69 0.64 1456.42 0.6 1355.75 0.26 L 1253 -0.08 L 1253 11.8 Z M 1358 116.9 L 1358 208 L 1378.75 208 C 1401.56 208 1412.45 206.7 1426.17 202.4 C 1457.57 192.57 1478.1 169.12 1485.22 135 C 1488.02 121.59 1487.3 98.9 1483.62 84.5 C 1476.25 55.72 1459.37 37.87 1431.5 29.4 C 1422.65 26.7 1421.95 26.65 1390.25 26.24 L 1358 25.8 L 1358 116.9 Z M 2296 117.36 L 2296 126.73 L 2301.15 127.42 C 2310.11 128.6 2323.23 132.07 2328.1 134.54 C 2333.7 137.38 2336.59 140.78 2338.13 146.37 C 2338.95 149.34 2339.3 184.22 2339.39 270.99 C 2339.49 385.12 2339.4 391.77 2337.68 396.71 C 2335.54 402.84 2332.09 406.06 2324.69 408.83 C 2319.58 410.75 2308.53 412.65 2299 413.26 L 2294.5 413.55 L 2294.2 422.43 C 2294 428.81 2294.28 431.54 2295.19 432.11 C 2296.64 433.01 2413.72 433.21 2424.68 432.34 L 2431.85 431.77 L 2432.21 424.13 C 2432.66 414.56 2431.98 412.99 2427.41 412.99 C 2421.74 412.99 2410.21 410.95 2404.22 408.89 C 2396.76 406.33 2392.19 402.63 2389.63 397.09 L 2387.5 392.49 L 2387.19 273.49 C 2386.86 147.84 2386.89 147.03 2391.44 139.99 C 2395.13 134.29 2405.18 130.34 2422.89 127.65 L 2430.5 126.49 L 2431 117.65 C 2431.28 112.79 2431.31 108.63 2431.08 108.4 C 2430.85 108.18 2400.37 107.99 2363.33 107.99 L 2296 107.99 L 2296 117.36 Z M 2456 117.26 L 2456 126.72 L 2460.74 127.37 C 2468.42 128.42 2478.1 131.02 2484 133.62 C 2490.68 136.56 2493.46 140.32 2494.93 148.42 C 2495.65 152.44 2496 192.94 2496 273.56 C 2496 406.05 2496.3 399.88 2489.47 405.89 C 2485.65 409.24 2474.14 412.51 2462.71 413.49 L 2454.93 414.17 L 2455.21 423.33 L 2455.5 432.49 L 2585.5 432.49 L 2585.79 422.74 L 2586.07 412.99 L 2580.79 412.98 C 2574.33 412.96 2558.41 409.78 2554.42 407.7 C 2550.47 405.65 2547.46 402.26 2545.3 397.48 C 2543.65 393.83 2543.47 388.93 2543.2 339.74 L 2542.89 285.99 L 2573.77 285.99 L 2579.23 292.74 C 2588.11 303.71 2608.51 333.77 2628.94 365.99 L 2638.5 380.99 C 2645.31 391.55 2664.05 422.16 2665.84 425.68 C 2666.99 427.93 2668.66 430.5 2669.54 431.39 C 2671.01 432.86 2685.64 432.99 2833.83 432.97 C 2923.3 432.96 2997.01 432.62 2997.63 432.22 C 2998.27 431.8 2999.06 426.96 2999.45 420.99 C 3000.53 404.59 3002.8 375.29 3004.58 354.74 C 3005.48 344.42 3006 335.42 3005.74 334.74 C 3005.39 333.84 3002.89 333.58 2996.87 333.81 L 2988.47 334.12 L 2985.05 342.81 C 2980.65 354.01 2969.3 376.95 2963.87 385.68 C 2954.6 400.56 2950.38 403.89 2936.29 407.48 C 2924.04 410.61 2880.15 412.09 2864.32 409.91 C 2851.18 408.11 2842.68 402.85 2838.58 393.99 C 2836.56 389.62 2836.49 387.83 2836.21 331.74 L 2835.92 273.99 L 2855.22 273.99 C 2865.82 274 2877.42 274.48 2881 275.05 C 2892.73 276.93 2901.98 282.8 2907.78 292.02 C 2911.76 298.36 2912.91 301.52 2916.41 315.82 L 2919.51 328.49 L 2936.36 328.49 L 2936.43 264.71 L 2936.5 200.92 L 2927.5 201.21 L 2918.5 201.49 L 2916.9 208.99 C 2911.76 233.22 2904.05 244.87 2889.7 250.1 C 2884.07 252.14 2881.3 252.39 2859.75 252.75 L 2836 253.15 L 2836 130 L 2873.86 130 C 2895.44 130 2914.04 130.44 2917.11 131.02 C 2924.86 132.49 2933.88 137.02 2939.15 142.1 C 2946.7 149.38 2956.87 166.21 2962.51 180.75 L 2965.31 188 L 2982.02 188 L 2981.76 148.25 L 2981.5 108.5 L 2747.5 108.5 L 2747.5 126.36 L 2758.5 128.59 C 2776.36 132.21 2783.38 136.24 2786.68 144.78 C 2788.41 149.25 2788.5 155.88 2788.5 271.5 L 2788.5 393.5 L 2786.37 398.1 C 2782.43 406.62 2775.85 409.8 2756.67 412.5 C 2746.24 413.96 2746.06 413.95 2737.44 411.45 C 2731.953 409.773 2726.652 407.538 2721.62 404.78 C 2709.27 397.57 2705.51 393.32 2682.34 360.5 C 2671.34 344.92 2665.13 335.9 2643.8 304.5 C 2639.072 297.551 2634.325 290.614 2629.56 283.69 C 2625.84 278.29 2622.96 273.75 2623.15 273.6 C 2623.35 273.45 2627.65 271.86 2632.72 270.05 C 2661.34 259.88 2681.82 239.53 2690.16 212.96 C 2692.23 206.36 2692.5 203.56 2692.49 188.5 C 2692.48 173.78 2692.17 170.44 2690.19 163.54 C 2686.52 150.81 2681.69 142.57 2672.52 133.42 C 2660.21 121.12 2647.76 115 2626.5 110.76 C 2617.15 108.9 2611.25 108.74 2536.25 108.3 L 2456 107.82 L 2456 117.26 Z M 3033.79 108.79 C 3025.99 109.13 3026.88 107.3 3025 126.99 C 3024.4 133.31 3022.8 148.62 3021.44 160.99 C 3018.22 190.41 3017.29 200.95 3017.86 201.52 C 3018.12 201.78 3022.26 201.99 3027.08 201.99 L 3035.82 201.99 L 3038.56 194.74 C 3044.17 179.89 3053.72 162.94 3062.19 152.78 C 3067.2 146.77 3076.82 139.49 3084.5 135.88 C 3097.28 129.88 3098.32 129.78 3148.25 129.63 C 3173.41 129.55 3194 129.58 3194 129.69 C 3194 130.78 3191.49 134.99 3190.84 134.99 C 3190.38 134.99 3190 135.43 3190 135.96 C 3190 136.93 3180.68 151.63 3170.98 165.99 C 3168.18 170.12 3162.84 178.21 3159.08 183.99 C 3149.38 198.94 3124.23 237.46 3108.18 261.99 C 3102.96 269.97 3095.77 280.99 3092.2 286.49 C 3077.96 308.41 3072.8 316.33 3059.61 336.49 C 3052.06 348.04 3040.01 366.49 3032.84 377.49 C 3025.67 388.49 3016.81 402.04 3013.15 407.61 L 3006.5 417.73 L 3006.83 424.76 C 3007.16 431.79 3007.16 431.8 3010.33 432.36 C 3016.03 433.36 3247.92 432.93 3248.55 431.91 C 3248.87 431.39 3249.76 425.45 3250.52 418.72 C 3253.82 389.55 3257.15 361.38 3259.01 346.89 C 3261.84 324.71 3262.65 326.99 3251.91 326.99 L 3242.83 326.99 L 3241.69 330.24 C 3240.42 333.84 3228.99 356.64 3224.51 364.49 C 3214.07 382.81 3203.04 396.77 3195.66 401.03 C 3180.67 409.68 3166.89 411.24 3109.27 410.81 L 3066.05 410.49 L 3073.2 399.49 C 3077.14 393.44 3086.04 379.72 3092.99 368.99 C 3111.14 340.96 3122.24 323.86 3132.5 308.13 C 3137.45 300.54 3144.43 289.74 3148 284.13 C 3151.57 278.52 3161.7 262.93 3170.5 249.49 C 3179.3 236.05 3188.73 221.55 3191.46 217.27 C 3200.747 202.807 3210.09 188.38 3219.49 173.99 C 3221.83 170.42 3226.79 162.77 3230.54 156.99 C 3234.28 151.21 3241.09 140.79 3245.67 133.8 C 3253.99 121.13 3254 121.1 3254 114.52 L 3254 107.92 L 3147.25 108.2 C 3088.54 108.36 3037.48 108.62 3033.79 108.79 M 2543.75 129.53 C 2543.34 129.97 2543 160.45 2543 197.26 L 2543 264.19 L 2563.25 263.73 C 2581.01 263.33 2584.55 262.96 2592.02 260.79 C 2596.71 259.42 2601.66 257.72 2603.02 257.01 C 2619.68 248.29 2632.17 233.11 2637.18 215.54 C 2640.23 204.85 2640.48 181.16 2637.65 170.99 C 2633.36 155.59 2624.85 143.97 2612.85 137.17 C 2602.66 131.38 2594.4 129.93 2568 129.3 C 2555.07 129 2544.16 129.1 2543.75 129.53 M 1738.04 189.73 C 1735.68 196.75 1729.05 215.54 1723.3 231.49 C 1708.68 272.03 1701 294.13 1701 295.67 C 1701 296.74 1709 296.99 1743.5 296.99 C 1766.88 296.99 1786 296.88 1785.99 296.74 C 1785.93 295.31 1782.69 286.22 1771.99 257.45 C 1767.103 244.314 1762.263 231.16 1757.47 217.99 C 1746.88 188.74 1742.77 177.5 1742.54 177.23 C 1742.42 177.09 1740.39 182.71 1738.04 189.73 M 1253 476 C 1253 485.95 1251.877 490.582 1252.587 490.582 C 1253.167 490.582 1258.55 492.58 1262.72 494.5 C 1275.72 500.51 1281.79 508.68 1286.12 526 L 1288.5 535.5 L 1288.5 669.5 C 1288.5 810.35 1288.27 818.8 1284 835.53 C 1279.89 851.57 1274.98 856.73 1258.25 862.56 L 1252.198 864.173 L 1253 894 L 1321.25 893.75 L 1389.5 893.49 L 1389.78 882.39 C 1389.98 874.29 1389.72 871 1388.78 870.24 C 1388.08 869.66 1383.55 868.45 1378.73 867.55 C 1359.08 863.89 1344.2 857.35 1337 849.22 C 1329.36 840.6 1326.21 830.82 1323.34 806.78 C 1321.82 794.1 1321.59 776.98 1321.28 654.82 C 1321.07 571.76 1321.29 516.92 1321.85 516.58 C 1322.35 516.28 1323.24 517.25 1323.82 518.75 L 1328.31 530.49 C 1330.21 535.44 1333.35 544.23 1335.3 550.03 C 1337.25 555.83 1341.54 567.98 1344.85 577.03 C 1348.15 586.08 1354.52 603.84 1358.99 616.49 L 1373.51 657.49 C 1387.085 695.8 1400.595 734.134 1414.04 772.49 C 1420.21 790.09 1426.6 808.09 1428.25 812.49 C 1429.9 816.89 1433.88 828.14 1437.08 837.49 C 1440.28 846.84 1445.34 861.47 1448.34 869.99 L 1453.78 885.49 L 1472.18 885.49 L 1479.64 864.49 C 1483.74 852.94 1488.63 839.44 1490.49 834.49 C 1496.79 817.73 1519.12 757.56 1523.15 746.49 C 1525.35 740.44 1527.61 734.37 1528.18 732.99 C 1528.74 731.62 1532.71 720.82 1537 708.99 C 1550.266 672.298 1563.603 635.631 1577.01 598.99 C 1584.944 577.736 1592.661 556.402 1600.16 534.99 C 1603.49 525.37 1606.63 517.05 1607.14 516.51 C 1607.69 515.92 1607.94 579.64 1607.77 678.01 C 1607.5 830.91 1607.38 840.8 1605.7 845.75 C 1601.22 858.97 1590.08 864.48 1559.22 868.78 C 1552.47 869.72 1546.96 870.83 1546.97 871.24 C 1546.99 871.65 1547 876.94 1547 882.99 L 1547 893.99 L 1726 893.99 L 1726 882.99 C 1726 876.94 1725.94 871.65 1725.87 871.24 C 1725.8 870.83 1720.07 869.29 1713.12 867.83 C 1682.41 861.35 1673.74 855.27 1670.95 838.23 C 1669.56 829.74 1669.7 525.83 1671.09 516.83 C 1672.92 505.07 1676.43 499.16 1684.36 494.53 C 1688.69 492 1704.09 487.61 1712.25 486.59 L 1721.27 485.46 L 1725.54 484.94 L 1725.55 472.96 L 1725.56 460.99 L 1593.16 460.99 L 1592.5 464.24 C 1591.19 470.69 1584.71 491.86 1578.52 509.99 C 1564.98 549.265 1551.14 588.436 1537 627.5 C 1533.58 636.85 1527.95 652.6 1524.47 662.5 C 1520.99 672.4 1514.81 689.73 1510.72 701 C 1506.63 712.27 1498.4 735.09 1492.42 751.7 C 1486.45 768.31 1481.35 781.7 1481.09 781.44 C 1480.83 781.18 1479.18 776.82 1477.39 771.74 C 1469.975 750.789 1462.455 729.875 1454.83 709 C 1451.51 699.92 1445.48 683.05 1441.43 671.5 C 1436.975 658.821 1432.485 646.154 1427.96 633.5 C 1424.6 624.15 1420.15 611.55 1418.06 605.5 C 1415.97 599.45 1410.8 584.83 1406.56 573 C 1396.708 545.515 1386.898 518.015 1377.13 490.5 C 1374.566 483.238 1371.969 475.988 1369.34 468.75 L 1366.5 461 L 1253 461 L 1253 476 Z M 1752 579.96 L 1752 588.91 L 1755.75 589.54 C 1757.81 589.9 1763.23 591.04 1767.8 592.08 C 1784.17 595.84 1790.38 600.14 1793.67 610 C 1795.4 615.2 1795.5 621.79 1795.48 734.5 C 1795.48 827.34 1795.19 854.42 1794.21 857.7 C 1791.01 868.38 1782.26 872.8 1760.45 874.78 L 1752.5 875.5 L 1752.21 884.75 L 1751.92 894 L 2004.62 894 L 2006.4 867.75 C 2007.38 853.31 2008.96 831.6 2009.91 819.5 C 2010.86 807.4 2011.38 797.2 2011.07 796.83 C 2010.76 796.46 2006.94 796.03 2002.59 795.85 C 1995.47 795.57 1994.61 795.73 1993.93 797.52 C 1986.06 818.05 1979.53 832.35 1971.73 846.14 C 1962.19 863.02 1958.43 866.15 1943.5 869.64 C 1936.5 871.27 1931.15 871.5 1901 871.5 C 1870.1 871.5 1865.91 871.3 1860.85 869.64 C 1850.18 866.14 1844.65 858.93 1842.9 846.22 C 1842.4 842.52 1842.1 816.15 1842.24 787.62 L 1842.5 735.74 L 1865.5 735.78 C 1891.03 735.83 1895.2 736.6 1904.45 742.97 C 1914.35 749.78 1918.21 758.16 1924.94 787.5 L 1925.63 790.5 L 1942.5 790.5 L 1942.76 726.25 L 1943.02 662 L 1925.18 662 L 1924.49 666.25 C 1922.09 681.17 1915.69 696.98 1909.57 703.1 C 1904.34 708.169 1897.731 711.581 1890.57 712.91 C 1887.3 713.51 1875.04 714 1863.32 714 L 1842 714 L 1842 593 L 1882.25 593.01 C 1912.63 593.02 1923.73 593.35 1927.5 594.36 C 1944.53 598.91 1955.58 612.18 1969.84 645.25 L 1971.89 650 L 1978.86 650 C 1982.7 650 1986.44 649.77 1987.16 649.49 C 1988.26 649.07 1988.45 641.73 1988.23 609.99 L 1987.95 571 L 1752 571 L 1752 579.96 Z M 2027 579.93 L 2027 588.86 L 2032.75 589.98 C 2044.3 592.23 2056.53 596.16 2059.83 598.68 C 2066.95 604.12 2066.47 594.84 2066.79 732 C 2067 824.15 2066.78 856.58 2065.91 859.76 C 2063.51 868.433 2053.81 873.42 2036.81 874.72 L 2026.5 875.5 L 2026.5 884.5 L 2026.52 893.5 L 2100.51 893.49 C 2166.92 893.48 2175.51 893.29 2184.46 891.7 C 2229.72 883.64 2261.02 866.22 2286.34 835 C 2302.14 815.5 2313.21 788.6 2317.18 760 C 2319.08 746.3 2318.74 712.18 2316.58 699.5 C 2314.28 686.02 2307.94 665.02 2303.1 654.83 C 2281.57 609.57 2239.6 580.52 2184.32 572.6 C 2174.88 571.25 2161.74 571 2100.07 571 L 2027 571 L 2027 579.93 Z M 2337.21 580.18 L 2337.5 589.38 L 2344.76 590.59 C 2353.88 592.12 2365.08 595.49 2370.98 598.49 C 2375.91 600.99 2379.34 605.96 2380.32 612 C 2380.64 613.92 2381.02 669.73 2381.18 736 L 2381.47 856.5 L 2379.14 861.26 C 2375.26 869.2 2366.41 872.84 2346.75 874.59 L 2339 875.28 L 2339 894 L 2591.71 894 L 2592.35 886.25 C 2592.7 881.99 2593.45 871.52 2594.02 863 C 2594.59 854.48 2595.96 836.08 2597.06 822.12 C 2598.16 808.16 2598.84 796.5 2598.56 796.22 C 2598.28 795.94 2594.35 795.72 2589.83 795.72 L 2581.61 795.72 L 2576.43 808.27 C 2565.92 833.71 2554.32 855.5 2548.2 861.27 C 2541.02 868.05 2531.35 870.7 2509.5 871.86 C 2491.46 872.81 2454.06 871.8 2449.5 870.23 C 2442.22 867.73 2438.98 865.8 2435.78 862.05 C 2429.48 854.69 2429.61 856.08 2429.25 793.25 L 2428.92 736 L 2452 736 C 2472.73 736 2475.7 736.21 2481.25 738.08 C 2495.05 742.73 2502.21 751.25 2507.38 769.19 C 2508.7 773.76 2510.08 779.77 2510.46 782.55 C 2510.84 785.33 2511.46 788.11 2511.84 788.73 C 2512.25 789.4 2516.02 789.95 2521.03 790.09 L 2529.51 790.31 L 2529.51 662.5 L 2520.92 662.21 L 2512.34 661.93 L 2510.64 670.6 C 2507.16 688.29 2500.62 700.73 2491.5 707 C 2482.86 712.95 2480.77 713.32 2453.76 713.77 L 2429.01 714.17 L 2429.01 654.6 C 2429.01 621.83 2428.9 594.67 2428.76 594.26 C 2428.62 593.85 2445.83 593.38 2467.01 593.21 C 2506.79 592.91 2513.37 593.36 2521.69 597.01 C 2532.72 601.84 2546.23 619.49 2554.93 640.45 C 2558.36 648.7 2558.93 649.5 2561.35 649.45 L 2570.01 649.2 L 2576.01 649.01 L 2576.01 571.01 L 2336.94 571.01 L 2337.21 580.18 Z M 2613 579.86 L 2613 588.74 L 2619.25 589.92 C 2635.27 592.95 2646.43 597.48 2649.7 602.28 C 2651.168 604.67 2652.254 607.275 2652.92 610 C 2654.44 616.64 2654.38 855.56 2652.86 860.1 C 2649.87 869.03 2641.07 873.22 2621.96 874.8 L 2613.5 875.5 L 2613.21 884.75 L 2612.93 894 L 2851.53 894 L 2853.83 863.75 C 2855.09 847.11 2856.97 825.2 2858.01 815.07 C 2859.05 804.94 2859.66 796.27 2859.39 795.82 C 2859.11 795.37 2855.08 795 2850.43 795 L 2841.97 795 L 2839.83 799.75 C 2818.93 845.92 2806.97 863.5 2792.83 868.79 C 2784.23 872.01 2769.34 873.27 2745.7 872.79 C 2727.17 872.4 2723.76 872.08 2718.58 870.19 C 2708.7 866.59 2703.82 860.19 2702.01 848.49 C 2701.28 843.71 2701.03 804.79 2701.21 725.5 C 2701.48 616.35 2701.61 609.26 2703.3 605.51 C 2705.85 599.86 2708.59 597.3 2714.41 595.12 C 2719.15 593.35 2729.75 590.99 2739.79 589.46 L 2744.07 588.81 L 2743.79 580.16 L 2743.5 571.5 L 2678.25 571.24 L 2613 571 L 2613 579.86 Z M 2861.42 572.34 C 2861.14 573.08 2861.04 576.98 2861.2 581.01 C 2861.55 589.51 2860.15 588.56 2877.37 592.09 C 2891.37 594.95 2896.25 597.99 2900.5 606.5 L 2903.5 612.5 L 2903.77 731.5 C 2903.96 813.7 2903.71 852.1 2902.97 855.68 C 2900.37 868.18 2892.23 873.04 2870.97 874.8 L 2862.5 875.5 L 2862.5 893.5 L 2981.18 893.75 L 3099.86 894.01 L 3100.43 888.75 C 3100.73 885.86 3101.69 873.83 3102.53 862 C 3103.595 847.551 3104.772 833.111 3106.06 818.68 C 3107.14 806.68 3107.77 796.44 3107.46 795.93 C 3106.78 794.83 3092.01 794.69 3090.39 795.77 C 3089.77 796.17 3088.92 797.62 3088.49 798.98 C 3086.93 803.98 3076.99 825.31 3072.31 833.71 C 3051.83 870.46 3048.41 872.3 3000.5 872.43 C 2977.8 872.49 2973.8 872.27 2969 870.66 C 2958.37 867.1 2952.93 860.53 2951.07 849 C 2949.6 839.94 2949.6 620.93 2951.07 612.53 C 2953.47 598.7 2958.77 594.67 2979.52 590.88 L 2992 588.6 L 2992 571 L 2926.97 571 C 2873.45 571 2861.85 571.24 2861.42 572.34 M 3108.94 571.74 C 3108.7 574.93 3108.94 588.27 3109.24 588.57 C 3109.45 588.78 3115.17 590.07 3121.95 591.41 C 3142.09 595.41 3149.46 600.24 3151.92 611 C 3152.6 613.95 3152.94 656.76 3152.93 735.5 C 3152.91 862.77 3153.01 860.02 3148.34 865.17 C 3144.1 869.87 3132.43 873.64 3118.98 874.68 C 3114.59 875.02 3110.98 875.57 3110.96 875.9 C 3110.94 876.23 3110.86 880.33 3110.8 885 L 3110.68 893.5 L 3177.08 893.76 C 3213.61 893.9 3243.95 893.85 3244.5 893.64 C 3245.12 893.4 3245.3 889.84 3245 884.38 L 3244.5 875.5 L 3240.5 875.24 C 3232.86 874.74 3218.47 871.81 3213.74 869.78 C 3208.242 867.437 3203.947 862.94 3201.86 857.34 C 3200.74 854.19 3200.5 831.79 3200.5 732.5 L 3200.5 611.5 L 3203.18 605.78 C 3204.94 602.04 3207 599.36 3209.14 598.06 C 3214.57 594.76 3226 591.81 3241.5 589.71 C 3245.32 589.2 3245.67 588.31 3245.36 579.8 L 3245.06 571.5 L 3177.03 571.24 C 3139.61 571.1 3108.97 571.33 3108.94 571.74 M 3256 580.5 C 3256 585.73 3256.14 590 3256.32 590 C 3261.46 590 3279.02 595.04 3285.5 598.37 C 3291.3 601.35 3299.2 609.65 3302.31 616.02 C 3308.49 628.67 3308.5 628.82 3308.5 724.5 C 3308.5 789.26 3308.16 815.33 3307.16 826.5 C 3304.71 853.74 3302.02 860.95 3292.5 865.72 C 3287.9 868.02 3274.93 872.29 3267.25 874.02 L 3262 875.2 L 3262 894 L 3386.07 894 L 3385.79 884.75 L 3385.5 875.5 L 3381.5 874.63 C 3361.4 870.23 3349.74 865.75 3344.5 860.39 C 3333.87 849.49 3332.34 831.09 3332.17 712.25 C 3332.11 671.41 3332.24 638 3332.44 638 C 3332.96 638 3337.44 644.32 3366.44 686.01 L 3385 712.66 L 3395.5 727.6 C 3402.377 737.423 3409.21 747.277 3416 757.16 C 3422.32 766.38 3435.15 784.96 3444.5 798.46 L 3469.28 834.25 C 3472.224 838.553 3475.224 842.816 3478.28 847.04 C 3482.575 853.158 3486.798 859.325 3490.95 865.54 C 3497.25 874.87 3504.48 885.42 3507.02 889 L 3511.63 895.5 L 3522.26 895.78 L 3532.9 896.07 L 3533.3 765.28 C 3533.7 631.45 3533.93 623.12 3537.65 613 C 3542.24 600.5 3552.34 594.15 3573.16 590.67 L 3580.5 589.44 L 3580.79 580.22 L 3581.07 571 L 3454.93 571 L 3455.21 580.24 L 3455.5 589.47 L 3464 591.22 C 3482.19 594.97 3492.17 598.92 3497.21 604.34 C 3507.95 615.9 3509.26 630.86 3508.81 736.18 L 3508.5 809.85 L 3497 793.29 C 3490.68 784.19 3481 770.12 3475.5 762.05 C 3470 753.97 3462.13 742.55 3458 736.65 L 3445.45 718.71 C 3442.68 714.74 3436.57 705.87 3431.88 699 C 3418.09 678.8 3373.9 614.8 3371.18 611.12 C 3369.82 609.26 3365.28 602.72 3361.1 596.58 C 3356.92 590.44 3351.25 582.2 3348.5 578.25 L 3343.5 571.06 L 3299.75 571.03 L 3256 571 L 3256 580.5 Z M 2114.22 719.66 L 2114.5 846.5 L 2116.93 852.35 C 2123.26 867.61 2138.53 874 2165.5 872.66 C 2180.89 871.9 2194.52 868.49 2206.54 862.4 C 2217.56 856.82 2220.22 854.84 2230.6 844.43 C 2247.16 827.85 2257.77 804.2 2262.56 773.22 C 2264.74 759.15 2265.5 729.93 2264.08 715 C 2258.89 660.66 2236.78 622.02 2200.5 603.94 C 2195 601.2 2186 597.76 2180.5 596.31 C 2171.07 593.81 2168.88 593.64 2142.22 593.24 L 2113.94 592.82 L 2114.22 719.66 Z M 1702 955.04 L 1689.27 960.66 C 1688.39 961.04 1688.32 961.73 1689.04 963.08 C 1689.87 964.63 1690.79 964.85 1694.39 964.36 C 1701.42 963.4 1702 964.99 1702 985.24 L 1702 1002.03 L 1697.82 999.26 C 1694.35 996.96 1692.34 996.44 1685.85 996.14 C 1678.8 995.83 1677.44 996.09 1671.77 998.84 C 1664.24 1002.48 1661.3 1005.06 1655.97 1012.67 C 1651.42 1019.16 1648.42 1027.99 1647.07 1038.82 C 1644.62 1058.67 1653.11 1079.02 1666.87 1086.2 C 1676.93 1091.45 1690.69 1089.53 1698.75 1081.75 L 1702 1078.61 L 1702 1083.74 C 1702 1086.57 1702.46 1089.17 1703.02 1089.51 C 1704.49 1090.42 1710.12 1088.48 1721.25 1083.24 C 1729.67 1079.28 1731 1078.32 1731 1076.21 C 1731 1073.91 1730.77 1073.81 1726.73 1074.41 C 1723.73 1074.86 1721.87 1074.62 1720.48 1073.61 C 1718.56 1072.21 1718.48 1070.48 1718 1011.33 C 1717.5 951.44 1717.47 950.5 1715.5 950.23 C 1714.4 950.1 1708.33 952.26 1702 955.04 M 2267.5 955.44 C 2258.31 959.5 2255.5 961.19 2255.5 962.62 C 2255.5 964.2 2256.2 964.47 2259.77 964.31 C 2267.77 963.95 2267.47 961.61 2267.73 1023.86 C 2267.86 1053.8 2268.09 1078.38 2268.23 1078.47 C 2280.78 1086.68 2288.93 1089.33 2300.08 1088.8 C 2310.61 1088.3 2317.73 1085.19 2324.85 1077.96 C 2339.12 1063.46 2343.21 1035.02 2333.91 1015 C 2330.34 1007.33 2326.38 1002.95 2319.38 998.94 C 2315.2 996.54 2313.1 996 2307.94 996 C 2300.2 996 2294.89 998.36 2288.54 1004.62 L 2284 1009.09 L 2284 980.15 C 2284 954.69 2283.81 951.15 2282.42 950.61 C 2280.2 949.76 2280.76 949.58 2267.5 955.44 M 2358.93 955.83 C 2349.74 960.33 2347.45 961.87 2347.77 963.3 C 2348.1 964.82 2348.83 965 2352.49 964.45 C 2356.47 963.85 2356.98 964.03 2358.66 966.61 C 2360.39 969.24 2360.5 972.63 2360.5 1022.05 C 2360.5 1064.53 2360.24 1075.19 2359.14 1077.24 C 2357.71 1079.91 2354.17 1082 2351.06 1082 C 2349.13 1082 2347.59 1084.52 2348.56 1086.09 C 2348.86 1086.59 2358.09 1087 2369.06 1087 L 2389 1087 L 2389 1084.5 C 2389 1082.35 2388.54 1082 2385.75 1081.97 C 2382.04 1081.93 2379.89 1080.57 2378.01 1077.04 C 2376.51 1074.23 2376.41 1069.76 2376.17 998.75 L 2376 950 L 2373.25 950.08 C 2371.74 950.12 2365.3 952.71 2358.93 955.83 M 2987 955.31 C 2977.95 959.41 2975.5 960.95 2975.5 962.51 C 2975.5 964.21 2976.1 964.46 2979.6 964.25 C 2982.7 964.05 2984.15 964.51 2985.6 966.1 C 2987.4 968.1 2987.53 970.9 2988 1023.22 L 2988.5 1078.22 L 2994.96 1082.13 C 3003.71 1087.42 3007.86 1088.51 3019 1088.45 C 3027.63 1088.41 3029.05 1088.12 3034.59 1085.27 C 3056.94 1073.77 3065.56 1041.06 3053.39 1013.94 C 3050.29 1007.02 3042.12 998.85 3036.42 996.97 C 3034.43 996.32 3029.83 995.97 3026.16 996.2 C 3020.71 996.54 3018.66 997.2 3014.86 999.81 C 3012.057 1001.776 3009.463 1004.024 3007.12 1006.52 L 3004.03 1010.04 L 3003.76 980.27 L 3003.5 950.5 L 3001 950.3 C 2999.63 950.18 2993.32 952.44 2987 955.31 M 3378.5 955.45 C 3371.9 958.41 3366.55 961.32 3366.6 961.92 C 3366.66 962.52 3366.77 963.48 3366.85 964.06 C 3366.95 964.74 3368.58 964.89 3371.41 964.46 C 3375.48 963.86 3375.97 964.02 3377.66 966.6 C 3379.21 968.97 3379.56 971.94 3379.84 985.7 C 3380.07 996.97 3379.84 1002 3379.09 1002 C 3378.49 1002 3378 1001.63 3378 1001.17 C 3378 1000.71 3375.8 999.31 3373.12 998.06 C 3366.66 995.03 3355.94 995.45 3348.5 999.03 C 3334.58 1005.71 3324.07 1025.28 3324.02 1044.61 C 3323.97 1062.17 3331.47 1078.07 3343.25 1085.35 C 3352.15 1090.85 3366.31 1090.02 3373.34 1083.59 C 3379.8 1077.66 3379.48 1077.69 3379.66 1083.19 C 3379.74 1085.95 3380.19 1088.57 3380.66 1089.02 C 3381.76 1090.08 3388.39 1087.85 3399.25 1082.77 C 3406.55 1079.35 3408 1078.29 3408 1076.35 C 3408 1074.21 3407.7 1074.08 3403.75 1074.62 C 3400.19 1075.11 3399.17 1074.84 3397.5 1073 C 3395.56 1070.86 3395.49 1069 3395 1010.65 C 3394.5 951.43 3394.47 950.5 3392.5 950.28 C 3391.4 950.16 3385.1 952.48 3378.5 955.45 M 2410.46 953.45 C 2408.49 955.42 2408 956.93 2408 961.03 C 2408 965.36 2408.45 966.61 2410.92 969.08 C 2416.24 974.39 2423.76 971.88 2426.12 964 C 2428.26 956.84 2424.04 951 2416.73 951 C 2414.01 951 2412.2 951.7 2410.45 953.46 M 2204.66 968.98 C 2202.02 977.78 2200.14 985.42 2200.49 985.98 C 2201.84 988.18 2204.7 986.79 2208.23 982.25 C 2215.35 973.09 2228.23 955.49 2228.73 954.25 C 2229.1 953.3 2226.83 953 2219.33 953 L 2209.46 953 L 2204.66 968.98 Z M 1270.4 955.88 C 1266.42 957.102 1262.568 958.71 1258.9 960.68 L 1251.97 964.652 L 1252.36 975.614 L 1252.262 988.538 L 1255.45 981.94 C 1258.65 975.86 1265.51 969.07 1271.57 966 C 1275.85 963.83 1277.82 963.5 1286.5 963.5 C 1295.15 963.5 1297.15 963.83 1301.32 965.96 C 1311.45 971.14 1317.62 978.61 1322.04 991.07 C 1324.8 998.85 1325.19 999.35 1327.14 997.75 C 1328.44 996.67 1328.54 994.35 1327.84 981 C 1326.64 958.14 1326.2 955 1324.11 955 C 1323.11 955 1321.75 956.37 1320.93 958.17 C 1318.48 963.62 1317.05 963.8 1308.33 959.8 C 1304.03 957.83 1298.39 955.72 1295.81 955.1 C 1289.05 953.51 1277.46 953.87 1270.41 955.89 M 2909.56 954.89 C 2909.26 955.39 2905.89 964.05 2902.06 974.15 C 2898.25 984.25 2893.95 995.42 2892.5 999 C 2891.06 1002.58 2889.2 1007.52 2888.37 1010 C 2887.497 1012.59 2886.516 1015.142 2885.43 1017.65 C 2884.842 1018.844 2884.363 1020.089 2884 1021.37 C 2884 1021.68 2881.5 1028.37 2878.43 1036.22 C 2861.61 1079.32 2861.61 1079.31 2854.39 1081.24 C 2850.77 1082.21 2849.97 1082.82 2850.21 1084.47 C 2850.49 1086.42 2851.27 1086.51 2869.25 1086.77 L 2888 1087.04 L 2888 1084.52 C 2888 1082.48 2887.51 1082 2885.43 1082 C 2882.45 1082 2879.03 1080.35 2877.28 1078.09 C 2875.1 1075.25 2875.92 1070.29 2880.75 1057.04 L 2885.5 1044.03 L 2907.64 1044.01 C 2927.8 1044.01 2929.84 1044.16 2930.49 1045.75 C 2935.99 1059.53 2940 1071.62 2940 1074.42 C 2940 1078.89 2936.84 1082 2932.31 1082 C 2929.45 1082 2929 1082.34 2929 1084.5 L 2929 1087 L 2975 1087 L 2975 1084.55 C 2975 1082.57 2974.28 1081.9 2971.34 1081.08 C 2966.54 1079.76 2960.64 1073.34 2958.17 1066.74 C 2957.1 1063.86 2954.55 1057.22 2952.52 1052 L 2946.32 1036 C 2944.94 1032.42 2941.62 1023.88 2938.92 1017 C 2931.674 998.538 2924.527 980.038 2917.48 961.5 C 2916.48 958.75 2915.23 955.94 2914.7 955.25 C 2913.6 953.8 2910.38 953.58 2909.56 954.9 M 2071 959.5 C 2071 961.77 2071.38 962 2075.25 962 C 2081.13 962 2085.61 964.94 2087 969.7 C 2087.78 972.33 2088.02 988.86 2087.8 1023.5 C 2087.47 1077.85 2087.5 1077.66 2081.85 1080.58 C 2079.887 1081.469 2077.764 1081.952 2075.61 1082 C 2071.79 1082 2070.66 1082.96 2071.61 1085.43 C 2072.16 1086.85 2075.04 1087 2097.36 1086.77 C 2121.64 1086.51 2122.5 1086.43 2122.5 1084.52 C 2122.5 1082.92 2121.54 1082.39 2117.5 1081.75 C 2111.74 1080.82 2108.66 1078.02 2107.05 1072.25 C 2106.48 1070.19 2106.01 1059.35 2106.01 1048.17 L 2106 1027.84 L 2112.75 1028.67 C 2121.67 1029.77 2132.43 1029.5 2138 1028.04 C 2148.26 1025.34 2156.9 1016.83 2160.57 1005.8 C 2162.93 998.68 2162.17 984.23 2159.11 977.85 C 2156.11 971.61 2148.61 964.18 2142.5 961.39 C 2134.68 957.82 2126.5 957.02 2097.75 957.01 L 2071 957 L 2071 959.5 Z M 2114 966.68 C 2112.07 966.88 2109.49 967.26 2108.25 967.54 L 2106 968.04 L 2106 1018.92 L 2111.18 1020.46 C 2120.04 1023.09 2126.71 1021.95 2132.58 1016.79 C 2137.17 1012.77 2139.68 1007.72 2140.91 1000.06 C 2142.71 988.93 2139.47 978.26 2132.45 972.09 C 2127.22 967.49 2121.75 965.89 2114 966.69 M 1534.13 978.26 C 1530.5 985.94 1528.43 988.81 1521.88 995.28 C 1517.55 999.56 1514 1003.72 1514 1004.53 C 1514 1005.66 1515.38 1006 1519.94 1006 L 1525.88 1006 L 1526.19 1040.75 C 1526.48 1073.17 1526.63 1075.76 1528.5 1079.43 C 1529.6 1081.6 1531.7 1084.25 1533.18 1085.33 C 1536.04 1087.42 1544.28 1088.65 1548.43 1087.61 C 1555.68 1085.79 1567.03 1069 1561 1069 C 1560.41 1069 1558.36 1070.58 1556.43 1072.5 C 1552.13 1076.8 1548.39 1077.1 1544.93 1073.42 L 1542.5 1070.84 L 1542.19 1038.42 L 1541.87 1006 L 1561 1006 L 1561 998.08 L 1551.75 997.78 L 1542.5 997.5 L 1542.22 983.25 C 1541.97 970.53 1541.76 969 1540.22 969.01 C 1539.04 969.01 1537.14 971.89 1534.13 978.26 M 2905.82 991.26 C 2900.12 1005.6 2889 1034.76 2889 1035.33 C 2889 1035.7 2897.32 1036 2907.5 1036 C 2921.3 1036 2926 1035.7 2926 1034.8 C 2926 1033.14 2908.63 987.03 2908 987.02 C 2907.72 987.02 2906.74 988.92 2905.82 991.25 M 1439 1000.15 C 1425.56 1006.08 1425.04 1006.43 1425.74 1009.1 C 1426.18 1010.82 1426.83 1011.04 1429.88 1010.55 C 1437.66 1009.32 1438 1010.76 1438 1044.79 C 1438 1062.66 1437.6 1074.87 1436.93 1076.76 C 1435.91 1079.69 1433.17 1081.46 1428.5 1082.21 C 1427.28 1082.41 1426.5 1083.31 1426.5 1084.51 C 1426.5 1086.43 1427.21 1086.5 1446.5 1086.5 C 1465.7 1086.5 1466.5 1086.42 1466.5 1084.54 C 1466.5 1083.13 1465.58 1082.39 1463.2 1081.91 C 1458.87 1081.02 1456.24 1078.51 1455.01 1074.1 C 1454.46 1072.12 1454.01 1059.38 1454.01 1045.79 L 1454 1021.07 L 1457.14 1017.5 C 1464.19 1009.46 1474.08 1006.44 1479.7 1010.61 C 1484.86 1014.44 1485.42 1017.95 1485.46 1046.5 C 1485.48 1060.8 1485.16 1073.72 1484.74 1075.22 C 1483.61 1079.24 1480.15 1082 1476.24 1082 C 1473.31 1082 1472.9 1082.3 1473.18 1084.25 C 1473.5 1086.5 1473.52 1086.5 1493.5 1086.5 C 1512.46 1086.5 1513.5 1086.4 1513.5 1084.6 C 1513.5 1083.21 1512.27 1082.35 1508.85 1081.35 C 1505.06 1080.25 1503.96 1079.39 1502.96 1076.75 C 1502.14 1074.59 1501.52 1063.31 1501.1 1043 L 1500.48 1012.5 L 1497.5 1007.1 C 1493.61 1000.06 1488.64 996.75 1481.12 996.2 C 1473.79 995.67 1467.99 998.3 1460.22 1005.63 C 1458.323 1007.495 1456.355 1009.286 1454.32 1011 C 1454.19 1011 1453.95 1007.52 1453.79 1003.26 C 1453.57 997.3 1453.16 995.47 1452 995.31 C 1451.17 995.19 1445.33 997.37 1439 1000.16 M 1766.97 996.36 C 1744.94 1001.11 1731.82 1027.02 1737.07 1055.42 C 1739.47 1068.4 1748.72 1081.69 1758.5 1086.2 C 1762.67 1088.12 1765.17 1088.5 1773.52 1088.5 C 1782.86 1088.5 1784.01 1088.27 1790.32 1085.17 C 1804.29 1078.29 1813.02 1061.42 1812.99 1041.36 C 1812.96 1018.04 1801.44 1000.66 1783.15 996.36 C 1776.45 994.78 1774.29 994.78 1766.97 996.36 M 1831.25 1001.02 C 1821.15 1005.86 1819 1007.27 1819 1009.06 C 1819 1011.05 1819.36 1011.17 1823.32 1010.58 C 1826.94 1010.04 1827.94 1010.28 1829.57 1012.08 C 1831.39 1014.09 1831.5 1015.96 1831.5 1045.69 L 1831.5 1077.17 L 1828.7 1079.59 C 1827.1 1080.96 1824.61 1082 1822.94 1082 C 1820.46 1082 1820 1082.4 1820 1084.52 L 1820 1087.04 L 1840.75 1086.77 C 1860.69 1086.51 1861.5 1086.42 1861.5 1084.51 C 1861.5 1083.31 1860.72 1082.41 1859.5 1082.21 C 1855.55 1081.58 1852.47 1079.86 1850.5 1077.21 C 1848.62 1074.66 1848.5 1072.93 1848.5 1048.48 L 1848.5 1022.45 L 1851.87 1017.2 C 1856.59 1009.85 1857.85 1009.38 1862.99 1013.1 C 1868.98 1017.45 1873.16 1017.93 1876.43 1014.66 C 1878.45 1012.64 1879 1011.1 1879 1007.45 C 1879 1003.5 1878.5 1002.29 1875.6 999.4 C 1872.83 996.63 1871.44 996 1868.05 996 C 1861.04 996 1856.25 999.6 1850.13 1009.5 L 1847.03 1014.5 L 1847.02 1004.75 C 1847 996.11 1846.8 995.01 1845.25 995.08 C 1844.29 995.12 1837.99 997.8 1831.25 1001.02 M 1985.11 996.07 C 1974.8 997.49 1966.73 1005.76 1964.97 1016.71 C 1963.77 1024.13 1964.77 1029.56 1968.34 1034.94 C 1970.94 1038.86 1975.78 1042.32 1991.5 1051.47 C 2002.13 1057.65 2006.27 1062.55 2006.27 1068.91 C 2006.27 1076.05 2000.5 1082.01 1993.6 1081.99 C 1983.57 1081.97 1972.68 1071.49 1970.48 1059.73 C 1969.83 1056.26 1967.78 1054.39 1965.91 1055.56 C 1965.41 1055.86 1965 1063.29 1965 1072.06 L 1965 1088 L 1967.42 1088 C 1968.75 1088 1970.02 1087.46 1970.23 1086.8 C 1970.53 1085.9 1973.1 1086.05 1980.71 1087.45 C 1997.26 1090.48 2006.86 1088.48 2013.83 1080.55 C 2018.5 1075.23 2020.21 1071.26 2020.74 1064.55 C 2021.81 1051.15 2016.44 1043.67 1999.5 1034.98 C 1981.13 1025.56 1977 1021.71 1977 1013.98 C 1977 1011.58 1977.98 1009.78 1980.88 1006.88 C 1984.24 1003.52 1985.38 1003 1989.26 1003 C 1995.04 1003 2000.1 1005.14 2003.3 1008.95 C 2005.8 1011.92 2010 1021.68 2010 1024.54 C 2010 1025.44 2010.98 1026 2012.53 1026 L 2015.05 1026 L 2014.78 1010.83 C 2014.6 1001.18 2014.11 995.53 2013.43 995.31 C 2012.84 995.11 2011.3 995.87 2010.01 996.99 C 2008.71 998.11 2006.95 998.82 2006.08 998.57 C 1996.49 995.82 1991.38 995.21 1985.11 996.07 M 2411 999.82 C 2396.4 1006.43 2396.1 1006.63 2396.7 1008.98 C 2397.15 1010.68 2397.8 1010.9 2400.88 1010.4 C 2403.82 1009.93 2404.91 1010.25 2406.51 1012.02 C 2408.41 1014.11 2408.5 1015.69 2408.5 1045.69 L 2408.5 1077.17 L 2405.7 1079.59 C 2404.1 1080.96 2401.61 1082 2399.94 1082 C 2397.47 1082 2397 1082.4 2397 1084.5 L 2397 1087 L 2437 1087 L 2437 1084.5 C 2437 1082.69 2436.46 1082 2435.05 1082 C 2431.393 1081.924 2428.096 1079.775 2426.55 1076.46 C 2425.23 1073.69 2425 1067.32 2425 1034.1 C 2425 997.52 2424.89 995 2423.25 995.03 C 2422.29 995.05 2416.78 997.21 2411 999.83 M 2555 996.38 C 2547.2 998.17 2541.77 1001.38 2536.16 1007.51 C 2525.66 1019 2521.12 1036.61 2524.43 1052.95 C 2528.08 1070.98 2538.75 1084.89 2551.36 1088.07 C 2559.17 1090.04 2571.76 1088.87 2578.28 1085.57 C 2592.07 1078.59 2600.93 1061.36 2600.98 1041.43 C 2601.03 1021.24 2593.22 1006.58 2578.7 999.6 C 2570.3 995.55 2562.97 994.56 2555 996.38 M 3103.44 996.05 C 3083.84 998.6 3070 1017.95 3070 1042.83 C 3070 1051.58 3072.37 1061.86 3076.07 1069.12 C 3078.75 1074.39 3087.67 1083.77 3092.4 1086.31 C 3095.9 1088.18 3098.1 1088.5 3107.5 1088.5 C 3117.53 1088.5 3119 1088.25 3124.23 1085.69 C 3144.31 1075.83 3153.63 1041.76 3142.63 1018.5 C 3138.54 1009.86 3135.04 1005.64 3128.53 1001.5 C 3120.3 996.26 3113.37 994.75 3103.43 996.05 M 1368.76 997.38 C 1348.39 1004.9 1337.08 1032.64 1344.06 1058.02 C 1347.96 1072.22 1357.98 1084.43 1368.24 1087.48 C 1378.57 1090.55 1391.89 1088.93 1399.76 1083.66 C 1411.86 1075.56 1419.18 1059.36 1419.19 1040.66 C 1419.19 1031.72 1418.81 1029.45 1415.99 1021.71 C 1412.09 1011.01 1405.97 1003.71 1397.26 999.38 C 1392.32 996.91 1390.16 996.47 1382 996.25 C 1375.8 996.09 1371.2 996.48 1368.76 997.38 M 1590 996.89 C 1577.53 1000.91 1569.63 1010.89 1571.4 1020.36 C 1572.63 1026.89 1579.85 1030.15 1583.97 1026.03 C 1586.17 1023.83 1586.7 1021.96 1587.31 1014.16 C 1587.86 1007.08 1590.87 1003.91 1597.66 1003.27 C 1607.03 1002.4 1611.7 1008.34 1612.24 1021.84 L 1612.5 1028.46 L 1602.08 1032.58 C 1581.88 1040.58 1571.86 1048.46 1569.11 1058.5 C 1564.01 1077.06 1577.36 1092.53 1594.24 1087.62 C 1599.17 1086.19 1608.64 1080.02 1610.47 1077.05 C 1611.51 1075.37 1613 1075.84 1613 1077.85 C 1613 1087.56 1622.2 1091.51 1631.64 1085.85 C 1636.55 1082.91 1642 1075.67 1642 1072.08 C 1642 1068.32 1641.09 1068.21 1637.92 1071.59 C 1633.96 1075.83 1632.32 1076.32 1629.98 1073.98 C 1627.98 1071.98 1627.92 1070.99 1628.07 1043.21 C 1628.24 1011.75 1627.79 1008.21 1623 1003.31 C 1617.78 997.97 1613.62 996.55 1602.5 996.31 C 1597 996.18 1591.38 996.45 1590 996.89 M 1907.01 998.15 C 1898.8 1001.39 1891.3 1009.43 1887.09 1019.5 C 1884.23 1026.36 1883.68 1029.02 1883.24 1038.2 C 1882.6 1051.37 1883.98 1059.12 1888.65 1068.67 C 1892.71 1076.96 1897.93 1082.86 1904.13 1086.17 C 1907.87 1088.17 1909.94 1088.5 1918.5 1088.5 C 1930.13 1088.5 1932.56 1087.54 1940.21 1079.88 C 1949.31 1070.78 1954.83 1052.98 1948.55 1053 C 1947.97 1053 1946.69 1054.97 1945.7 1057.38 C 1943.53 1062.67 1937.84 1069.51 1933.95 1071.53 C 1929.87 1073.63 1921.43 1073.39 1916.57 1071.03 C 1911.18 1068.41 1904.98 1062.25 1902.28 1056.85 C 1899.53 1051.35 1897 1041.73 1897 1036.79 L 1897 1033 L 1951 1033 L 1951 1027.12 C 1951 1018.74 1948.5 1011.97 1943.2 1005.99 C 1936.66 998.59 1932.4 996.69 1921.5 996.31 C 1914.11 996.05 1911.52 996.38 1907.01 998.15 M 2473.07 997.11 C 2462.94 1000.18 2452.5 1011.26 2448.65 1023 C 2441.73 1044.17 2445.92 1067.47 2459.02 1080.67 C 2465.42 1087.12 2469.02 1088.5 2479.5 1088.5 C 2486.98 1088.5 2489.26 1088.1 2493 1086.16 C 2502.38 1081.29 2508.25 1073.58 2512.03 1061.14 C 2513.89 1055.01 2514.03 1053.64 2512.88 1052.9 C 2510.64 1051.49 2510.36 1051.73 2507.48 1057.75 C 2495.62 1082.47 2469.12 1076.82 2462.61 1048.18 C 2460.61 1039.36 2460.58 1031.38 2462.55 1023.05 C 2465.47 1010.65 2472.08 1004 2481.46 1004 C 2487.99 1004 2491.22 1007.32 2492.86 1015.71 C 2493.77 1020.32 2494.76 1022.45 2496.68 1023.96 C 2500.16 1026.7 2505.92 1026.66 2508.92 1023.86 C 2510.95 1021.96 2511.17 1020.99 2510.81 1015.36 C 2510.44 1009.56 2510.06 1008.64 2506.45 1004.91 C 2500.15 998.41 2495.91 996.67 2485.5 996.35 C 2480.55 996.2 2474.96 996.54 2473.07 997.11 M 2627.53 998.53 C 2619.45 1002.823 2615.02 1009.84 2614.24 1019.58 C 2613.15 1033.18 2617.98 1039.18 2638.7 1049.99 C 2654.22 1058.09 2659.76 1067.89 2653.77 1076.63 C 2648.47 1084.37 2638.4 1083.87 2629.02 1075.4 C 2624.85 1071.63 2622.24 1067.13 2619.78 1059.5 C 2619.03 1057.19 2617.86 1055.5 2617 1055.5 C 2615.74 1055.5 2615.46 1058.12 2615.22 1071.75 C 2614.96 1087.49 2615.02 1088 2616.98 1088 C 2618.08 1088 2619 1087.55 2619 1087 C 2619 1085.61 2623.41 1085.8 2630.5 1087.52 C 2647.5 1091.62 2660.64 1087.27 2667.75 1075.18 C 2670.13 1071.13 2670.5 1069.43 2670.5 1062.5 C 2670.5 1055.53 2670.14 1053.88 2667.68 1049.7 C 2664.28 1043.9 2659.9 1040.63 2645.75 1033.28 C 2639.81 1030.2 2633.32 1026.26 2631.32 1024.54 C 2628.14 1021.78 2627.64 1020.72 2627.24 1015.84 C 2626.81 1010.74 2627.03 1010 2629.81 1006.89 C 2632.69 1003.66 2633.16 1003.5 2639.69 1003.5 C 2645.34 1003.5 2647.07 1003.9 2649.49 1005.81 C 2654.054 1009.429 2657.224 1014.518 2658.46 1020.21 C 2659.37 1024.3 2660.11 1025.57 2661.69 1025.81 C 2664.76 1026.26 2665.11 1024.11 2664.37 1009.37 C 2663.66 995.19 2663.03 993.85 2658.9 997.59 C 2657.3 999.05 2656.67 999.05 2651.67 997.59 C 2643.07 995.09 2633.28 995.48 2627.53 998.53 M 3182.3 998.03 C 3175.2 1000.86 3167.82 1007.73 3164.91 1014.23 C 3163.07 1018.33 3162.55 1021.27 3162.54 1027.5 C 3162.53 1037.28 3164.81 1042.95 3171.32 1049.28 L 3175.79 1053.62 L 3171.33 1058.99 C 3165.45 1066.06 3164 1069.05 3164 1074.05 C 3164 1077.45 3164.63 1078.83 3167.5 1081.7 C 3169.43 1083.62 3171 1085.39 3171 1085.61 C 3171 1085.83 3168.97 1088.51 3166.5 1091.56 C 3161.12 1098.16 3157 1105.95 3157 1109.52 C 3157 1115.72 3163.43 1122.52 3172.5 1125.92 C 3196.36 1134.84 3222.72 1127 3232.75 1108 C 3235.97 1101.9 3236.16 1101.01 3235.84 1093.42 C 3235.54 1086.39 3235.14 1084.86 3232.69 1081.66 C 3227.47 1074.81 3223.97 1073.8 3202.14 1072.84 C 3185.01 1072.09 3182.46 1071.75 3179.9 1069.93 C 3175.91 1067.09 3176.3 1063.75 3181.21 1058.34 C 3182.85 1056.54 3183.68 1056.34 3186.33 1057.09 C 3191.19 1058.49 3201.06 1058.17 3206.91 1056.43 C 3222.93 1051.68 3231.51 1030.89 3224.52 1013.8 C 3223.91 1012.3 3224.68 1012.06 3230.66 1011.8 L 3237.5 1011.5 L 3237.8 1006.75 L 3238.11 1002 L 3226.98 1002 C 3216.74 1002 3215.49 1001.79 3211.32 999.34 C 3207.44 997.07 3205.4 996.64 3197.14 996.33 C 3189.18 996.03 3186.59 996.33 3182.3 998.03 M 3266.36 997.03 C 3261.06 998.66 3253.66 1004.29 3251.29 1008.5 C 3248.76 1012.99 3248.29 1020.05 3250.26 1023.92 C 3252.55 1028.39 3260.76 1029.19 3262.92 1025.14 C 3263.46 1024.14 3264.12 1020.34 3264.39 1016.71 C 3264.65 1013.09 3265.36 1009.19 3265.96 1008.07 C 3267.46 1005.26 3272.17 1003 3276.52 1003 C 3285.72 1003 3290.49 1009.98 3289.82 1022.42 L 3289.5 1028.35 L 3276.5 1033.95 C 3257.73 1042.02 3251.47 1046.85 3247.53 1056.27 C 3245.18 1061.9 3245.57 1071.53 3248.38 1077.57 C 3251.14 1083.49 3254.63 1086.55 3260.37 1088.1 C 3268.43 1090.27 3276.61 1087.64 3285.12 1080.14 C 3290.05 1075.79 3291 1075.77 3291 1080.04 C 3291 1083.65 3294.35 1087.7 3298 1088.5 C 3302.58 1089.5 3307.9 1087.2 3313.72 1081.7 C 3318.05 1077.6 3319 1076.1 3319 1073.35 C 3319 1069.21 3317.63 1069.1 3314.35 1073 C 3311.34 1076.58 3309.65 1076.77 3307.55 1073.78 C 3306.24 1071.89 3306 1067.27 3306 1043.46 C 3306 1012.46 3305.3 1007.53 3300.27 1002.82 C 3294.87 997.77 3291.25 996.62 3280 996.33 C 3274.22 996.19 3268.09 996.51 3266.36 997.03 M 3440.5 997.28 C 3426.64 1002.98 3418.51 1012.53 3414.57 1027.72 C 3412.27 1036.63 3412.5 1051.18 3415.1 1059.64 C 3417.58 1067.71 3424.5 1078.62 3429.61 1082.52 C 3437.87 1088.82 3451.42 1090.85 3462.75 1087.48 C 3486.14 1080.54 3497.49 1043.22 3484.42 1016.28 C 3481.14 1009.53 3474.6 1002.85 3467.86 999.38 C 3463.31 997.04 3461.06 996.58 3453 996.33 C 3447.09 996.15 3442.37 996.51 3440.5 997.28 M 3517.2 998.59 C 3507.91 1003.22 3503.62 1010.98 3503.73 1022.94 C 3503.83 1033.87 3508.47 1039.19 3526.01 1048.51 C 3541.95 1056.97 3547.29 1063.73 3544.9 1072.41 C 3541.57 1084.47 3526.34 1085.11 3516.36 1073.63 C 3512.36 1069.01 3509 1062.08 3509 1058.42 C 3509 1057.09 3508.59 1056 3508.08 1056 C 3507.58 1056 3506.45 1055.73 3505.58 1055.4 C 3504.18 1054.85 3504 1056.66 3504 1071.4 L 3504 1088 L 3506.42 1088 C 3507.75 1088 3509.02 1087.45 3509.24 1086.77 C 3509.56 1085.83 3511.71 1085.94 3518.66 1087.27 C 3535.32 1090.47 3543.28 1089.26 3550.96 1082.35 C 3557.66 1076.32 3560.01 1071.15 3559.98 1062.43 C 3559.93 1048.63 3555.4 1043.45 3533.5 1032.13 C 3521.56 1025.96 3520.86 1025.45 3518.13 1020.98 C 3515.47 1016.61 3515.43 1012.66 3518.01 1008.48 C 3520.59 1004.3 3524.73 1002.62 3530.97 1003.22 C 3539.52 1004.04 3544.84 1009.69 3547.97 1021.25 C 3549.05 1025.22 3549.65 1026 3551.63 1026 L 3554 1026 L 3554 1011 C 3554 997.65 3553.82 996 3552.33 996 C 3551.41 996 3549.85 996.73 3548.86 997.63 C 3547.2 999.13 3546.56 999.13 3540.57 997.63 C 3530.83 995.18 3523.42 995.49 3517.2 998.59 M 2167 1000.5 C 2167 1002.46 2167.51 1003 2169.35 1003 C 2173.5 1003 2177.69 1005.03 2178.86 1007.6 C 2179.62 1009.26 2180.01 1018.88 2180.02 1036.3 C 2180.04 1064.58 2180.98 1072.58 2185.22 1080.32 C 2189.56 1088.26 2202.01 1091.48 2211.5 1087.12 C 2215.23 1085.4 2226 1075.49 2226 1073.77 C 2226 1073.35 2226.35 1073 2226.77 1073 C 2227.19 1073 2227.37 1076.28 2227.17 1080.3 C 2226.68 1089.95 2227.44 1090.57 2236.01 1087.54 C 2239.58 1086.27 2245.54 1083.81 2249.25 1082.08 C 2255.01 1079.38 2256 1078.54 2256 1076.35 C 2256 1073.74 2254.84 1073.59 2249.76 1075.54 C 2248.97 1075.84 2247.24 1075.21 2245.91 1074.14 L 2243.5 1072.18 L 2243.22 1035.06 L 2242.92 997.95 L 2228.72 998.22 C 2215.32 998.48 2214.5 998.62 2214.5 1000.47 C 2214.5 1002.03 2215.44 1002.6 2219 1003.2 C 2227.09 1004.56 2227 1004.2 2227 1037 L 2227 1065.77 L 2223.06 1069.33 C 2217.72 1074.16 2213.86 1076 2209.1 1076 C 2203.3 1076 2200.3 1074.25 2198.01 1069.53 C 2196.11 1065.61 2196 1063.41 2196 1031.68 L 2196 998 L 2167 998 L 2167 1000.5 Z M 2719 1000.41 C 2719 1002.09 2719.71 1003.08 2721.25 1003.55 C 2726.38 1005.1 2729.88 1010.25 2735.46 1024.5 C 2738.837 1032.719 2742.337 1040.886 2745.96 1049 C 2749.818 1057.671 2753.625 1066.364 2757.38 1075.08 L 2761.03 1083.65 L 2757.13 1094.05 C 2754.9 1099.96 2751.81 1106.14 2749.97 1108.33 C 2746.41 1112.57 2745.44 1112.66 2737.13 1109.56 C 2731.2 1107.34 2726.83 1108.74 2724.53 1113.59 C 2721.48 1120.01 2725.15 1126.89 2732.69 1128.92 C 2742.53 1131.57 2752.74 1123.97 2760.15 1108.5 C 2763.91 1100.66 2781.28 1054.41 2791.03 1026.26 C 2796.73 1009.82 2799.2 1005.46 2803.79 1003.78 C 2806.24 1002.88 2807.01 1002.04 2806.79 1000.53 C 2806.51 998.6 2805.81 998.5 2793 998.5 C 2780.48 998.5 2779.5 998.64 2779.5 1000.37 C 2779.5 1001.617 2780.667 1002.62 2783 1003.38 C 2786.33 1004.48 2786.5 1004.75 2786.42 1009.01 C 2786.35 1013.17 2784.81 1017.81 2771.79 1052.8 L 2768.69 1061.1 L 2763.32 1048.8 C 2760.951 1043.343 2758.528 1037.909 2756.05 1032.5 C 2746.32 1012 2745.68 1005.18 2753.27 1003.2 C 2755.51 1002.63 2756.5 1001.78 2756.5 1000.44 C 2756.5 998.6 2755.53 998.49 2737.75 998.23 L 2719 997.96 L 2719 1000.41 Z M 3189.02 1003.07 C 3182.89 1005.64 3180.12 1010.9 3179.29 1021.61 C 3177.99 1038.28 3185.49 1051.97 3195.94 1051.99 C 3203.51 1052.01 3209.26 1044.66 3210.54 1033.34 C 3211.75 1022.64 3207.42 1009.09 3201.37 1004.64 C 3198.32 1002.4 3192.41 1001.64 3189.02 1003.07 M 1374.15 1004.02 C 1366.42 1007.27 1361.91 1014.08 1359.92 1025.55 C 1357.76 1037.96 1360.63 1056.43 1366.53 1068 C 1375.53 1085.67 1392.63 1085.12 1399.68 1066.93 C 1401.04 1063.43 1401.4 1059.27 1401.4 1047 C 1401.4 1032.68 1401.2 1030.9 1398.66 1023.6 C 1395.6 1014.8 1391.36 1008.24 1387.13 1005.74 C 1383.51 1003.6 1377.16 1002.76 1374.14 1004.02 M 1680.74 1004.45 C 1673.98 1006.82 1671.08 1009.99 1667.45 1019 C 1663.88 1027.86 1662.91 1044.73 1665.45 1053.5 C 1669.87 1068.7 1677.89 1077 1688.13 1077 C 1692.07 1077 1699.13 1073 1700.85 1069.78 C 1702.81 1066.12 1702.07 1017.45 1700 1014 C 1694.82 1005.37 1687.9 1001.94 1680.74 1004.45 M 1769.5 1004.01 C 1759.67 1006.11 1754.38 1015.26 1753.29 1032.06 C 1752.03 1051.39 1759.09 1071.72 1769.39 1078.4 C 1779.14 1084.72 1789.43 1079.22 1793.66 1065.42 C 1796.19 1057.19 1796.2 1037.22 1793.68 1027.42 C 1789.51 1011.13 1779.86 1001.8 1769.5 1004.02 M 2556 1004.17 C 2546.4 1006.88 2541 1018.32 2541 1035.94 C 2541 1052.31 2547.16 1070.69 2554.73 1076.93 C 2561.62 1082.61 2569.48 1082.29 2575.7 1076.07 C 2580.7 1071.07 2583.15 1063.43 2583.76 1051 C 2584.91 1027.8 2576.42 1007.1 2564.53 1004.11 C 2562.979 1003.675 2561.402 1003.335 2559.81 1003.09 L 2556 1004.17 Z M 3100.38 1004.87 C 3091.46 1009.02 3087.5 1018.6 3087.5 1036 C 3087.5 1049.26 3089.16 1056.68 3094.56 1067.73 C 3099.28 1077.38 3103.29 1080.5 3111 1080.5 C 3115.6 1080.5 3117.31 1080 3120.2 1077.8 C 3127.33 1072.36 3130.67 1059.93 3129.7 1042.5 C 3128.16 1015.08 3114.93 998.1 3100.38 1004.87 M 3359.28 1004.07 C 3354.68 1005.02 3351.55 1007.33 3348.23 1012.23 C 3344.72 1017.41 3344.38 1018.3 3342.49 1027.35 C 3340.59 1036.51 3340.61 1043.17 3342.58 1051.69 C 3345.3 1063.43 3350.87 1071.67 3358.4 1075.09 C 3363.7 1077.5 3366.4 1077.47 3371.68 1074.91 C 3379.96 1070.91 3379.9 1071.14 3379.67 1043.7 C 3379.44 1016.2 3378.87 1013.62 3371.82 1007.58 C 3367.58 1003.95 3364.34 1003.04 3359.27 1004.08 M 3443.46 1004.84 C 3434.02 1009.22 3430.49 1017.72 3430.52 1036 C 3430.55 1050.19 3432.13 1057.68 3437.28 1067.9 C 3441.41 1076.11 3446.25 1080.13 3452.79 1080.75 C 3461.09 1081.55 3466.48 1077.23 3470.59 1066.5 C 3472.15 1062.41 3472.49 1058.94 3472.46 1047.5 C 3472.43 1032.54 3471.01 1025.2 3466.38 1015.86 C 3464.11 1011.29 3456.78 1004 3454.45 1004 C 3453.79 1004 3451.95 1003.77 3450.38 1003.48 C 3448.66 1003.18 3445.87 1003.72 3443.46 1004.84 M 1907.52 1006.29 C 1903.34 1008.65 1898.78 1016.14 1897.47 1022.77 L 1896.83 1026.05 L 1914.65 1025.77 L 1932.46 1025.5 L 1932.15 1021 C 1931.21 1007.46 1918.68 999.97 1907.52 1006.29 M 3017.36 1010.93 C 3012.46 1012.13 3007.51 1015.63 3005.62 1019.23 C 3004.1 1022.12 3003.93 1025.41 3004.2 1047.45 L 3004.5 1072.4 L 3008.8 1075.67 C 3017.34 1082.19 3025.58 1082.22 3031.98 1075.74 C 3040.57 1067.04 3045.08 1048.18 3041.96 1034 C 3038.43 1017.94 3028.14 1008.3 3017.36 1010.93 M 2291.61 1012.93 C 2289.677 1014.284 2287.923 1015.876 2286.39 1017.67 C 2284.1 1020.47 2284.07 1020.83 2284.04 1046.07 L 2284 1071.63 L 2286.75 1074.13 C 2292.09 1078.99 2295.29 1080.41 2301.04 1080.46 C 2305.79 1080.49 2307.14 1080.05 2310.59 1077.32 C 2322.52 1067.88 2326.39 1041.56 2318.43 1024.09 C 2315.77 1018.25 2311.45 1013.5 2307.41 1011.97 C 2303.07 1010.32 2294.8 1010.82 2291.61 1012.92 M 1602.86 1040.25 C 1592.96 1045.32 1586.62 1051.21 1584.9 1056.95 C 1583.85 1060.45 1583.92 1061.9 1585.37 1066.5 C 1588.98 1077.97 1599.03 1079.12 1610.03 1069.32 L 1613 1066.67 L 1613 1051.33 C 1613 1042.68 1612.6 1036 1612.08 1036 C 1611.58 1036 1607.43 1037.91 1602.86 1040.25 M 3280.28 1040.3 C 3267.35 1046.9 3262 1053.11 3262 1061.5 C 3262 1069.34 3267.64 1075.99 3274.29 1076 C 3277.48 1076 3284.43 1072.76 3287.75 1069.71 C 3289.9 1067.74 3290 1066.96 3290 1051.83 C 3290 1043.13 3289.66 1036.03 3289.25 1036.05 C 3288.84 1036.07 3284.8 1037.99 3280.28 1040.3 M 1323.16 1059.75 C 1312.56 1075.32 1298.64 1081.83 1282.96 1078.56 C 1270.16 1075.89 1261.36 1070.06 1255.96 1060.63 L 1250.834 1050.298 L 1252.14 1068.135 L 1251.863 1080.139 L 1258.75 1083.85 C 1266.88 1087.91 1274.1 1089.45 1284.66 1089.39 C 1303.2 1089.27 1316.06 1081.61 1327.73 1063.69 C 1332.25 1056.76 1332.63 1054 1329.07 1054 C 1327.77 1054 1325.72 1055.98 1323.16 1059.75 M 3175.46 1091.05 C 3168.48 1102.12 3169.6 1108.3 3179.51 1113.29 C 3188.31 1117.72 3205.17 1117.98 3215.55 1113.84 C 3228.89 1108.52 3232.45 1094.56 3221.5 1090.57 C 3219.86 1089.97 3185.75 1087.07 3179.76 1087.02 C 3178.81 1087.01 3176.87 1088.82 3175.46 1091.05"/>
  <path fill-rule="evenodd" d="M 1244.01 11.534 C 1244.01 22.794 1244.06 23.034 1246.26 23.044 C 1247.5 23.054 1250.289 23.521 1251.529 23.851 C 1253.769 24.451 1253.924 24.224 1253.924 12.154 L 1253.195 -0.07 L 1244.01 0.034 L 1244.01 11.534 Z M 1243.23 419.781 L 1243.393 433.18 L 1248.329 433.131 L 1253.901 433.125 L 1253.569 406.499 L 1242.95 407.031 L 1243.23 419.781 Z M 1226.23 473.281 L 1226.51 485.531 L 1232.57 486.281 C 1235.9 486.681 1241.87 487.841 1245.82 488.851 L 1253.01 490.681 L 1253.31 461.006 L 1225.95 461.031 L 1226.23 473.281 Z M 1249.01 865.021 C 1247.64 865.471 1242.12 866.631 1236.76 867.601 L 1227.01 869.341 L 1227.01 894.031 L 1253.01 894.031 L 1253.01 879.031 C 1253.01 870.781 1252.67 864.071 1252.26 864.111 C 1251.85 864.151 1250.39 864.561 1249.01 865.011 M 1246.77 970.331 C 1239.92 977.271 1234.29 986.631 1230.43 997.531 C 1227.92 1004.61 1227.55 1007.2 1227.23 1020.03 C 1226.78 1037.59 1228.23 1045.71 1233.92 1057.45 C 1237.66 1065.19 1249.65 1080.03 1252.16 1080.03 C 1252.74 1080.03 1252.96 1074.66 1252.73 1066.28 C 1252.43 1055.27 1251.89 1051.14 1250.02 1045.53 C 1247.98 1039.4 1247.68 1036.53 1247.64 1022.53 C 1247.59 1008.09 1247.85 1005.55 1250.34 996.501 C 1252.7 987.871 1253.04 984.921 1252.8 975.501 L 1252.51 964.531 L 1246.77 970.331 Z" style="stroke-width: 1; fill: rgb(94, 94, 95);"/>
</svg>